<svg width="32" height="32" viewBox="0 0 32 32" fill="none" xmlns="http://www.w3.org/2000/svg">
<path fill-rule="evenodd" clip-rule="evenodd" d="M6.19926 4.78298C6.53866 3.16148 7.9684 2 9.62504 2H24.0004C24.4456 2 24.868 2.19794 25.153 2.54022C25.438 2.8825 25.5562 3.33372 25.4754 3.77174L21.9754 22.7718C21.8268 23.579 21.0576 24.1154 20.251 23.9792C20.1694 23.9928 20.0856 24 20 24H6.5C5.67158 24 5 24.6716 5 25.5C5 26.3284 5.67158 27 6.5 27H21.19C22.3904 27 23.4212 26.147 23.6458 24.9678L27.0264 7.21936C27.1816 6.40556 27.9668 5.87152 28.7806 6.02652C29.5944 6.18154 30.1286 6.9669 29.9736 7.7807L26.5928 25.5292C26.0988 28.1232 23.8308 30 21.19 30H6.5C4.01472 30 2 27.9854 2 25.5C2 25.3932 2.00372 25.2874 2.01104 25.1824C1.99155 25.0234 1.99745 24.8584 2.03212 24.6928L6.19926 4.78298ZM10.7191 6C10.2887 6 9.90652 6.27544 9.7704 6.68378L9.43706 7.68378C9.22122 8.3313 9.70318 9 10.3857 9H18.2776C18.708 9 19.0901 8.72456 19.2262 8.31622L19.5596 7.31622C19.7754 6.6687 19.2935 6 18.6109 6H10.7191Z" fill="#283643"/>
</svg>
