<svg width="134" height="329" viewBox="0 0 134 329" fill="none" xmlns="http://www.w3.org/2000/svg">
<path d="M57.875 237V314.75H40.875V237H57.875Z" fill="#C99584"/>
<path d="M91.125 247.5V310.5H74.125V247.5H91.125Z" fill="#C99584"/>
<path d="M62.9946 289.605C61.8524 287.75 59.2826 288.195 58.1406 288.65L58.4261 289.74C58.9019 289.832 60.1106 290.015 60.5676 290.56C61.1386 291.242 60.7104 292.605 61.1386 292.877C61.5669 293.152 62.7091 292.877 63.2801 292.877C63.8511 292.877 64.4221 291.925 62.9946 289.605Z" fill="black"/>
<path fill-rule="evenodd" clip-rule="evenodd" d="M60.2353 288.882L60.2568 288.89L60.4912 289.021L60.5439 288.973L60.6074 288.911C60.6449 288.874 60.7014 288.865 60.748 288.887L60.7675 288.897L62.0175 289.772C62.0738 289.812 62.0872 289.89 62.0478 289.946C62.0126 289.996 61.9474 290.013 61.8935 289.988L61.874 289.977L61.4375 289.672L61.4267 289.713C61.3708 289.924 61.299 290.129 61.2226 290.255L61.2119 290.27C61.2478 290.3 61.3004 290.336 61.3672 290.377L61.4541 290.429L61.5654 290.489L61.6953 290.557V290.25C61.6953 290.155 61.7946 290.098 61.875 290.138L61.8935 290.148L62.7685 290.773C62.861 290.84 62.8229 290.98 62.7177 290.998L62.6953 291H62.209C62.2912 291.008 62.3495 291.102 62.3076 291.181L62.2959 291.2L62.1054 291.454L62.2422 291.509C62.299 291.531 62.33 291.591 62.3183 291.649L62.3115 291.671C62.2887 291.728 62.2289 291.759 62.1709 291.747L62.1494 291.741L61.9502 291.661L61.9209 291.7C61.8533 291.79 61.7143 291.751 61.6972 291.646L61.6953 291.625V291.559L61.5244 291.491C61.4271 291.452 61.4205 291.321 61.5039 291.269L61.5244 291.259L61.6953 291.19V290.837L61.6084 290.794C61.5417 290.76 61.477 290.727 61.417 290.694L61.331 290.645C61.2096 290.576 61.1152 290.515 61.0517 290.462C60.9354 290.364 60.8796 290.264 60.9824 290.161C61.0301 290.113 61.1028 289.931 61.1601 289.739L61.1748 289.686L60.5244 289.325L60.4912 289.352C60.3871 289.433 60.294 289.487 60.2216 289.498L60.1953 289.5C60.0414 289.5 60.004 289.379 60.0185 289.223C60.026 289.143 60.0488 289.045 60.0771 288.96C60.0995 288.893 60.1714 288.86 60.2353 288.882ZM61.9453 291.09L62.1494 291.009C62.1562 291.006 62.1632 291.004 62.1699 291.003L62.1865 291H62.0703L62.0195 290.989L61.9453 290.955V291.09ZM61.9453 290.68L62.0351 290.722L62.0976 290.75H62.3056L61.9453 290.492V290.68Z" fill="#EACE56" fill-opacity="0.78"/>
<path d="M12.3895 323.25C12.0854 322.5 12.1378 320.875 14.0127 320.125C15.8876 319.375 38.0125 323.25 38.0125 323.25C43.7083 322.785 59.0055 315.32 64.6378 318.75C66.4195 319.835 65.8155 323.272 65.1578 326.49C64.1053 327.562 53.4578 328.5 50.0055 327.695C50.0055 325.82 49.7368 324.612 49.7368 324.612C49.7368 324.612 47.6453 325.962 45.3878 326.49C40.783 327.562 39.7753 328.75 25.5128 328.75C14.0736 327.677 13.2509 325.375 12.3895 323.25Z" fill="#383129"/>
<path d="M24.2676 326.181C24.7627 326.223 25.2591 326.247 25.7559 326.25L25.7539 326.5C25.2506 326.497 24.7477 326.473 24.2461 326.43L24.2676 326.181ZM28.7539 326.456C28.2575 326.472 27.7571 326.483 27.2529 326.49L27.249 326.24C27.7519 326.233 28.251 326.222 28.7461 326.206L28.7539 326.456ZM31.7559 326.31C31.2611 326.343 30.7613 326.371 30.2568 326.396L30.2451 326.146C30.748 326.122 31.2461 326.092 31.7393 326.06L31.7559 326.31ZM21.3223 325.702C21.8049 325.818 22.2929 325.916 22.7842 325.996L22.7432 326.243C22.2458 326.162 21.7521 326.062 21.2637 325.945L21.3223 325.702ZM34.75 326.054C34.2576 326.105 33.7586 326.153 33.2539 326.196L33.2324 325.946C33.7355 325.903 34.2329 325.857 34.7236 325.806L34.75 326.054ZM37.7324 325.679C37.2446 325.751 36.7484 325.819 36.2441 325.882L36.2129 325.634C36.7155 325.571 37.2101 325.503 37.6963 325.432L37.7324 325.679ZM18.4775 324.798C18.9343 324.98 19.403 325.149 19.8809 325.301L19.8057 325.539C19.3219 325.385 18.8472 325.215 18.3848 325.03L18.4775 324.798ZM40.6943 325.17C40.2136 325.265 39.7202 325.356 39.2158 325.442L39.1738 325.196C39.6761 325.11 40.1669 325.02 40.6455 324.925L40.6943 325.17ZM43.627 324.499C43.1597 324.622 42.672 324.742 42.166 324.857L42.1104 324.613C42.6137 324.499 43.0989 324.38 43.5635 324.258L43.627 324.499ZM15.8057 323.485C16.2159 323.731 16.6552 323.969 17.1162 324.194L17.0059 324.419C16.5387 324.19 16.094 323.949 15.6777 323.7L15.8057 323.485ZM46.5156 323.669L45.0752 324.091L45.0059 323.852L46.4443 323.43L46.5156 323.669ZM49.3906 322.811L47.9541 323.243L47.8828 323.003C47.9987 322.968 48.1128 322.934 48.2246 322.9L49.3184 322.571L49.3906 322.811ZM13.4795 321.67C13.7317 321.968 14.1054 322.308 14.5703 322.659L14.4199 322.858C13.9412 322.497 13.5544 322.145 13.2891 321.831L13.4795 321.67ZM53.8057 322.442C54.3159 322.458 54.817 322.468 55.3018 322.471L55.3008 322.721C54.8139 322.718 54.3102 322.708 53.7979 322.692L53.8057 322.442ZM58.3096 322.627C57.8529 322.665 57.3491 322.691 56.8047 322.706L56.7979 322.456C57.338 322.441 57.8373 322.415 58.2891 322.378L58.3096 322.627ZM51.917 322.358L52.3096 322.38L52.2969 322.629C51.8985 322.608 51.5111 322.585 51.1494 322.56L50.7969 322.534L50.8154 322.285C51.1571 322.311 51.5291 322.336 51.917 322.358ZM61.2881 322.162C60.938 322.235 60.546 322.308 60.0898 322.386L59.8086 322.434L59.7676 322.187C60.1997 322.115 60.5762 322.048 60.9131 321.982L61.2373 321.917L61.2881 322.162ZM64.1357 321.107C63.7536 321.38 63.311 321.595 62.7549 321.781L62.6758 321.545C63.2097 321.366 63.6306 321.161 63.9912 320.904L64.1357 321.107Z" fill="#67513B"/>
<path d="M45.6407 288.126C46.8594 288.126 53.9702 291.858 57.6597 288.963C58.0652 288.646 58.8904 288.906 58.8912 289.421C58.8979 294.396 58.9714 303.046 59.7164 306.476C60.5057 310.111 61.1722 309.591 61.9612 312.966C62.5077 315.303 64.2774 320.756 61.9612 320.756H51.3977C48.8984 320.756 45.5229 323.658 37.2002 324.473C23.3845 325.828 20.0084 323.973 17.2499 323.098C10.9733 321.108 14.1586 316.553 17.2499 315.098C21.7785 312.966 28.2687 311.366 31.5699 309.598C34.1407 308.223 35.0234 307.796 36.3432 306.348C38.5192 303.963 40.4307 291.416 40.7262 288.138C40.7467 287.911 41.0669 287.793 41.2617 287.913C42.5489 288.706 44.4324 288.126 45.6407 288.126Z" fill="#2D2B30"/>
<path d="M18.0064 319.052C18.1462 318.589 18.6346 318.328 19.0971 318.467L19.4575 318.575C20.9828 319.025 22.0593 319.267 23.4271 319.414C25.4301 319.629 27.5535 319.53 29.9092 319.036C30.3822 318.937 30.846 319.24 30.9451 319.713C31.0443 320.186 30.7413 320.65 30.2683 320.749C27.7314 321.281 25.4237 321.389 23.2399 321.154C21.6359 320.981 20.4081 320.692 18.5908 320.142C18.1282 320.003 17.8666 319.514 18.0064 319.052Z" fill="#59555F"/>
<path d="M34.8906 314.25C37.3384 312 46.2656 306.972 45.6406 288.125C46.7014 288.125 49.2656 289.5 53.1406 289.75C57.2099 289.628 57.1431 289.26 58.2209 288.65C58.2501 288.632 58.2839 288.608 58.3116 288.59C60.0019 287.452 59.2416 305.628 60.4546 308.847C61.4339 311.448 63.2696 315.347 63.2696 320.097C62.4129 321.597 53.9679 320.847 51.2751 320.847C50.0156 314.125 40.1406 319.25 38.0156 318.625C36.1504 318.077 34.8906 317 34.8906 314.25Z" fill="#1D1D20"/>
<path d="M37.8906 306.15C40.6906 303.95 41.7656 293.25 41.8906 288.125C41.3906 288 41.2656 287.65 40.8906 287.775C40.5156 287.9 40.5156 289.4 40.3906 290.65C40.2539 292.02 39.2656 296.275 38.7656 299.15C38.2656 302.025 37.7656 303.775 35.8906 306.15C34.3906 308.05 28.5156 310 26.6406 311.625C26.8489 311.582 27.3906 311.3 27.8906 311.4C28.5156 311.525 28.3906 311.65 29.1406 311.65C29.8906 311.65 34.3906 308.9 37.8906 306.15Z" fill="#1D1D20"/>
<path d="M40.6728 288.928C40.7776 288.613 41.108 288.437 41.424 288.521L41.4634 288.532L46.7134 290.282C47.2822 290.472 47.2788 291.267 46.7297 291.463L46.6875 291.476L42.9568 292.542L45.9266 294.069C46.4438 294.335 46.3459 295.093 45.7961 295.231L45.7551 295.24L42.5148 295.842L45.8706 297.169C46.4029 297.379 46.3914 298.127 45.8728 298.331L45.8308 298.346L41.461 299.74L45.2845 301.561C45.837 301.824 45.7179 302.633 45.1319 302.739L45.0902 302.746L40.3873 303.31L43.6408 305.75C44.1104 306.102 43.8776 306.841 43.3062 306.874L43.2658 306.875H38.3053L41.7014 310.177C42.1429 310.606 41.763 311.339 41.1703 311.243L41.1322 311.236L34.7233 309.834L37.2735 313.386C37.6449 313.903 37.0969 314.57 36.5257 314.327L36.4907 314.311L30.1157 311.186C29.8057 311.034 29.6776 310.66 29.8296 310.35C29.9752 310.053 30.3251 309.923 30.6268 310.046L30.6659 310.064L34.8073 312.094L32.7581 309.24C32.4316 308.785 32.8212 308.171 33.3614 308.257L33.3993 308.265L39.2595 309.546L36.3301 306.698C35.9374 306.316 36.1919 305.657 36.7262 305.626L36.7658 305.625H41.3908L38.3908 303.375C37.9511 303.045 38.1225 302.357 38.65 302.261L38.6913 302.255L42.7985 301.762L39.4971 300.189C38.9994 299.952 39.0337 299.242 39.5331 299.045L39.5757 299.03L43.782 297.687L40.036 296.206C39.4662 295.981 39.5312 295.165 40.1093 295.02L40.1514 295.011L43.7293 294.345L40.9799 292.931C40.4894 292.679 40.5459 291.969 41.052 291.788L41.0941 291.774L44.4018 290.829L41.0681 289.718C40.7538 289.613 40.5781 289.283 40.6611 288.967L40.6728 288.928Z" fill="black"/>
<path d="M69.0886 289.617C70.2371 287.749 72.8211 288.199 73.9696 288.657L73.6826 289.752C73.2041 289.844 71.9886 290.027 71.5291 290.577C70.9549 291.262 71.3856 292.634 70.9549 292.909C70.5241 293.182 69.3756 292.909 68.8014 292.909C68.2271 292.909 67.6529 291.947 69.0886 289.617Z" fill="black"/>
<path fill-rule="evenodd" clip-rule="evenodd" d="M71.844 288.899C71.9125 288.861 71.9991 288.894 72.0236 288.969C72.0523 289.056 72.0748 289.154 72.0822 289.233C72.0968 289.39 72.0589 289.511 71.9045 289.511C71.8285 289.511 71.7223 289.452 71.6037 289.359L71.5734 289.335L70.9191 289.7L70.9211 289.705C70.9763 289.9 71.0491 290.093 71.1008 290.162L71.1135 290.177C71.2166 290.28 71.1608 290.38 71.0441 290.479C70.9803 290.532 70.8848 290.594 70.7629 290.664C70.6789 290.712 70.5819 290.763 70.4807 290.815L70.3957 290.857V291.213L70.5686 291.282C70.6658 291.321 70.6726 291.452 70.5891 291.504L70.5686 291.515L70.3957 291.583V291.649C70.3954 291.761 70.2609 291.812 70.1848 291.739L70.1711 291.723L70.1408 291.684L69.9397 291.765C69.8828 291.787 69.8187 291.765 69.7873 291.715L69.7775 291.694C69.7549 291.637 69.7771 291.573 69.8273 291.542L69.8469 291.532L69.9856 291.477L69.7932 291.221C69.7307 291.137 69.7913 291.03 69.8801 291.021H69.3908C69.277 291.021 69.226 290.884 69.301 290.809L69.3176 290.794L70.1975 290.164C70.2742 290.109 70.379 290.156 70.3938 290.244L70.3957 290.266V290.577L70.4631 290.543C70.4945 290.527 70.5255 290.51 70.5549 290.494L70.6389 290.446L70.7268 290.395C70.7806 290.362 70.8257 290.332 70.8596 290.306L70.883 290.286L70.8732 290.271C70.7966 290.145 70.7239 289.94 70.6672 289.727L70.6555 289.683L70.217 289.99C70.1667 290.025 70.099 290.018 70.0568 289.977L70.0422 289.96C70.007 289.91 70.0142 289.842 70.0559 289.8L70.0734 289.785L71.3303 288.905C71.3802 288.871 71.4486 288.877 71.4914 288.92C71.5208 288.95 71.5527 288.981 71.5852 289.011L71.6066 289.031L71.844 288.899ZM70.0695 291.01L70.0188 291.021H69.9006L69.9191 291.024L69.9397 291.029L70.1457 291.112V290.976L70.0695 291.01ZM69.7805 290.771H69.9924L70.0666 290.737L70.1457 290.7V290.509L69.7805 290.771Z" fill="#EACE56" fill-opacity="0.78"/>
<path d="M119.972 323.45C120.278 322.695 120.225 321.063 118.34 320.308C116.454 319.553 94.2057 323.45 94.2057 323.45C88.4782 322.983 73.0952 315.475 67.4317 318.925C65.64 320.015 66.2472 323.473 66.9087 326.708C67.967 327.785 78.674 328.73 82.1457 327.92C82.1457 326.033 82.416 324.82 82.416 324.82C82.416 324.82 84.519 326.178 86.7892 326.708C91.4197 327.785 92.4332 328.98 106.775 328.98C118.278 327.903 119.106 325.588 119.972 323.45Z" fill="#383129"/>
<path d="M108.109 326.641C107.608 326.685 107.105 326.71 106.602 326.716L106.599 326.466C107.095 326.46 107.592 326.436 108.087 326.392L108.109 326.641ZM105.109 326.458L105.106 326.708C104.602 326.701 104.101 326.69 103.604 326.675L103.612 326.425C104.107 326.44 104.607 326.451 105.109 326.458ZM102.114 326.367L102.103 326.616C101.598 326.592 101.098 326.565 100.603 326.532L100.619 326.283C101.113 326.315 101.611 326.343 102.114 326.367ZM111.09 326.146C110.602 326.265 110.108 326.367 109.611 326.449L109.57 326.202C110.061 326.121 110.548 326.021 111.03 325.904L111.09 326.146ZM99.126 326.172L99.1055 326.421C98.6008 326.379 98.1019 326.332 97.6094 326.281L97.6348 326.032C98.1256 326.083 98.623 326.13 99.126 326.172ZM94.6611 325.664C95.1478 325.735 95.6428 325.802 96.1455 325.864L96.1152 326.112C95.6107 326.05 95.1134 325.983 94.625 325.912L94.6611 325.664ZM113.967 325.226C113.505 325.411 113.03 325.582 112.547 325.737L112.471 325.499C112.948 325.346 113.417 325.177 113.873 324.994L113.967 325.226ZM91.7109 325.165C92.1902 325.258 92.6814 325.348 93.1836 325.433L93.1416 325.679C92.6374 325.594 92.1443 325.504 91.6631 325.41L91.7109 325.165ZM88.791 324.508C89.2569 324.628 89.7421 324.746 90.2451 324.858L90.1904 325.103C89.6848 324.989 89.197 324.871 88.7285 324.75L88.791 324.508ZM116.673 323.893C116.257 324.142 115.812 324.383 115.345 324.612L115.234 324.389C115.695 324.162 116.134 323.924 116.544 323.679L116.673 323.893ZM86.1895 323.769L87.3477 324.107L87.2773 324.347C87.1788 324.318 87.0809 324.289 86.9834 324.261L85.8379 323.926L85.9082 323.686C86.0014 323.713 86.0952 323.741 86.1895 323.769ZM84.4697 323.261L84.3984 323.5L82.9609 323.069L83.0332 322.83L84.4697 323.261ZM119.06 322.022C118.794 322.336 118.408 322.689 117.93 323.051L117.779 322.851C118.244 322.499 118.617 322.159 118.869 321.861L119.06 322.022ZM78.5645 322.879C78.0542 322.897 77.5504 322.909 77.0615 322.914L77.0596 322.664C77.5463 322.659 78.0475 322.646 78.5557 322.629L78.5645 322.879ZM74.0703 322.593C74.5267 322.625 75.0261 322.646 75.5625 322.657L75.5566 322.907C75.0165 322.896 74.5133 322.874 74.0527 322.842L74.0703 322.593ZM81.5654 322.711C81.218 322.739 80.8299 322.766 80.4209 322.791L80.0654 322.812L80.0518 322.562C80.41 322.542 80.757 322.52 81.0801 322.497L81.5449 322.462L81.5654 322.711ZM71.1172 322.165C71.4661 322.234 71.8565 322.303 72.3105 322.378L72.5908 322.424L72.5508 322.671C72.1165 322.601 71.7376 322.536 71.3975 322.473L71.0693 322.41L71.1172 322.165ZM68.3174 321.25C68.6863 321.474 69.1209 321.657 69.6699 321.82L69.5986 322.06C69.0303 321.89 68.5762 321.699 68.1875 321.464L68.3174 321.25Z" fill="#67513B"/>
<path d="M86.5413 288.128C85.3148 288.128 78.1543 291.888 74.4466 288.963C74.0418 288.646 73.2173 288.906 73.2166 289.421C73.2101 294.423 73.1363 303.131 72.3866 306.583C71.5931 310.238 70.9231 309.716 70.1293 313.108C69.5798 315.458 67.8003 320.941 70.1293 320.941H80.7521C83.2653 320.941 86.6598 323.861 95.0291 324.681C108.922 326.041 112.317 324.178 115.091 323.298C121.402 321.296 118.199 316.716 115.091 315.253C110.537 313.108 104.01 311.498 100.691 309.723C98.1056 308.341 97.2178 307.911 95.8906 306.453C93.7018 304.053 91.7788 291.428 91.4828 288.138C91.4626 287.911 91.1423 287.793 90.9478 287.913C89.6533 288.713 87.7571 288.128 86.5413 288.128Z" fill="#2D2B30"/>
<path d="M113.226 318.645C113.689 318.505 114.177 318.767 114.317 319.229C114.457 319.692 114.196 320.18 113.733 320.32L113.351 320.434C111.731 320.913 110.557 321.177 109.059 321.338C106.864 321.574 104.544 321.466 101.993 320.932C101.52 320.833 101.217 320.369 101.316 319.896C101.415 319.423 101.878 319.12 102.351 319.219C104.721 319.715 106.857 319.815 108.872 319.598C110.354 319.438 111.498 319.168 113.226 318.645Z" fill="#59555F"/>
<path d="M97.3503 314.399C94.8888 312.137 85.9118 307.082 86.5403 288.127C85.4735 288.127 82.895 289.509 78.9983 289.762C74.9057 289.637 74.9733 289.269 73.8895 288.657C73.8602 288.639 73.8263 288.614 73.7985 288.594C72.0988 287.449 72.8632 305.727 71.6432 308.967C70.6588 311.582 68.8125 315.504 68.8125 320.279C69.674 321.789 78.1665 321.034 80.874 321.034C82.1407 314.274 92.071 319.427 94.2078 318.799C96.0835 318.247 97.3503 317.164 97.3503 314.399Z" fill="#1D1D20"/>
<path d="M94.3348 306.256C91.5193 304.044 90.438 293.284 90.3125 288.129C90.8152 288.004 90.941 287.654 91.318 287.779C91.695 287.904 91.695 289.411 91.8207 290.669C91.9583 292.046 92.952 296.326 93.455 299.216C93.9577 302.109 94.4605 303.869 96.346 306.256C97.8542 308.166 103.762 310.126 105.648 311.761C105.438 311.719 104.894 311.434 104.391 311.536C103.762 311.661 103.888 311.786 103.134 311.786C102.38 311.786 97.8542 309.021 94.3348 306.256Z" fill="#1D1D20"/>
<path d="M90.7381 288.542C91.0656 288.433 91.4195 288.61 91.5287 288.937C91.6335 289.252 91.4746 289.59 91.172 289.714L91.1334 289.728L87.7705 290.849L91.1074 291.801C91.6378 291.953 91.7213 292.66 91.2602 292.937L91.2216 292.958L88.4478 294.385L92.0555 295.055C92.6579 295.167 92.7504 295.981 92.2107 296.234L92.1711 296.251L88.3948 297.744L92.634 299.097C93.1591 299.265 93.2211 299.973 92.753 300.236L92.7128 300.257L89.3818 301.843L93.5241 302.339C94.0697 302.405 94.2659 303.086 93.8574 303.434L93.8248 303.46L90.7988 305.73H95.4608C96.0084 305.73 96.2854 306.38 95.924 306.775L95.8965 306.803L92.9415 309.676L98.8469 308.384C99.3938 308.265 99.8033 308.866 99.5098 309.327L99.4882 309.359L97.419 312.241L101.596 310.194C101.893 310.048 102.25 310.16 102.413 310.442L102.433 310.48C102.578 310.777 102.467 311.133 102.184 311.296L102.147 311.316L95.7359 314.459C95.164 314.739 94.5972 314.088 94.9315 313.565L94.9531 313.533L97.5225 309.954L91.0693 311.365C90.4679 311.497 90.0663 310.776 90.473 310.335L90.5 310.307L93.9213 306.98H88.9245C88.3376 306.98 88.0808 306.25 88.5178 305.88L88.5494 305.855L91.828 303.395L87.0905 302.828C86.4828 302.755 86.3371 301.95 86.8585 301.662L86.896 301.643L90.749 299.807L86.3463 298.403C85.801 298.229 85.7618 297.482 86.2655 297.244L86.3064 297.226L89.692 295.887L86.422 295.279C85.8502 295.173 85.7264 294.419 86.2137 294.129L86.2504 294.109L89.2443 292.569L85.4847 291.496C84.9081 291.331 84.8768 290.536 85.417 290.317L85.4586 290.302L90.7381 288.542Z" fill="black"/>
<path d="M27.875 282L30.875 193.125L50.331 190.481L50.5 186H59.9965L59.875 183.75L84.5 189.625L84.5288 191.117L91.25 193.125L107.125 282L86.3343 285L86.375 287.125L69.4035 285.812L69.625 288.75H46.625L46.7693 284.923L27.875 282Z" fill="black"/>
<path d="M106.623 82.125C106.623 79.748 106.873 69.6667 106.623 65.25L100.748 66L86.3725 78.125C83.706 84.2917 71.323 106.35 72.123 109.75C73.123 114 89.2623 117.435 94.498 121.125C115.248 135.75 111.123 109.25 110.248 104C109.373 98.75 106.623 89.125 106.623 82.125Z" fill="#17100F"/>
<path fill-rule="evenodd" clip-rule="evenodd" d="M20.2505 57.2598C20.2505 57.2598 16.6556 97.8133 13.7508 106.782C10.846 115.751 4.17364 134.429 5.57343 145.824C6.97321 157.219 7.25109 158.374 13.7508 154.75C20.2505 151.126 96.4995 98.3492 96.4995 98.3492L20.2505 57.2598Z" fill="#17100F"/>
<rect x="52.75" y="87.75" width="20.25" height="29" rx="10.125" fill="#C99584"/>
<path d="M46.5 196.5V181.75H80.5V196.5H46.5Z" fill="#E5CECB"/>
<path d="M46.5 184.458V115.75H80.5V184.458C80.5 184.458 68.5812 186.5 63.5 186.5C58.4187 186.5 46.5 184.458 46.5 184.458Z" fill="#E7D6D3"/>
<path d="M62.25 111.25C54.95 111.25 50.375 107.75 49 106L45 114.375C47.625 117.208 54.75 122.875 62.25 122.875C69.75 122.875 77.0417 119.125 79.75 117.25L77 106C75.125 107.75 69.55 111.25 62.25 111.25Z" fill="#E6CECB"/>
<rect x="16.3594" y="105.709" width="43.244" height="89.4248" rx="21.622" transform="rotate(8.5 16.3594 105.709)" fill="#67513B"/>
<rect y="178.625" width="26.5347" height="52.0257" rx="13.2674" transform="rotate(-45 0 178.625)" fill="#67513B"/>
<path d="M18.7188 239.786L29.4558 106.432L52.6231 104.75L60.7481 152.125C58.6006 180.471 55.654 244.296 55.654 247.732C55.654 251.168 29.4558 243.365 18.7188 239.786Z" fill="#67513B"/>
<path d="M60.875 151.876L52.5 104.126C46.5 103.251 38.875 103.585 35.25 104.126L56.625 151.126L59.375 171.876L60.875 151.876Z" fill="#82684B"/>
<path d="M108.053 238.283L97.375 106.375L73 105.375L66.125 152.75C68.2725 181.096 71.1172 242.792 71.1172 246.229C71.1172 249.664 97.3158 241.862 108.053 238.283Z" fill="#67513B"/>
<path d="M66.125 153L73 105C78.875 103.75 86.4583 103.75 89.375 103.75L72 155.125L68.5 193.5L66.125 153Z" fill="#82684B"/>
<rect x="74.1562" y="174.539" width="56.6915" height="39.727" rx="5" transform="rotate(-4.5 74.1562 174.539)" fill="#363030"/>
<rect width="22.6357" height="63.002" rx="11.3179" transform="matrix(-0.981627 0.190809 0.190809 0.981627 110.516 105)" fill="#67513B"/>
<path fill-rule="evenodd" clip-rule="evenodd" d="M96.5806 193.008L101.331 157.008L119.672 159.428L114.922 195.428H114.922C114.253 200.493 109.606 204.057 104.541 203.388C99.4763 202.72 95.9123 198.073 96.5805 193.008H96.5806Z" fill="#C99584"/>
<rect width="22.6357" height="44.5975" rx="11.3179" transform="matrix(-0.998135 -0.0610485 -0.0610485 0.998135 121.742 149.883)" fill="#67513B"/>
<path d="M53.1883 159.689C54.5521 159.689 55.6578 158.583 55.6578 157.22C55.6578 155.856 54.5521 154.75 53.1883 154.75C51.8244 154.75 50.7188 155.856 50.7188 157.22C50.7188 158.583 51.8244 159.689 53.1883 159.689Z" fill="#C3996F"/>
<path d="M51.6805 193.189C53.0443 193.189 54.15 192.083 54.15 190.72C54.15 189.356 53.0443 188.25 51.6805 188.25C50.3166 188.25 49.2109 189.356 49.2109 190.72C49.2109 192.083 50.3166 193.189 51.6805 193.189Z" fill="#C3996F"/>
<path d="M52.7586 176.439C54.1225 176.439 55.2281 175.333 55.2281 173.97C55.2281 172.606 54.1225 171.5 52.7586 171.5C51.3947 171.5 50.2891 172.606 50.2891 173.97C50.2891 175.333 51.3947 176.439 52.7586 176.439Z" fill="#C3996F"/>
<path d="M49.7508 209.295C51.1146 209.295 52.2203 208.189 52.2203 206.825C52.2203 205.461 51.1146 204.355 49.7508 204.355C48.3869 204.355 47.2812 205.461 47.2812 206.825C47.2812 208.189 48.3869 209.295 49.7508 209.295Z" fill="#C3996F"/>
<path d="M48.2508 223.252C49.6146 223.252 50.7203 222.146 50.7203 220.782C50.7203 219.418 49.6146 218.312 48.2508 218.312C46.8869 218.312 45.7812 219.418 45.7812 220.782C45.7812 222.146 46.8869 223.252 48.2508 223.252Z" fill="#C3996F"/>
<path d="M95.75 73.5C101.273 73.5 105.75 68.5192 105.75 62.375C105.75 56.2308 101.273 51.25 95.75 51.25C90.2273 51.25 85.75 56.2308 85.75 62.375C85.75 68.5192 90.2273 73.5 95.75 73.5Z" fill="#C99584"/>
<path d="M30.25 73.5C24.7271 73.5 20.25 68.5192 20.25 62.375C20.25 56.2308 24.7271 51.25 30.25 51.25C35.7727 51.25 40.25 56.2308 40.25 62.375C40.25 68.5192 35.7727 73.5 30.25 73.5Z" fill="#C99584"/>
<path d="M28.7049 37.466C27.9681 17.9948 43.5036 1.75 62.9888 1.75C82.6708 1.75 98.2126 18.3069 97.4684 37.975C97.2346 44.1522 97.1071 49.337 97.2113 51.6893C97.3953 55.8382 95.3836 68.0807 93.3731 79.0563C91.1616 91.1298 81.7839 100.546 69.7831 103.123C65.5551 104.031 61.1786 104.042 56.9459 103.157C44.5869 100.574 34.9801 90.7675 32.8896 78.3158C31.0704 67.4788 29.2316 55.6318 29.1714 51.6893C29.1354 49.3335 28.9489 43.9095 28.7049 37.466Z" fill="#C99584"/>
<path fill-rule="evenodd" clip-rule="evenodd" d="M49.5859 72.0059V76.9559C49.5859 84.5759 55.7432 90.7509 63.3357 90.7509C70.9304 90.7509 77.0852 84.5759 77.0852 76.9559V72.0059H49.5859Z" fill="#393939"/>
<mask id="mask0_1801_5200" style="mask-type:luminance" maskUnits="userSpaceOnUse" x="49" y="72" width="29" height="19">
<path fill-rule="evenodd" clip-rule="evenodd" d="M49.6084 72C49.5934 72.2553 49.5859 72.5128 49.5859 72.7703V77.5918C49.5859 84.86 55.7432 90.75 63.3357 90.75C70.9304 90.75 77.0852 84.86 77.0852 77.5918V72.7703C77.0852 72.5128 77.0777 72.2553 77.0627 72H49.6084Z" fill="white"/>
</mask>
<g mask="url(#mask0_1801_5200)">
<path d="M63.3389 95.1737C67.9186 95.1737 71.6309 93.1462 71.6309 90.6454C71.6309 88.1444 67.9186 86.1172 63.3389 86.1172C58.7594 86.1172 55.0469 88.1444 55.0469 90.6454C55.0469 93.1462 58.7594 95.1737 63.3389 95.1737Z" fill="#FF6C6C"/>
</g>
<rect x="49.5859" y="72.0059" width="27.5" height="5.68665" fill="white"/>
<path d="M42.6314 36.2712C46.463 35.6325 50.6953 35.985 54.8772 37.461C55.6584 37.7367 56.0682 38.5935 55.7925 39.3747C55.5168 40.1559 54.66 40.5657 53.8788 40.29C50.179 38.9842 46.4599 38.6744 43.1245 39.2303C42.1394 39.3945 41.3264 39.659 40.6674 39.9908C40.2939 40.1788 40.0007 40.3728 39.7798 40.5575C39.7259 40.6026 39.682 40.6425 39.6476 40.6762L39.6177 40.706C39.6179 40.7054 39.6228 40.6994 39.6321 40.6877C39.1145 41.3345 38.1706 41.4393 37.5238 40.9216C36.8769 40.404 36.7722 39.4601 37.2898 38.8133C37.4058 38.6684 37.5919 38.4765 37.8551 38.2563C38.2505 37.9256 38.7364 37.6042 39.3184 37.3112C40.2481 36.8431 41.3497 36.4847 42.6314 36.2712Z" fill="#311E1C"/>
<path d="M70.1483 37.3407C73.6384 35.8111 78.8483 35.425 82.5667 36.0663C83.7677 36.2733 84.8651 36.6663 85.851 37.1915C86.3818 37.4743 86.8491 37.7789 87.2515 38.0871L87.3727 38.1815C87.5649 38.3339 87.7085 38.4613 87.8025 38.5535C88.3941 39.1334 88.4034 40.0831 87.8234 40.6747C87.2583 41.251 86.3422 41.2747 85.7484 40.739L85.6884 40.6832L85.6597 40.6579C85.5973 40.6032 85.5197 40.5395 85.4274 40.4688C85.1509 40.2571 84.8206 40.0418 84.4405 39.8393C83.7254 39.4583 82.9284 39.1729 82.0569 39.0227C78.8784 38.4745 74.2528 38.8173 71.3525 40.0884C70.5937 40.4209 69.709 40.0754 69.3765 39.3166C69.044 38.5578 69.3895 37.6732 70.1483 37.3407Z" fill="#311E1C"/>
<path d="M61.4819 54.5723L65.0181 56.9297C63.8163 58.7325 62.875 61.4386 62.875 63.4073C62.875 65.3055 63.5605 66.1034 65.6592 66.1255L65.75 66.126V70.376C61.1142 70.376 58.625 67.5756 58.625 63.4073C58.625 60.5835 59.7997 57.1557 61.3945 54.705L61.4819 54.5723Z" fill="#311E1C"/>
<path d="M72.7566 49.1651C76.1003 47.5949 80.8771 47.6466 85.0716 49.0949C85.9852 49.4104 86.47 50.4067 86.1546 51.3203C85.8391 52.2338 84.8428 52.7187 83.9292 52.4033C80.5344 51.2311 76.68 51.1893 74.2443 52.3331C73.3694 52.744 72.3272 52.3678 71.9164 51.493C71.5056 50.6181 71.8817 49.5759 72.7566 49.1651Z" fill="black"/>
<path d="M39.5066 49.1651C42.8503 47.5949 47.6271 47.6466 51.8216 49.0949C52.7352 49.4104 53.22 50.4067 52.9046 51.3203C52.5891 52.2338 51.5928 52.7187 50.6792 52.4033C47.2844 51.2311 43.43 51.1893 40.9943 52.3331C40.1194 52.744 39.0772 52.3678 38.6664 51.493C38.2556 50.6181 38.6317 49.5759 39.5066 49.1651Z" fill="black"/>
<path d="M57.8125 48.8757C61.1402 47.2912 64.3473 47.1362 67.4694 48.8351L67.5909 48.9023L66.7359 50.4291C64.1581 48.9856 61.5382 49.0742 58.6924 50.3957L58.5648 50.4557L57.8125 48.8757Z" fill="black"/>
<path d="M67.6304 55.1914L67.2109 49.8037C67.2109 49.8037 69.8239 43.9322 80.3247 42.6932C90.8257 41.4539 95.4682 47.9112 95.4682 47.9112L94.6312 55.6879C94.1017 60.6107 89.8797 64.3012 84.9304 64.1679L76.8462 63.9504C71.9854 63.8197 68.0079 60.0394 67.6304 55.1914Z" fill="white" fill-opacity="0.4"/>
<path d="M79.9716 41.4647C83.3343 41.0298 86.492 41.2715 89.4095 42.0461C91.5772 42.6217 93.4432 43.442 94.9797 44.3646C95.996 44.9748 96.5384 46.1105 96.4594 47.3085L96.4529 47.3922L96.1947 50.2677L94.2027 50.0888L94.4609 47.2132C94.5052 46.7215 94.307 46.2936 93.9501 46.0793C92.5674 45.249 90.8725 44.5039 88.8962 43.9791C86.2229 43.2693 83.3256 43.0476 80.2282 43.4482C74.7067 44.1623 70.8732 45.879 68.4644 47.9052C68.2318 48.1009 68.1161 48.4275 68.1561 48.8106L68.1642 48.875L68.623 51.984L66.6444 52.2759L66.1856 49.167C66.0284 48.1015 66.3717 47.0521 67.1769 46.3747C69.8752 44.1049 74.0653 42.2286 79.9716 41.4647Z" fill="black"/>
<path d="M58.451 54.9927L58.8092 49.8602C58.8092 49.8602 56.1987 44.1184 45.8835 42.9847C35.568 41.8512 31.0625 48.2247 31.0625 48.2247L31.9262 55.6887C32.4952 60.6069 36.7465 64.2637 41.6947 64.0909L49.3055 63.8252C54.1652 63.6554 58.1122 59.8434 58.451 54.9927Z" fill="white" fill-opacity="0.4"/>
<path d="M36.9772 42.3955C39.831 41.6162 42.9234 41.3564 46.2209 41.7561C51.9619 42.4518 56.0712 44.2323 58.7545 46.4201C59.589 47.1004 59.9447 48.1738 59.7763 49.2563L59.7619 49.3417L59.2534 52.1505L57.2854 51.7942L57.7939 48.9854C57.8713 48.558 57.7528 48.1838 57.4907 47.9701C55.097 46.0185 51.3413 44.3913 45.9803 43.7416C42.9475 43.3739 40.1147 43.612 37.504 44.3248C35.5714 44.8526 33.9145 45.5945 32.5625 46.4188C32.2236 46.6254 32.031 47.0262 32.0569 47.4909L32.0616 47.5519L32.3411 50.4666L30.3502 50.6575L30.0707 47.7427C29.9532 46.5165 30.4878 45.3411 31.5216 44.711C33.0264 43.7935 34.8537 42.9753 36.9772 42.3955Z" fill="black"/>
<path d="M78.7131 14.878C66.8131 8.27802 61.7131 7.75292 47.7131 17.878C33.5881 14.2531 46.2131 5.00295 51.7131 2.25295C57.2131 -0.497053 69.5881 -1.49705 79.9631 3.75295C90.3381 9.00295 93.5881 23.128 78.7131 14.878Z" fill="#311E1C"/>
<path d="M40.889 27.0178C47.6232 19.1281 60.3732 16.0031 63.6232 13.7531C64.8735 13.1477 64.8732 3.99173 61.8732 1.62809C57.7482 -1.62191 43.1232 4.75315 36.6232 10.8782C30.1232 17.0032 23.6782 29.75 20.7483 48.1283C19.3733 56.7533 18.3734 84.1283 18.3734 93.8783C18.3734 103.628 19.4984 116.253 18.3734 127.378C17.6058 134.969 16.4998 148.75 16.5 167.375C16.5 171.628 28.4405 172.915 29.1233 169.5C30.1233 164.5 29.2498 136.253 30.25 127.378C31.3525 117.597 33.1232 110.753 31.7483 101.628C30.3735 92.5033 26.2483 83.3783 27.8733 78.0033C29.4983 72.6283 28.8733 59.5033 29.1233 51.3783C29.3733 43.2533 34.0602 35.0182 40.889 27.0178Z" fill="#311E1C"/>
<path d="M31.625 131.375C30.025 123.775 26.9168 89 26.375 72.75C26.625 72.8333 28.9 73.4 29.5 73.5C30.1 73.6 30.5833 73.5418 30.75 73.5C31.4583 76.625 31.7685 81.287 34.125 86C36 89.75 39.375 93.4583 41 95.125C42.4167 100.667 45.45 113.65 46.25 121.25C47.25 130.75 46.25 160.5 44 160.5C38.7768 160.5 35.1015 161.25 34.125 158.125C32.25 152.125 33.625 140.875 31.625 131.375Z" fill="#311E1C"/>
<path d="M84.8787 24.0011C77.4915 16.9094 65.6282 15.3761 64.5032 13.6261C63.3365 9.6261 63.1067 2.904 68.2535 1.12614C75.1287 -1.24877 93.2535 8.37598 99.2535 24.0011C103.726 35.6482 106.753 63.001 106.628 65.501C106.503 68.001 102.253 108.251 101.628 114.501C101.003 120.751 101.253 125.376 101.628 138.501C102.003 151.626 102.003 162.745 99.2535 163.501C94.2535 164.876 78.6285 162.876 76.5035 162.501C74.3785 162.126 75.7535 153.451 75.7535 148.626C75.7535 142.001 80.2535 119.626 82.6285 111.001C84.4537 104.373 93.5035 83.251 94.1285 81.501C94.6285 80.101 95.3787 75.4177 95.6287 73.376L95.635 73.378C95.9245 73.4607 96.2202 73.5452 98.5037 72.751C101.379 71.751 104.504 68.376 105.254 65.126C106.004 61.876 105.379 58.626 103.629 55.626C102.229 53.226 98.2535 51.6677 97.1285 51.376C97.1285 48.626 97.0032 45.251 96.6285 43.376C95.6825 38.6445 91.1287 30.001 84.8787 24.0011Z" fill="#311E1C"/>
</svg>
