<svg width="110" height="330" viewBox="0 0 110 330" fill="none" xmlns="http://www.w3.org/2000/svg">
<path d="M54.3902 207.236H23.0469L24.3006 291.852L26.9874 304.998H44.0382L45.6141 294.242L54.3902 207.236Z" fill="black"/>
<path d="M53.8906 207.236H85.234L83.9803 291.852L81.2935 304.998H64.2427L62.6668 294.242L53.8906 207.236Z" fill="black"/>
<path fill-rule="evenodd" clip-rule="evenodd" d="M95.1352 280.561L88.7422 213.918V280.561H95.1352Z" fill="#BB462F"/>
<mask id="mask0_1801_5317" style="mask-type:luminance" maskUnits="userSpaceOnUse" x="88" y="213" width="8" height="68">
<path fill-rule="evenodd" clip-rule="evenodd" d="M95.1352 280.561L88.7422 213.918V280.561H95.1352Z" fill="white"/>
</mask>
<g mask="url(#mask0_1801_5317)">
</g>
<path fill-rule="evenodd" clip-rule="evenodd" d="M92.5549 286.355L89.8346 216.01H81.9453L87.7942 291.989L92.5549 286.355Z" fill="#BB462F"/>
<mask id="mask1_1801_5317" style="mask-type:luminance" maskUnits="userSpaceOnUse" x="81" y="216" width="12" height="76">
<path fill-rule="evenodd" clip-rule="evenodd" d="M92.5549 286.355L89.8346 216.01H81.9453L87.7942 291.989L92.5549 286.355Z" fill="white"/>
</mask>
<g mask="url(#mask1_1801_5317)">
</g>
<path fill-rule="evenodd" clip-rule="evenodd" d="M10.2656 254.482L18.427 211.18L27.5403 212.95L19.6512 274.603L10.2656 254.482Z" fill="#BB462F"/>
<mask id="mask2_1801_5317" style="mask-type:luminance" maskUnits="userSpaceOnUse" x="10" y="211" width="18" height="64">
<path fill-rule="evenodd" clip-rule="evenodd" d="M10.2656 254.482L18.427 211.18L27.5403 212.95L19.6512 274.603L10.2656 254.482Z" fill="white"/>
</mask>
<g mask="url(#mask2_1801_5317)">
</g>
<mask id="mask3_1801_5317" style="mask-type:luminance" maskUnits="userSpaceOnUse" x="14" y="212" width="37" height="99">
<path fill-rule="evenodd" clip-rule="evenodd" d="M14.2109 255.288L18.0196 212.951H47.5364C47.6271 221.805 47.754 240.026 47.5364 242.087C47.3187 244.147 49.6221 257.862 50.8008 264.462H45.496L30.5337 285.711L33.1179 289.251L18.0196 310.018L14.2109 255.288Z" fill="white"/>
</mask>
<g mask="url(#mask3_1801_5317)">
<rect x="-73.1172" y="199.43" width="157.786" height="140.047" fill="#EA5E42"/>
</g>
<mask id="mask4_1801_5317" style="mask-type:luminance" maskUnits="userSpaceOnUse" x="52" y="212" width="39" height="96">
<path fill-rule="evenodd" clip-rule="evenodd" d="M52.8359 252.068L58.9569 212.951L85.3453 218.424L90.6501 291.668L85.3453 307.604L80.5844 275.247L66.8462 264.302L65.2141 256.254L52.8359 252.068Z" fill="white"/>
</mask>
<g mask="url(#mask4_1801_5317)">
<rect x="39.5938" y="211.301" width="136.294" height="121.052" fill="#EA5E42"/>
</g>
<path d="M30.1494 304.795C29.2309 303.445 27.8676 303.378 26.7633 302.604C26.2214 303.34 26.262 304.418 25.7716 305.859L22.5833 309.612L17.0406 315.272L11.7578 318.002L14.944 321.506C17.0779 319.919 29.188 307.628 30.1494 304.795Z" fill="#010101"/>
<path d="M48.8638 323.343C48.8638 323.343 48.9831 317.205 47.5822 313.818C46.1815 310.431 44.6901 301.678 44.6901 301.678C44.6901 301.678 42.2829 304.18 37.7577 304.219L29.23 304.29C29.23 304.29 21.8054 314.169 19.6233 315.496C17.4412 316.82 5.08116 319.392 5.08116 319.392C2.73349 319.414 0.846867 321.242 0.867353 323.482L0.886234 325.542L26.6659 325.327L48.8638 323.343Z" fill="black"/>
<path d="M22.8225 318.648C21.7816 316.664 21.1825 314.742 21.3984 313.836L16.4792 316.181L5.73461 319.513C5.73461 319.264 4.4142 319.439 2.75719 320.13C1.1002 320.82 0.85851 322.639 0.944817 323.462L24.8936 324.324L27.7416 324.203C26.3176 323.583 24.2465 321.363 22.8225 318.648Z" fill="#1C1622"/>
<path d="M38.2183 314.082C35.2151 314.773 28.9412 311.656 26.1797 310.011L29.1904 304.282C32.0815 304.282 38.2338 304.219 40.0979 303.923C41.962 303.627 44.003 302.269 44.7365 301.652L45.4676 305.568L46.5032 310.379C44.993 311.326 41.2217 313.391 38.2183 314.082Z" fill="black"/>
<path d="M26.4375 309.64C27.0759 308.689 28.3778 306.636 28.4758 306.043C34.4393 306.982 42.464 306.791 45.4301 305.531C46.227 307.747 46.6354 310.749 46.6354 310.749C46.1267 311.741 40.4184 313.694 38.2211 314.081C37.0481 313.228 36.1775 313.013 35.2668 312.528C33.838 311.765 29.0708 309.781 26.4375 309.64Z" fill="#2C407F"/>
<path d="M39.2817 318.401C40.21 317.894 45.4697 315.688 47.9007 314.734C49.0752 315.535 48.9275 320.359 48.9528 323.139L37.2891 323.741C37.933 321.63 38.9726 318.695 39.2817 318.401Z" fill="#192D6A"/>
<path d="M33.6356 318.013C32.4194 318.326 31.442 318.275 30.8921 317.864C29.4757 316.789 30.4052 315.173 30.7989 314.537C30.0938 315.312 29.3929 316.088 28.8435 316.937C27.9775 318.264 27.6011 319.722 28.1675 320.661C29.1825 322.358 31.6702 321.596 33.2574 320.926L47.9868 314.719L33.6356 318.013Z" fill="#2C407F"/>
<path d="M11.6442 320.129C8.4113 320.525 4.27009 320.683 3.48438 319.703L8.77817 318.178L15.7446 315.527L17.5648 316.378L17.3127 317.119C17.3127 317.119 19.4517 319.39 19.3223 320.375C19.1928 321.362 18.1023 321.857 16.8627 321.486C15.623 321.116 14.931 319.725 11.6442 320.129Z" fill="#2C407F"/>
<path d="M27.9949 308.775C26.6487 310.553 23.0326 314.206 21.3928 315.81L20.875 314.082C21.9106 312.972 23.6324 310.663 25.0564 309.181C26.5461 307.633 28.038 305.897 29.1599 304.334H30.5839C30.3682 305.238 29.3412 306.999 27.9949 308.775Z" fill="#1C1622"/>
<path d="M27.2908 306.116L25.9147 305.605C25.5047 305.452 25.0427 305.646 24.8828 306.037C24.7229 306.427 24.9257 306.868 25.3357 307.02L26.7118 307.532C27.1218 307.684 27.5838 307.491 27.7437 307.1C27.9036 306.709 27.7008 306.269 27.2908 306.116Z" fill="#2B2A2A"/>
<path d="M25.2439 308.357L23.8678 307.845C23.4578 307.693 22.9958 307.886 22.8359 308.277C22.676 308.668 22.8788 309.108 23.2888 309.26L24.6649 309.772C25.0749 309.924 25.5369 309.731 25.6968 309.34C25.8567 308.949 25.6539 308.509 25.2439 308.357Z" fill="#2B2A2A"/>
<path d="M23.4549 310.591L22.0788 310.079C21.6687 309.927 21.2067 310.12 21.0468 310.511C20.887 310.902 21.0897 311.342 21.4998 311.495L22.8759 312.006C23.2859 312.159 23.7479 311.966 23.9078 311.575C24.0677 311.184 23.8649 310.743 23.4549 310.591Z" fill="#2B2A2A"/>
<path d="M21.4001 312.831L20.0241 312.32C19.6141 312.167 19.152 312.361 18.9922 312.751C18.8323 313.142 19.035 313.583 19.4451 313.735L20.8211 314.247C21.2312 314.399 21.6932 314.206 21.8531 313.815C22.0129 313.424 21.8102 312.984 21.4001 312.831Z" fill="#2B2A2A"/>
<path d="M18.3142 315.077L16.9381 314.566C16.5281 314.413 16.0661 314.607 15.9062 314.998C15.7463 315.388 15.9491 315.829 16.3591 315.981L17.7352 316.493C18.1452 316.645 18.6072 316.452 18.7671 316.061C18.927 315.67 18.7242 315.23 18.3142 315.077Z" fill="#2B2A2A"/>
<path d="M49.1811 323.086L24.9193 324.334L0.775634 323.49L0.416288 326.554C0.312529 327.439 1.026 328.22 1.95994 328.242L24.4567 328.782L36.9822 328.808L49.503 328.313L49.1811 323.086Z" fill="#E7E5DD"/>
<path d="M49.3867 328.083C45.53 328.239 35.8419 328.688 31.6173 328.724C28.586 328.75 2.79886 328.358 0.203125 327.639" stroke="#536E83" stroke-width="1.50448"/>
<path d="M40.0316 310.381C38.3747 310.281 37.5289 309.599 37.313 309.27C37.1405 310.132 37.4427 311.884 40.0316 311.985C42.6206 312.083 43.3543 310.216 43.3974 309.27C42.9659 309.681 41.6886 310.479 40.0316 310.381Z" fill="black"/>
<path d="M38.3484 309.146C38.2448 309.837 38.564 310.504 38.7368 310.75C40.2901 311.861 41.9732 310.75 41.9732 309.641C41.9732 308.529 41.1963 308.283 40.4195 308.283C39.643 308.283 38.4777 308.283 38.3484 309.146Z" fill="black"/>
<path d="M78.2578 304.943C79.1482 303.583 80.5053 303.492 81.591 302.701C82.1444 303.428 82.1236 304.501 82.6384 305.93L85.8833 309.614L91.5085 315.162L96.8211 317.796L93.7108 321.338C91.5559 319.792 79.2673 307.747 78.2578 304.943Z" fill="#010101"/>
<path d="M59.945 323.73C59.945 323.73 59.714 317.618 61.0478 314.219C62.3815 310.822 63.7077 302.076 63.7077 302.076C63.7077 302.076 66.1515 304.531 70.6604 304.493L79.1572 304.423C79.1572 304.423 86.7343 314.145 88.9323 315.428C91.1306 316.712 103.491 319.071 103.491 319.071C105.83 319.049 107.743 320.842 107.764 323.072L107.782 325.126L82.0957 325.341L59.945 323.73Z" fill="#010101"/>
<path d="M85.8152 318.622C86.8159 316.626 87.3776 314.699 87.1459 313.803L92.0896 316.057L102.854 319.198C102.85 318.951 104.169 319.102 105.832 319.764C107.496 320.424 107.769 322.231 107.698 323.053L83.8553 324.31L81.0156 324.234C82.4231 323.596 84.4461 321.349 85.8152 318.622Z" fill="#1C1622"/>
<path d="M70.384 314.327C73.3885 314.967 79.5819 311.757 82.303 310.072L79.2123 304.4C76.332 304.448 70.1674 304.424 68.3048 304.161C66.4423 303.896 64.408 302.612 63.666 302.01L63.0063 305.966L62.0625 310.777C63.5843 311.695 67.3793 313.689 70.384 314.327Z" fill="black"/>
<path d="M82.0474 309.706C81.394 308.769 80.0598 306.747 79.9512 306.157C74.0271 307.189 66.029 307.134 63.0514 305.93C62.2976 308.148 61.9453 311.148 61.9453 311.148C62.4704 312.128 68.1929 313.978 70.389 314.327C71.5419 313.457 72.4055 313.23 73.3039 312.73C74.7133 311.946 79.4264 309.893 82.0474 309.706Z" fill="#2C407F"/>
<path d="M69.405 318.648C68.471 318.158 63.1907 316.045 60.7515 315.139C59.5963 315.954 59.8312 320.756 59.8568 323.526L71.4877 323.935C70.8077 321.841 69.7184 318.934 69.405 318.648Z" fill="#192D6A"/>
<path d="M75.0213 318.167C76.2387 318.459 77.2114 318.394 77.7517 317.974C79.1434 316.881 78.1878 315.284 77.7841 314.658C78.5007 315.418 79.2131 316.181 79.7757 317.017C80.6629 318.322 81.0643 319.771 80.5172 320.715C79.5368 322.424 77.0449 321.705 75.4514 321.064L60.6641 315.124L75.0213 318.167Z" fill="#2C407F"/>
<path d="M96.9725 319.91C100.2 320.252 104.329 320.342 105.094 319.35L99.7921 317.919L92.8033 315.395L91.0055 316.272L91.2703 317.008C91.2703 317.008 89.1808 319.303 89.3277 320.285C89.4747 321.265 90.5702 321.738 91.7983 321.349C93.0265 320.961 93.6905 319.563 96.9725 319.91Z" fill="#2C407F"/>
<path d="M80.4729 308.873C81.8465 310.62 85.5157 314.2 87.1787 315.771L87.6628 314.04C86.611 312.95 85.197 310.871 83.7512 309.42C82.2389 307.902 80.3774 306.004 79.2312 304.465L77.8125 304.489C78.0439 305.387 79.0993 307.125 80.4729 308.873Z" fill="#1C1622"/>
<path d="M81.7248 307.615L83.0863 307.082C83.4934 306.922 83.6879 306.478 83.5207 306.09C83.3536 305.702 82.888 305.517 82.4809 305.676L81.1193 306.209C80.7122 306.369 80.5178 306.812 80.6849 307.201C80.8521 307.589 81.3177 307.774 81.7248 307.615Z" fill="#2B2A2A"/>
<path d="M83.8107 309.812L85.1723 309.279C85.5794 309.12 85.7739 308.676 85.6067 308.288C85.4395 307.9 84.9739 307.714 84.5668 307.874L83.2053 308.407C82.7982 308.566 82.6037 309.01 82.7709 309.398C82.9381 309.786 83.4036 309.971 83.8107 309.812Z" fill="#2B2A2A"/>
<path d="M85.6377 312.009L86.9992 311.479C87.4066 311.32 87.6018 310.876 87.4353 310.488C87.2687 310.1 86.8035 309.914 86.3961 310.072L85.0346 310.603C84.6272 310.762 84.432 311.205 84.5985 311.594C84.7651 311.982 85.2303 312.168 85.6377 312.009Z" fill="#2B2A2A"/>
<path d="M87.7248 314.204L89.0863 313.671C89.4934 313.512 89.6879 313.068 89.5207 312.68C89.3536 312.292 88.888 312.107 88.4809 312.266L87.1193 312.799C86.7122 312.959 86.5178 313.402 86.6849 313.79C86.8521 314.178 87.3177 314.364 87.7248 314.204Z" fill="#2B2A2A"/>
<path d="M90.8408 316.392L92.2024 315.861C92.6097 315.703 92.805 315.259 92.6384 314.871C92.4719 314.482 92.0066 314.296 91.5993 314.455L90.2377 314.986C89.8303 315.145 89.6351 315.588 89.8017 315.976C89.9682 316.365 90.4335 316.551 90.8408 316.392Z" fill="#2B2A2A"/>
<path d="M59.6319 323.48L83.8252 324.321L107.863 323.078L108.276 326.121C108.396 327.003 107.697 327.797 106.763 327.832L84.3674 328.745L71.8892 328.98L59.4062 328.693L59.6319 323.48Z" fill="#E7E5DD"/>
<path d="M59.5156 328.46C63.3608 328.551 73.0206 328.84 77.2301 328.805C80.2504 328.781 105.934 327.963 108.507 327.203" stroke="#536E83" stroke-width="1.50448"/>
<path d="M68.5064 310.67C70.1553 310.543 70.9855 309.85 71.1944 309.518C71.3822 310.376 71.1131 312.128 68.5354 312.269C65.958 312.41 65.1932 310.562 65.1328 309.618C65.5704 310.022 66.8572 310.796 68.5064 310.67Z" fill="black"/>
<path d="M70.1649 309.412C70.2807 310.098 69.9748 310.767 69.8073 311.016C68.28 312.149 66.5832 311.071 66.5629 309.964C66.5426 308.858 67.3119 308.599 68.0857 308.585C68.8595 308.573 70.0202 308.554 70.1649 309.412Z" fill="black"/>
<path d="M18.4082 72.5451C20.4142 70.3939 21.3754 63.6612 21.1664 58.084H90.2472C88.8681 62.0678 90.1971 70.7285 93.5069 74.9354C97.6443 80.194 103.161 81.9867 103.161 81.9867C103.161 81.9867 95.5129 93.2209 81.9726 91.4282C66.8443 91.1096 34.9074 90.6634 28.1873 91.4282C21.4673 92.1931 13.1843 84.4965 9.88281 80.5525C11.5127 80.2339 16.1154 75.004 18.4082 72.5451Z" fill="#A23A26"/>
<path d="M12.6669 118.657C18.7302 105.677 28.6398 106.656 32.8504 107.148L27.8224 169.948H1.99537C0.24012 158.236 2.82495 141.796 3.21792 140.309C4.54028 135.306 7.99277 128.664 12.6669 118.657Z" fill="#19171D"/>
<path d="M96.6446 119.312C90.5813 106.331 80.6717 107.31 76.4609 107.802L81.4889 170.602L107.93 165.764C111.315 155.844 106.486 142.45 106.093 140.963C104.771 135.96 101.319 129.318 96.6446 119.312Z" fill="#19171D"/>
<path d="M24.8508 115.106C25.8932 107.879 32.2526 102.578 39.9087 102.497L57.2052 102.314L73.142 103.915C80.4284 104.647 86.3403 110.042 87.2999 116.987C89.3909 132.123 92.637 158.597 92.637 177.106C92.637 204.408 97.1908 207.019 90.1401 210.597C83.0893 214.174 26.6795 213.671 18.9779 208.125C11.2763 202.578 16.0649 196.8 16.0649 185.476C16.0649 177.133 21.8201 136.123 24.8508 115.106Z" fill="black"/>
<path d="M38.8516 134.267C38.8516 133.269 38.9822 132.565 39.2432 132.154H44.2386C44.4999 132.741 44.6305 133.211 44.6305 133.563V134.619L44.3367 136.027C43.2918 136.027 42.7695 138.023 42.7695 142.013V176.871C42.7695 178.397 42.8347 179.688 42.9653 180.744C43.3572 182.387 44.2715 183.209 45.708 183.209C46.8995 183.209 47.8138 181.214 48.4504 177.223C48.9238 172.998 49.3809 170.885 49.8217 170.885H50.0176C50.1482 171.003 50.2789 171.589 50.4095 172.646C49.7728 182.974 49.2831 188.138 48.9401 188.138H39.2432C39.1128 188.021 38.9822 187.434 38.8516 186.378C38.8516 186.025 38.9168 185.439 39.0474 184.617C40.1575 184.148 40.7126 182.505 40.7126 179.688V140.253C40.7126 139.02 40.6146 137.964 40.4187 137.084C39.3739 136.321 38.8516 135.382 38.8516 134.267Z" fill="white"/>
<path fill-rule="evenodd" clip-rule="evenodd" d="M51.1172 156.801V163.139C51.1172 172.294 51.9334 179.923 53.5657 186.026C54.3659 188.373 55.2146 189.547 56.1126 189.547H57.092C59.5242 189.547 61.1894 182.739 62.0874 169.125C62.1526 167.834 62.2017 166.543 62.2343 165.252C62.2669 163.902 62.2832 162.494 62.2832 161.027V159.618C62.2832 146.884 61.0751 137.612 58.6592 131.802C58.2509 131.098 57.7938 130.746 57.2878 130.746H56.0145C53.7455 130.746 52.1455 137.905 51.215 152.224C51.1498 153.222 51.1172 154.748 51.1172 156.801ZM53.6638 161.379V159.97C53.6638 151.109 54.1861 143.715 55.231 137.788C55.6718 136.38 56.0963 135.676 56.5043 135.676H56.8962C58.3653 135.676 59.2796 143.187 59.6386 158.21V160.675C59.6386 172 58.8225 179.864 57.1901 184.265H56.5043C55.0352 184.265 54.0884 176.636 53.6638 161.379Z" fill="white"/>
<path d="M63.5557 132.154H67.6695C67.8001 132.272 67.9308 132.858 68.0614 133.915C68.0614 134.208 68.0288 134.56 67.9634 134.971C67.2778 136.497 66.9187 137.671 66.8859 138.492C66.8859 139.314 67.6369 149.055 69.1389 167.716H69.3347C69.5142 167.716 70.2978 158.092 71.6854 138.844V138.14L70.8038 134.267C70.8038 133.269 70.9345 132.565 71.1957 132.154H74.5259C74.7872 132.741 74.9178 133.211 74.9178 133.563V134.619C74.8687 135.323 74.4444 136.145 73.6445 137.084L70.8038 170.181C70.0039 182.153 69.449 188.138 69.1389 188.138H68.845L68.6492 187.786C67.4085 173.115 66.4288 161.701 65.7106 153.544C64.9923 145.387 64.5351 140.37 64.3393 138.492C63.5557 136.086 63.1641 134.678 63.1641 134.267C63.1641 133.269 63.2945 132.565 63.5557 132.154Z" fill="white"/>
<path d="M76.3688 184.265C77.1523 183.502 77.5443 181.39 77.5443 177.927V142.013C77.5443 140.077 77.4462 138.551 77.2504 137.436C76.271 136.086 75.7812 134.912 75.7812 133.915C75.9116 132.858 76.0423 132.272 76.1729 132.154H85.3801C85.7555 132.154 85.9841 136.614 86.0656 145.534C85.9678 146.708 85.7718 147.295 85.4781 147.295C85.021 147.295 84.6617 145.417 84.4007 141.661C84.1068 138.609 83.4865 137.084 82.5396 137.084H80.5805C79.9276 137.084 79.6011 138.257 79.6011 140.605V152.928C79.6011 155.041 79.8296 156.097 80.2867 156.097H82.6374C82.8498 156.097 83.0782 155.745 83.3232 155.041C83.7475 150.346 84.0414 147.999 84.2046 147.999H84.4007C84.7923 147.999 84.9882 148.703 84.9882 150.111V167.716C84.8249 168.655 84.6943 169.125 84.5965 169.125H84.2046C83.9925 168.831 83.7966 167.775 83.6171 165.956C83.6171 162.904 83.0945 161.379 82.0499 161.379H80.5805C79.9276 161.379 79.6011 162.552 79.6011 164.9V177.223C79.6011 181.214 80.0908 183.209 81.0703 183.209C82.7355 183.209 83.9762 182.387 84.7923 180.744C85.5922 174.876 86.0493 171.942 86.1637 171.942H86.6534C86.9147 172.352 87.0453 173.057 87.0453 174.054C87.0453 174.7 86.8818 177.517 86.5553 182.505C86.4413 186.26 86.1148 188.138 85.5759 188.138H76.1729C76.0423 188.021 75.9116 187.434 75.7812 186.378C75.7812 185.145 75.9771 184.441 76.3688 184.265Z" fill="white"/>
<path d="M25.4542 131.648H29.5682C29.6988 131.766 29.8292 132.353 29.9598 133.409C29.9598 133.702 29.9272 134.054 29.862 134.465C29.1763 135.991 28.8172 137.165 28.7846 137.986C28.7846 138.808 29.5356 148.549 31.0373 167.211H31.2331C31.4129 167.211 32.1965 157.586 33.5839 138.339V137.634L32.7025 133.761C32.7025 132.763 32.8331 132.059 33.0942 131.648H36.4243C36.6856 132.235 36.8163 132.705 36.8163 133.057V134.113C36.7674 134.817 36.3429 135.639 35.543 136.578L32.7025 169.675C31.9026 181.647 31.3475 187.632 31.0373 187.632H30.7434L30.5476 187.28C29.3069 172.61 28.3275 161.196 27.6091 153.039C26.8909 144.882 26.4338 139.864 26.238 137.986C25.4542 135.58 25.0625 134.172 25.0625 133.761C25.0625 132.763 25.1931 132.059 25.4542 131.648Z" fill="#DA4B2A"/>
<path d="M16.3781 215.08L18.0873 205.257C18.2944 204.066 19.3999 203.21 20.6647 203.26L88.2292 205.926C89.5724 205.979 90.6328 207.032 90.6328 208.314V217.672C90.6328 219.023 89.4586 220.106 88.0418 220.061L18.7683 217.861C17.2541 217.813 16.1302 216.505 16.3781 215.08Z" fill="black"/>
<path d="M51.7612 123.576C43.5912 122.063 19.9267 108.344 29.118 99.8336C34.9905 92.7409 44.4372 102.198 45.7137 106.926C46.735 110.709 52.2306 115.437 54.018 117.959C56.0606 119.772 59.9313 125.089 51.7612 123.576Z" fill="#19171D"/>
<path d="M60.294 123.218C68.4641 121.705 90.8124 108.344 81.6208 99.8336C75.7485 92.7409 66.3019 102.198 65.0253 106.926C64.0041 110.709 60.0753 115.915 58.288 118.437C56.2454 120.25 52.1237 124.731 60.294 123.218Z" fill="#19171D"/>
<path d="M44.8676 119.512C46.3909 119.512 47.6258 118.335 47.6258 116.883C47.6258 115.431 46.3909 114.254 44.8676 114.254C43.3443 114.254 42.1094 115.431 42.1094 116.883C42.1094 118.335 43.3443 119.512 44.8676 119.512Z" fill="#C4C4C4"/>
<path d="M66.9379 119.512C68.4612 119.512 69.6961 118.335 69.6961 116.883C69.6961 115.431 68.4612 114.254 66.9379 114.254C65.4146 114.254 64.1797 115.431 64.1797 116.883C64.1797 118.335 65.4146 119.512 66.9379 119.512Z" fill="#C4C4C4"/>
<path d="M42.8594 117.361V143.654C42.8594 144.578 43.6452 145.327 44.6146 145.327C45.584 145.327 46.3698 144.578 46.3698 143.654V117.361C46.3698 116.437 45.584 115.688 44.6146 115.688C43.6452 115.688 42.8594 116.437 42.8594 117.361Z" fill="#3A3838"/>
<path d="M65.1797 117.361V138.395C65.1797 139.319 65.9655 140.068 66.9349 140.068C67.9043 140.068 68.6901 139.319 68.6901 138.395V117.361C68.6901 116.437 67.9043 115.688 66.9349 115.688C65.9655 115.688 65.1797 116.437 65.1797 117.361Z" fill="#3A3838"/>
<path d="M84.3295 178.587L83.9097 178.746L83.4317 178.923L80.1878 180.075C77.2923 181.108 73.2449 182.566 71.3316 183.318L71.1452 183.391C66.0573 185.416 61.8579 187.516 58.1306 190.073C53.4527 193.283 49.7535 197.09 47.1549 201.677C45.1808 205.162 46.544 209.512 50.1996 211.394C53.8186 213.257 58.3277 212.002 60.3329 208.595L60.3929 208.491C63.1281 203.663 68.2672 200.107 76.6836 196.729L77.1058 196.561L77.5741 196.38C80.7986 195.146 88.7221 192.351 88.923 192.276C89.2658 192.149 89.5962 192.025 89.917 191.903C93.7743 190.432 95.6505 186.259 94.1076 182.582C92.5646 178.905 88.1868 177.116 84.3295 178.587Z" fill="#CDA497"/>
<path d="M21.0778 189.27L28.1673 192.502L29.457 193.096L30.8156 193.725C32.7036 194.602 34.4422 195.424 36.1189 196.232L36.8263 196.575C38.9306 197.596 40.8719 198.568 42.6597 199.499L43.318 199.844L43.8713 200.137C48.5544 202.626 51.9294 204.736 53.5874 206.206L53.7087 206.315C56.707 209.056 61.4689 208.962 64.3447 206.103C67.2206 203.245 67.1214 198.706 64.1231 195.965C61.1919 193.284 56.5681 190.416 50.1953 187.082L49.5542 186.748C47.6148 185.743 45.5308 184.703 43.2871 183.617L42.3474 183.164L41.3486 182.686C39.6705 181.887 37.92 181.068 36.0209 180.191L31.4331 178.092L27.6868 176.386C23.9397 174.676 19.4476 176.185 17.6534 179.757C15.8772 183.294 17.4111 187.526 21.0778 189.27Z" fill="#EBBAAA"/>
<path d="M55.5232 188.591L47.7501 185.006L39.8516 199.347L47.7501 202.933C47.7501 203.889 47.893 198.986 50.1322 195.045C51.762 192.177 53.768 190.025 55.5232 188.591Z" fill="#161616"/>
<path d="M67.6537 201.579L75.2093 198.153L66.8092 184.887L60.0391 188.353C60.3648 188.532 63.2203 190.748 65.6809 194.567C67.4717 197.347 67.2285 199.413 67.6537 201.579Z" fill="#161616"/>
<path d="M74.7047 200.305C101.911 199.229 110.561 166.841 108.932 153.934H92.006C92.7482 163.447 70.6928 177.717 66.3047 185.963C68.5612 188.712 65.649 200.663 74.7047 200.305Z" fill="#19171D"/>
<path d="M38.4748 201.26C6.88066 201.26 -3.39983 171.262 3.24478 150.467H17.4121C16.67 159.98 43.6151 175.445 50.7614 187.516C49.1315 192.775 47.538 201.26 38.4748 201.26Z" fill="#19171D"/>
<rect x="46.5859" y="90.5918" width="17.3015" height="27.4881" rx="8.65077" fill="#EBBAAA"/>
<path d="M91.2564 77.3383C96.7957 77.3383 101.286 72.683 101.286 66.9406C101.286 61.198 96.7957 56.543 91.2564 56.543C85.7172 56.543 81.2266 61.198 81.2266 66.9406C81.2266 72.683 85.7172 77.3383 91.2564 77.3383Z" fill="#EBBAAA"/>
<path d="M19.0377 77.3383C13.4983 77.3383 9.00781 72.683 9.00781 66.9406C9.00781 61.198 13.4983 56.543 19.0377 56.543C24.5769 56.543 29.0676 61.198 29.0676 66.9406C29.0676 72.683 24.5769 77.3383 19.0377 77.3383Z" fill="#EBBAAA"/>
<path d="M17.75 43.8188C17.75 24.0173 34.5894 7.96484 55.362 7.96484C76.1347 7.96484 92.9741 24.0173 92.9741 43.8188V56.9285C92.9741 59.0584 92.8033 61.1851 92.4631 63.2902L90.1645 77.5137C87.5251 93.8464 72.7814 105.902 55.4458 105.902C38.4783 105.902 23.9359 94.3407 20.8887 78.4292L18.4627 65.7617C17.9885 63.2859 17.75 60.7742 17.75 58.2575V43.8188Z" fill="#F4D5CC"/>
<path d="M67.8774 44.5933L67.9915 44.5459L68.069 44.5151C68.3437 44.4075 68.6761 44.2962 69.0624 44.1902C70.5515 43.7814 72.2982 43.5866 74.2557 43.7339C75.8946 43.8572 77.332 44.152 78.5662 44.5617C79.1274 44.748 79.6017 44.9434 79.9877 45.1329C80.0912 45.1837 80.179 45.2296 80.2509 45.2693L80.3244 45.3104L80.3191 45.307C81.4659 46.047 83.0249 45.7606 83.8012 44.6674C84.5774 43.5742 84.2771 42.0881 83.1302 41.3481C82.9501 41.2319 82.6675 41.0712 82.2835 40.8827C81.6925 40.5926 81.0027 40.3084 80.2154 40.0471C78.5836 39.5054 76.7256 39.1244 74.6504 38.9682C72.0641 38.7736 69.719 39.0351 67.6745 39.5964C67.1083 39.7518 66.6034 39.9208 66.1629 40.0933L66.0134 40.153L65.8782 40.2091C65.7288 40.2723 65.6088 40.3276 65.5188 40.3724C64.2914 40.9836 63.8162 42.4277 64.4574 43.5978C65.0761 44.7268 66.5082 45.1881 67.7107 44.67L67.7761 44.6407L67.8774 44.5933Z" fill="#393939"/>
<path d="M45.1234 40.3028L45.0357 40.2672L44.9312 40.2269C44.8184 40.1845 44.6807 40.1357 44.5188 40.0822C44.1035 39.9449 43.6281 39.8104 43.096 39.6867C41.0856 39.219 38.7872 39.0131 36.2649 39.208C34.3299 39.3576 32.5498 39.678 30.9417 40.1205C30.127 40.3446 29.404 40.5872 28.7774 40.8334C28.5496 40.9229 28.3479 41.0077 28.1728 41.0861L27.9995 41.1657L27.9059 41.2111C26.6795 41.8243 26.2067 43.269 26.8499 44.4381C27.4818 45.5867 28.9558 46.0419 30.1703 45.476L30.3046 45.4132C30.4077 45.3671 30.5359 45.3131 30.6885 45.2532C31.1486 45.0724 31.6984 44.888 32.3323 44.7135C33.6275 44.3572 35.079 44.0959 36.6702 43.9729C38.6313 43.8213 40.3965 43.9795 41.9072 44.3309C42.2409 44.4086 42.5342 44.4897 42.7843 44.5692L42.9858 44.636L43.1016 44.6777L43.1072 44.6799C44.3752 45.2107 45.8544 44.661 46.4112 43.4523C46.968 42.2436 46.3914 40.8335 45.1234 40.3028Z" fill="#393939"/>
<path d="M15.5328 37.4301C15.3647 22.847 28.8231 18.0689 26.4405 20.8177C24.0581 23.5664 29.7007 30.3788 26.4405 32.53C23.1805 34.6812 26.8166 41.6133 25.0613 44.2426C23.3061 46.8719 20.504 46.2743 18.918 51.4134C17.332 56.5524 18.6672 66.5574 18.6672 66.5574C18.7926 66.8306 18.6672 67.1891 18.4165 67.1891C18.1657 67.1891 17.7896 67.0696 17.6877 66.5574C17.6877 66.5574 15.7835 59.1815 15.5328 37.4301Z" fill="black"/>
<path d="M94.5079 39.6871C94.6631 26.2209 82.2404 21.8088 84.4394 24.347C86.6385 26.8851 81.4302 33.1757 84.4394 35.1623C87.4486 37.1488 84.0924 43.5497 85.7127 45.9778C87.3328 48.4056 89.9192 47.8539 91.3834 52.5993C92.8472 57.3449 91.6148 66.5836 91.6148 66.5836C91.499 66.836 91.6148 67.167 91.8462 67.167C92.0777 67.167 92.4247 67.0566 92.5187 66.5836C92.5187 66.5836 94.2765 59.7727 94.5079 39.6871Z" fill="black"/>
<path d="M54.342 59.7188C52.698 62.0694 51.4766 65.417 51.4766 68.1659C51.4766 72.1514 53.9732 74.8288 58.6229 74.8288V70.7654C56.4466 70.7654 55.7393 70.0068 55.7393 68.1659C55.7393 66.2837 56.6833 63.6964 57.8888 61.9728L54.342 59.7188Z" fill="#EBBAAA"/>
<path d="M72.9167 56.6488H69.4062" stroke="black" stroke-width="6.01793" stroke-linecap="round"/>
<path d="M41.448 56.6488H37.9375" stroke="black" stroke-width="6.01793" stroke-linecap="round"/>
<path fill-rule="evenodd" clip-rule="evenodd" d="M65.4586 82.8477V83.5329C65.4586 88.6242 61.1289 92.7517 55.7877 92.7517C50.4468 92.7517 46.1172 88.6242 46.1172 83.5329V82.8477H65.4586Z" fill="white"/>
<path fill-rule="evenodd" clip-rule="evenodd" d="M55.2304 30.7695C25.1009 30.7695 16.8968 48.0227 16.5609 56.6494C10.095 37.7663 8.7767 0 55.2304 0C101.684 0 100.198 37.7663 93.6479 56.6494C93.3959 48.0227 85.3597 30.7695 55.2304 30.7695Z" fill="#BB462F"/>
<mask id="mask5_1801_5317" style="mask-type:luminance" maskUnits="userSpaceOnUse" x="13" y="0" width="85" height="57">
<path fill-rule="evenodd" clip-rule="evenodd" d="M55.2304 30.7695C25.1009 30.7695 16.8968 48.0227 16.5609 56.6494C10.095 37.7663 8.7767 0 55.2304 0C101.684 0 100.198 37.7663 93.6479 56.6494C93.3959 48.0227 85.3597 30.7695 55.2304 30.7695Z" fill="white"/>
</mask>
<g mask="url(#mask5_1801_5317)">
</g>
</svg>
