<svg width="135" height="75" viewBox="0 0 135 75" fill="none" xmlns="http://www.w3.org/2000/svg">
<path d="M74.1471 14.9769C73.2295 15.2275 72.3179 15.4355 71.1953 15.7005C71.1947 15.7006 71.1941 15.7008 71.1935 15.701C71.0329 15.7389 70.8676 15.778 70.6972 15.8188C69.3303 16.1478 67.5547 16.5873 64.9098 17.3931C62.0289 18.2717 59.6463 18.9424 58.2314 19.2869C57.9589 19.3545 57.681 19.4383 56.9981 19.6801C56.5507 19.839 55.9487 20.0587 55.0917 20.3825C54.6336 20.5559 54.1167 20.7536 53.4888 20.9994C51.411 21.8077 48.2429 23.1991 45.4147 24.6127C43.6669 25.481 42.071 26.3346 40.8503 27.005C39.0544 27.9916 37.3733 28.9465 35.546 30.0669C33.8967 31.08 32.1223 32.2346 30.1782 33.651C28.6678 34.7532 27.1919 35.7607 25.6893 36.848C25.4991 36.9856 25.3086 37.1245 25.1185 37.2643C23.81 38.2264 22.4906 39.2546 21.1526 40.4601C18.7706 42.616 17.0867 44.5632 15.3286 46.7905C14.6405 47.6662 13.9525 48.5779 13.2132 49.5876C12.0429 51.1791 10.4055 53.5129 8.92081 55.9271C8.79326 56.1337 8.66637 56.3415 8.54039 56.5494C8.53976 56.5505 8.53912 56.5515 8.53849 56.5526C7.18114 58.7875 5.965 61.0555 5.14397 62.7316C3.83602 65.4174 3.44814 66.4843 3.10784 67.3501C2.9815 67.6786 2.86573 67.984 2.72361 68.3475C2.20274 69.6749 1.41998 71.5903 0.670365 73.6273C0.667528 73.635 0.664711 73.6428 0.661878 73.6505C0.537556 73.9877 0.30658 74.2146 0.1444 74.1548C-0.0177055 74.095 -0.0491856 73.7695 0.0759568 73.4303C0.474932 72.3478 0.877088 71.3096 1.2402 70.39C1.1212 70.2875 1.11548 69.9978 1.23623 69.7027C1.5556 68.94 2.34255 66.6257 3.89097 63.0307C3.74981 63.2575 3.62887 63.4471 3.52141 63.6127C3.39529 63.8073 3.29659 63.9559 3.21195 64.084C3.03561 64.3511 2.9188 64.5298 2.74086 64.862C2.35462 65.6362 1.8016 66.8524 1.24029 68.1765C1.09864 68.51 0.856432 68.728 0.697337 68.6607C0.53828 68.5933 0.523441 68.2641 0.665971 67.9283C0.668749 67.9217 0.671483 67.9152 0.674269 67.9086C1.23389 66.5888 1.80655 65.3282 2.21533 64.5116C2.31949 64.3031 2.41169 64.1253 2.48227 63.9924C2.53865 63.8863 2.60986 63.7544 2.65472 63.6836C2.66067 63.6742 2.67215 63.6564 2.68672 63.6355C2.68698 63.6352 2.68726 63.6349 2.68753 63.6345C2.69564 63.6229 2.73697 63.5632 2.79282 63.5053C2.8041 63.4936 2.82888 63.4683 2.86238 63.4412C2.868 63.4328 2.87362 63.4244 2.87924 63.4159C2.95754 63.2984 3.03756 63.1788 3.12239 63.0488C3.45877 62.5368 3.94108 61.7451 4.9641 60.0302C5.90374 58.4662 7.4214 55.7976 9.54352 52.613C9.38879 52.8219 9.23484 53.0325 9.08219 53.2442C8.69896 53.7757 8.32797 54.3069 7.95935 54.8506C7.81841 55.0585 7.68014 55.2646 7.54022 55.4757C7.31498 55.8154 7.0912 56.1588 6.86972 56.5047C6.72053 56.7375 6.56943 56.9766 6.4245 57.2075C6.42419 57.2081 6.42388 57.2086 6.42357 57.2091C6.22148 57.5312 6.02042 57.8562 5.81919 58.1857C5.74849 58.3009 5.67892 58.4151 5.61015 58.5287C5.33644 58.981 5.07038 59.429 4.75442 59.9429C4.71453 60.0047 4.67012 60.0712 4.63641 60.1206C4.60027 60.1738 4.5652 60.2249 4.53161 60.2729C4.50197 60.3154 4.47338 60.3556 4.44612 60.3944C4.4425 60.3996 4.43884 60.4048 4.4352 60.41C4.40474 60.4534 4.37581 60.495 4.34811 60.5351C4.32049 60.5751 4.29389 60.6137 4.26829 60.652C4.26812 60.6524 4.26789 60.6528 4.26772 60.6531C4.24106 60.6933 4.2209 60.7238 4.1936 60.7668C4.15923 60.8212 4.13073 60.867 4.0972 60.9228C4.06468 60.9769 4.03136 61.0337 3.99822 61.0913C3.96509 61.1489 3.93178 61.2078 3.8983 61.2679C3.8648 61.3279 3.83102 61.3891 3.79722 61.451C3.76348 61.5129 3.72961 61.5758 3.69558 61.6391C3.66155 61.7024 3.62721 61.7665 3.59284 61.831C3.51371 61.9795 3.41072 62.1086 3.30521 62.1888C3.19972 62.2691 3.10062 62.2941 3.0287 62.2577C2.9568 62.2213 2.91741 62.1261 2.91893 61.9924C2.92047 61.8587 2.96313 61.6975 3.03648 61.5448C3.05646 61.5033 3.07649 61.4614 3.09671 61.4196C3.10873 61.3947 3.12098 61.3697 3.13309 61.3447C3.16567 61.2776 3.19853 61.2098 3.23203 61.1418C3.26551 61.0739 3.29965 61.0056 3.33442 60.9367C3.3693 60.8676 3.40493 60.7978 3.44167 60.7273C3.47838 60.657 3.51622 60.5858 3.55585 60.5131C3.595 60.4412 3.64069 60.3597 3.68256 60.2874C3.71307 60.2346 3.75186 60.17 3.78451 60.1165C3.81858 60.0606 3.85269 60.0058 3.88591 59.9534C3.91922 59.9007 3.95188 59.8501 3.98301 59.8018C3.98632 59.7966 3.98965 59.7914 3.99294 59.7863C4.0205 59.7436 4.04714 59.7025 4.07214 59.6635C4.10006 59.6199 4.1262 59.5785 4.15071 59.539C4.17779 59.4956 4.19359 59.4689 4.2129 59.436C4.45856 58.9971 4.75292 58.4519 5.03822 57.9372C5.07406 57.8725 5.10983 57.8082 5.14522 57.7447C5.33299 57.4072 5.52175 57.0721 5.71207 56.7392C5.85068 56.4967 5.99401 56.2487 6.13682 56.0046C6.34743 55.6447 6.56106 55.2861 6.77683 54.9303C6.91088 54.7094 7.04342 54.4935 7.17907 54.2751C7.53414 53.7033 7.892 53.144 8.26816 52.5764C8.64308 52.0107 9.02824 51.4493 9.42303 50.8964C9.81651 50.3453 10.234 49.7841 10.6527 49.2507C10.9625 48.8561 11.2942 48.4635 11.6064 48.1059C11.7742 47.9137 11.9398 47.7269 12.1038 47.5439C12.1044 47.5433 12.1049 47.5427 12.1055 47.5421C12.2495 47.3815 12.3921 47.2236 12.5337 47.0672C12.8375 46.7317 13.1354 46.4039 13.4327 46.0753C13.7309 45.7454 14.0266 45.4172 14.3233 45.0862C14.6176 44.7576 14.9159 44.4235 15.2106 44.0926C15.5069 43.7601 15.7971 43.4335 16.1025 43.0911C16.5042 42.6402 16.9053 42.1926 17.321 41.7378C17.7336 41.2861 18.1534 40.8344 18.5796 40.3862C18.7286 40.2296 18.8787 40.0733 19.0294 39.9173C19.0299 39.9167 19.0305 39.9161 19.0311 39.9155C19.3097 39.6271 19.5908 39.3403 19.8747 39.0552C20.3129 38.6152 20.7579 38.179 21.2111 37.7469C21.6639 37.3153 22.1278 36.8851 22.5963 36.4647C23.0661 36.0432 23.556 35.6174 24.0598 35.2018C24.5089 34.8308 24.9681 34.4633 25.4212 34.1083C25.5398 34.0153 25.6587 33.9227 25.7779 33.8303C26.3434 33.3918 26.8957 32.9715 27.4424 32.5538C27.9877 32.1375 28.5394 31.7155 29.0869 31.2977C29.6328 30.8811 30.1881 30.459 30.7528 30.0352C31.3191 29.6102 31.8869 29.1893 32.4638 28.7688C33.032 28.3541 33.6087 27.9404 34.1989 27.5253C34.5271 27.2945 34.8802 27.053 35.217 26.8278C35.5558 26.6012 35.9025 26.3749 36.2321 26.1627C36.3672 26.0758 36.5021 25.9897 36.6364 25.9043C36.8321 25.7799 37.027 25.6571 37.2192 25.5363C37.5436 25.3324 37.8615 25.1338 38.1707 24.9397C38.4798 24.7456 38.78 24.5558 39.0694 24.3693C39.3679 24.1768 39.6184 24.0121 39.9052 23.8176C40.6128 23.3591 41.0676 23.0966 41.5747 22.8062C41.6746 22.749 41.7768 22.6906 41.8835 22.6297C42.495 22.2847 43.1152 21.9496 43.7352 21.6267C44.3486 21.3071 44.9573 21.0015 45.5826 20.6987C46.2016 20.399 46.8326 20.1047 47.4681 19.8186C48.1105 19.5294 48.7228 19.2639 49.3587 18.9976C49.9913 18.7327 50.644 18.4697 51.2769 18.2237C51.6426 18.0814 52.0339 17.934 52.3995 17.7993C52.6622 17.7025 52.9127 17.6121 53.1636 17.522C53.2657 17.4854 53.3674 17.4491 53.4681 17.4131C53.8156 17.2892 54.1544 17.1692 54.4819 17.0516C54.8096 16.9341 55.127 16.8188 55.4372 16.7028C55.748 16.5867 56.0517 16.4698 56.3552 16.3495C56.6687 16.225 56.9343 16.1169 57.2608 15.9796C57.4719 15.8907 57.6793 15.8035 57.8866 15.7169C58.1969 15.5871 58.5062 15.4585 58.8188 15.3292C59.131 15.2 59.4404 15.0725 59.7524 14.9444C59.8526 14.9032 59.9587 14.8597 60.0595 14.8184C60.371 14.6906 60.68 14.5642 60.9895 14.4374C61.2979 14.311 61.6074 14.1844 61.9102 14.0596C62.2092 13.9359 62.504 13.8136 62.8053 13.6879C63.3173 13.4743 63.8177 13.2917 64.2591 13.1369C64.706 12.9805 65.1273 12.8402 65.5392 12.7047C65.6163 12.6794 65.6935 12.654 65.7708 12.6287C66.1037 12.5199 66.4323 12.4136 66.7569 12.3084C67.1463 12.182 67.5284 12.0576 67.9135 11.9316C68.2952 11.8068 68.6818 11.6798 69.0634 11.5532C69.4486 11.4253 69.8179 11.302 70.217 11.1674C70.6117 11.0345 71.0128 10.8947 71.4545 10.7426C71.8986 10.5901 72.3385 10.4395 72.7976 10.289C73.2544 10.1389 73.7218 9.99121 74.1892 9.84989C74.6576 9.70822 75.1309 9.57117 75.6007 9.4406C76.0731 9.3093 76.5457 9.1834 77.0188 9.06185C77.4876 8.94135 77.9564 8.82537 78.4062 8.71802C79.1318 8.54485 79.8594 8.37658 80.5933 8.21078C81.3225 8.04609 82.0618 7.88318 82.7989 7.72438C83.5163 7.57006 84.2391 7.41785 84.9653 7.26815C85.6919 7.11837 86.4228 6.97073 87.1573 6.82521C87.3197 6.79303 87.4823 6.76093 87.6452 6.72892C88.2217 6.61559 88.7887 6.50596 89.3456 6.39969C89.3494 6.399 89.3533 6.39832 89.3571 6.39763C90.0773 6.26007 90.7885 6.12652 91.5107 5.99173C91.7758 5.94217 92.031 5.89471 92.2909 5.84618C92.551 5.79759 92.8067 5.74972 93.0652 5.70111C93.324 5.65244 93.5818 5.60366 93.836 5.5551C94.0912 5.50628 94.3493 5.45652 94.5921 5.40861C94.8176 5.36421 95.0416 5.31886 95.2868 5.26965C95.3092 5.26515 95.3316 5.26065 95.354 5.25616C95.6224 5.20232 95.9288 5.14311 96.2149 5.09205C96.9729 4.95731 97.7156 4.82507 98.4755 4.68932C99.2337 4.55391 100.006 4.41572 100.765 4.28101C101.058 4.22897 101.354 4.17656 101.65 4.12452C102.11 4.04357 102.574 3.96282 103.041 3.88289C103.809 3.75135 104.583 3.62265 105.368 3.49792C106.149 3.37381 106.947 3.25266 107.709 3.14337C108.478 3.03278 109.259 2.92639 110.035 2.82637C110.899 2.71501 111.764 2.60786 112.638 2.50247C113.523 2.39537 114.354 2.29952 115.213 2.20201C116.07 2.10484 116.93 2.00989 117.795 1.91673C118.658 1.82389 119.54 1.73088 120.398 1.64365C120.907 1.59195 121.417 1.54096 121.93 1.49046C122.198 1.44059 122.456 1.39258 122.704 1.34667C124.533 1.00853 125.903 0.763258 127.654 0.498142C127.821 0.470116 127.956 0.442738 128.12 0.409567C128.152 0.40324 128.185 0.396675 128.219 0.389871C128.434 0.346792 128.682 0.299057 129.029 0.246054C129.721 0.140348 130.789 0.0172899 132.199 7.30681e-05C132.556 -0.00426879 132.8 0.135297 132.743 0.311749C132.703 0.435535 132.526 0.544614 132.301 0.600228C132.725 0.57111 133.149 0.543247 133.572 0.515568C133.741 0.504548 133.904 0.525028 134.023 0.573529C134.142 0.622057 134.209 0.694331 134.208 0.775362C134.208 0.856416 134.14 0.940131 134.02 1.00918C133.9 1.07816 133.738 1.12668 133.569 1.1448C133.121 1.19272 132.676 1.24064 132.231 1.28986C131.787 1.33909 131.346 1.38937 130.905 1.44076C130.464 1.49212 130.025 1.54457 129.585 1.59801C129.147 1.65128 128.71 1.70532 128.273 1.76031C127.832 1.8158 127.409 1.87011 126.962 1.92784C126.693 1.96261 126.422 1.99785 126.156 2.03283C126.056 2.04581 125.96 2.05874 125.863 2.07151C125.784 2.08195 125.705 2.09235 125.623 2.10313C124.764 2.21708 123.901 2.33379 123.051 2.45114C122.197 2.56897 121.349 2.68815 120.505 2.80881C119.652 2.93075 118.778 3.05776 117.923 3.18439C117.065 3.3113 116.213 3.43963 115.364 3.56982C114.514 3.70025 113.69 3.82901 112.816 3.96802C112.149 4.0741 111.492 4.18077 110.836 4.28898C110.58 4.34387 110.327 4.3976 110.077 4.45039C109.351 4.60404 108.63 4.77207 107.924 4.93892C109.192 4.71246 110.218 4.51267 111.201 4.32371C111.333 4.29838 111.464 4.2732 111.594 4.24825C112.936 3.99266 114.217 3.75853 115.941 3.52579C120.916 2.85779 123.737 2.5296 125.554 2.33966C127.374 2.15219 128.124 2.12218 128.853 2.15291C129.876 2.19701 131.843 2.05995 132.836 1.94889C133.196 1.90841 133.504 2.01515 133.522 2.18697C133.54 2.35885 133.262 2.53092 132.902 2.57137C131.854 2.68855 129.729 2.84294 128.513 2.79078C127.97 2.76784 127.362 2.78288 125.575 2.96697C123.788 3.15395 120.995 3.47882 116.016 4.14732C114.355 4.37163 113.127 4.59544 111.8 4.84802C111.67 4.87269 111.54 4.89779 111.409 4.92299C111.408 4.92312 111.407 4.92324 111.406 4.92336C110.197 5.15595 108.892 5.41036 107.14 5.71256C103.008 6.41472 97.5622 7.49778 96.2813 7.80535C96.0304 7.86424 95.7886 7.92319 95.5342 7.98544C94.5694 8.22368 93.3223 8.52146 90.6447 9.10654C90.054 9.23605 89.3896 9.37793 88.6181 9.54201C87.4871 9.86475 86.4017 10.1789 85.4616 10.4338C84.6472 10.6545 83.9261 10.8925 83.2034 11.141C82.9945 11.2127 82.7849 11.286 82.5761 11.3592C82.0726 11.5358 81.5718 11.7133 81.0838 11.8758C80.6948 12.0054 80.2904 12.147 79.8651 12.2974C78.34 12.84 76.4289 13.5227 73.9841 14.1864C71.3705 14.8967 69.1262 15.5172 67.2077 16.0703C68.6388 15.6732 69.711 15.41 70.6385 15.1875C70.8123 15.1459 70.9792 15.1063 71.1402 15.0684C72.2767 14.8006 73.1198 14.6091 73.9759 14.3751C78.143 13.2485 79.718 12.8351 81.4634 12.2575C81.9254 12.1066 82.4353 11.9319 82.9885 11.745C84.1003 11.37 85.3136 10.9619 86.6873 10.5871C87.9597 10.2394 89.4056 9.82955 90.89 9.41747C90.8906 9.41734 90.8913 9.41722 90.8919 9.4171C91.1849 9.33596 91.4822 9.25413 91.783 9.17202C93.6201 8.6705 95.5784 8.16185 97.4584 7.73374C97.6611 7.68763 97.904 7.6309 98.1836 7.56593C99.8163 7.18738 102.614 6.54686 106.156 6.07203C106.941 5.96656 107.742 5.88353 108.651 5.79228C108.929 5.76438 109.218 5.73574 109.521 5.70525C110.819 5.5748 112.445 5.4026 114.548 5.14401C116.27 4.93239 118.397 4.653 120.627 4.37411C121.699 4.24018 122.798 4.10577 123.89 3.97739C127.223 3.58528 130.19 3.28277 133.247 2.9843C133.248 2.98423 133.248 2.98416 133.249 2.98408C133.609 2.94895 133.909 3.06107 133.916 3.23409C133.922 3.40704 133.635 3.57566 133.275 3.61081C130.22 3.90922 127.263 4.21066 123.945 4.60108C122.871 4.72741 121.781 4.86065 120.715 4.99391C118.477 5.27379 116.322 5.55685 114.586 5.77028C112.446 6.03362 110.796 6.20848 109.482 6.34078C109.164 6.37292 108.865 6.40272 108.583 6.4312C107.687 6.5212 106.929 6.60001 106.188 6.69963C102.763 7.15935 100.079 7.77272 98.4402 8.15168C98.1532 8.21824 97.9015 8.27683 97.6873 8.32549C95.8435 8.74478 93.9263 9.24221 92.0896 9.74239C91.7925 9.82332 91.4978 9.90417 91.2062 9.98475C91.2056 9.98497 91.2051 9.98519 91.2045 9.98541C89.7186 10.3968 88.2594 10.8103 86.9619 11.164C85.6441 11.5233 84.5373 11.8938 83.4845 12.25C82.9117 12.443 82.3636 12.6298 81.8233 12.8059C79.9721 13.4164 78.3174 13.8494 74.1471 14.9769ZM131.647 0.646243C130.775 0.66964 130.073 0.736602 129.554 0.804114C129.998 0.768878 130.441 0.734877 130.886 0.701717C131.14 0.682838 131.393 0.664352 131.647 0.646243ZM88.3849 8.95196C88.5216 8.91291 88.6594 8.87359 88.7979 8.83418C88.4108 8.9198 88.0248 9.00561 87.6408 9.09177C87.1694 9.19757 86.6999 9.30378 86.2326 9.41064C86.9778 9.25089 87.7047 9.09666 88.3849 8.95196ZM73.8147 13.5838C76.1226 12.9573 77.896 12.3237 79.4066 11.7841C79.8493 11.627 80.281 11.4755 80.7114 11.3318C80.8898 11.2722 81.0681 11.2111 81.2479 11.1487C80.1723 11.3931 79.1946 11.6213 78.3995 11.8102C75.9887 12.3849 74.6089 12.7015 73.4194 12.9748C73.0727 13.0549 72.75 13.13 72.4032 13.2139C72.1255 13.3125 71.8379 13.4144 71.5475 13.5151C71.1409 13.6563 70.7028 13.8068 70.2872 13.9484C69.8701 14.0907 69.4476 14.2336 69.0339 14.3724C68.6168 14.5123 68.2049 14.6494 67.7963 14.785C67.4158 14.9115 67.0122 15.0446 66.6359 15.1703C66.6143 15.1776 66.5926 15.1848 66.5709 15.1921C66.1709 15.3259 65.7836 15.4569 65.4306 15.582C65.0712 15.7094 64.7753 15.8204 64.5163 15.9282C64.1929 16.0628 63.8621 16.1998 63.5358 16.3342C63.2078 16.4693 62.89 16.6002 62.5583 16.7352C62.2259 16.8706 61.8979 17.004 61.57 17.1374C61.464 17.1805 61.3533 17.2256 61.2484 17.2682C61.2001 17.2879 61.1518 17.3077 61.1037 17.3273C61.752 17.1052 62.4505 16.8719 63.1391 16.6488C64.1394 16.3247 65.2223 15.9964 66.434 15.6429C68.508 15.0386 70.8699 14.3848 73.8147 13.5838ZM51.4241 21.103C51.6976 20.9848 52.098 20.8098 52.6192 20.5869C52.7425 20.5341 52.8726 20.4785 53.0093 20.4205C53.006 20.4217 53.0027 20.4231 52.9994 20.4243C52.653 20.5495 52.3348 20.6667 51.9935 20.7962C51.3853 21.027 50.8 21.2567 50.2146 21.4943C49.6261 21.7334 49.0511 21.9746 48.4563 22.2333C47.8662 22.4898 47.2808 22.7532 46.7067 23.0201C46.127 23.2897 45.5617 23.5612 44.9978 23.8421C44.8189 23.9312 44.6319 24.0254 44.4498 24.1182C44.8705 23.9254 45.2911 23.7324 45.7427 23.5285C46.1028 23.3659 46.4804 23.1975 46.8804 23.0236C47.0335 22.9571 47.2198 22.8783 47.4379 22.7868C48.3067 22.4228 49.6611 21.8656 51.4241 21.103ZM40.0416 26.6461C39.9143 26.7221 39.7878 26.7975 39.6628 26.8718C39.3068 27.0831 38.9605 27.2874 38.6225 27.4882C38.3851 27.6293 38.1511 27.7687 37.9215 27.907C37.8246 27.9653 37.728 28.0238 37.6325 28.0818C37.4725 28.179 37.3147 28.2758 37.1576 28.3729C38.2727 27.7217 39.3802 27.098 40.5529 26.4545C40.5684 26.446 40.5839 26.4374 40.5995 26.4288C40.4088 26.5025 40.223 26.5749 40.0416 26.6461Z" fill="black"/>
</svg>
