<svg width="135" height="75" viewBox="0 0 135 75" fill="none" xmlns="http://www.w3.org/2000/svg">
<path d="M60.0619 14.9769C60.9795 15.2275 61.8911 15.4355 63.0137 15.7005C63.0143 15.7006 63.0149 15.7008 63.0155 15.701C63.1761 15.7389 63.3414 15.778 63.5118 15.8188C64.8787 16.1478 66.6543 16.5873 69.2992 17.3931C72.1801 18.2717 74.5627 18.9424 75.9776 19.2869C76.2501 19.3545 76.5279 19.4383 77.2109 19.6801C77.6583 19.839 78.2603 20.0587 79.1172 20.3825C79.5753 20.5559 80.0923 20.7536 80.7202 20.9994C82.798 21.8077 85.9661 23.1991 88.7942 24.6127C90.5421 25.481 92.138 26.3346 93.3587 27.005C95.1546 27.9916 96.8357 28.9465 98.663 30.0669C100.312 31.08 102.087 32.2346 104.031 33.651C105.541 34.7532 107.017 35.7607 108.52 36.848C108.71 36.9856 108.9 37.1245 109.09 37.2643C110.399 38.2264 111.718 39.2546 113.056 40.4601C115.438 42.616 117.122 44.5632 118.88 46.7905C119.568 47.6662 120.256 48.5779 120.996 49.5876C122.166 51.1791 123.803 53.5129 125.288 55.9271C125.416 56.1337 125.543 56.3415 125.669 56.5494C125.669 56.5505 125.67 56.5515 125.67 56.5526C127.028 58.7875 128.244 61.0555 129.065 62.7316C130.373 65.4174 130.761 66.4843 131.101 67.3501C131.227 67.6786 131.343 67.984 131.485 68.3475C132.006 69.6749 132.789 71.5903 133.539 73.6273C133.541 73.635 133.544 73.6428 133.547 73.6505C133.671 73.9877 133.902 74.2146 134.065 74.1548C134.227 74.095 134.258 73.7695 134.133 73.4303C133.734 72.3478 133.332 71.3096 132.969 70.39C133.088 70.2875 133.094 69.9978 132.973 69.7027C132.653 68.94 131.866 66.6257 130.318 63.0307C130.459 63.2575 130.58 63.4471 130.688 63.6127C130.814 63.8073 130.912 63.9559 130.997 64.084C131.173 64.3511 131.29 64.5298 131.468 64.862C131.854 65.6362 132.407 66.8524 132.969 68.1765C133.11 68.51 133.353 68.728 133.512 68.6607C133.671 68.5933 133.686 68.2641 133.543 67.9283C133.54 67.9217 133.538 67.9152 133.535 67.9086C132.975 66.5888 132.402 65.3282 131.994 64.5116C131.889 64.3031 131.797 64.1253 131.727 63.9924C131.67 63.8863 131.599 63.7544 131.554 63.6836C131.548 63.6742 131.537 63.6564 131.522 63.6355C131.522 63.6352 131.522 63.6349 131.521 63.6345C131.513 63.6229 131.472 63.5632 131.416 63.5053C131.405 63.4936 131.38 63.4683 131.347 63.4412C131.341 63.4328 131.335 63.4244 131.33 63.4159C131.251 63.2984 131.171 63.1788 131.087 63.0488C130.75 62.5368 130.268 61.7451 129.245 60.0302C128.305 58.4662 126.788 55.7976 124.665 52.613C124.82 52.8219 124.974 53.0325 125.127 53.2442C125.51 53.7757 125.881 54.3069 126.25 54.8506C126.391 55.0585 126.529 55.2646 126.669 55.4757C126.894 55.8154 127.118 56.1588 127.339 56.5047C127.488 56.7375 127.64 56.9766 127.784 57.2075C127.785 57.2081 127.785 57.2086 127.785 57.2091C127.988 57.5312 128.189 57.8562 128.39 58.1857C128.46 58.3009 128.53 58.4151 128.599 58.5287C128.873 58.981 129.139 59.429 129.455 59.9429C129.494 60.0047 129.539 60.0712 129.573 60.1206C129.609 60.1738 129.644 60.2249 129.677 60.2729C129.707 60.3154 129.736 60.3556 129.763 60.3944C129.766 60.3996 129.77 60.4048 129.774 60.41C129.804 60.4534 129.833 60.495 129.861 60.5351C129.888 60.5751 129.915 60.6137 129.941 60.652C129.941 60.6524 129.941 60.6528 129.941 60.6531C129.968 60.6933 129.988 60.7238 130.015 60.7668C130.05 60.8212 130.078 60.867 130.112 60.9228C130.144 60.9769 130.178 61.0337 130.211 61.0913C130.244 61.1489 130.277 61.2078 130.311 61.2679C130.344 61.3279 130.378 61.3891 130.412 61.451C130.446 61.5129 130.479 61.5758 130.513 61.6391C130.547 61.7024 130.582 61.7665 130.616 61.831C130.695 61.9795 130.798 62.1086 130.904 62.1888C131.009 62.2691 131.108 62.2941 131.18 62.2577C131.252 62.2213 131.292 62.1261 131.29 61.9924C131.289 61.8587 131.246 61.6975 131.173 61.5448C131.153 61.5033 131.132 61.4614 131.112 61.4196C131.1 61.3947 131.088 61.3697 131.076 61.3447C131.043 61.2776 131.01 61.2098 130.977 61.1418C130.943 61.0739 130.909 61.0056 130.875 60.9367C130.84 60.8676 130.804 60.7978 130.767 60.7273C130.731 60.657 130.693 60.5858 130.653 60.5131C130.614 60.4412 130.568 60.3597 130.526 60.2874C130.496 60.2346 130.457 60.17 130.424 60.1165C130.39 60.0606 130.356 60.0058 130.323 59.9534C130.29 59.9007 130.257 59.8501 130.226 59.8018C130.223 59.7966 130.219 59.7914 130.216 59.7863C130.188 59.7436 130.162 59.7025 130.137 59.6635C130.109 59.6199 130.083 59.5785 130.058 59.539C130.031 59.4956 130.015 59.4689 129.996 59.436C129.75 58.9971 129.456 58.4519 129.171 57.9372C129.135 57.8725 129.099 57.8082 129.064 57.7447C128.876 57.4072 128.687 57.0721 128.497 56.7392C128.358 56.4967 128.215 56.2487 128.072 56.0046C127.862 55.6447 127.648 55.2861 127.432 54.9303C127.298 54.7094 127.166 54.4935 127.03 54.2751C126.675 53.7033 126.317 53.144 125.941 52.5764C125.566 52.0107 125.181 51.4493 124.786 50.8964C124.392 50.3453 123.975 49.7841 123.556 49.2507C123.246 48.8561 122.915 48.4635 122.603 48.1059C122.435 47.9137 122.269 47.7269 122.105 47.5439C122.105 47.5433 122.104 47.5427 122.103 47.5421C121.96 47.3815 121.817 47.2236 121.675 47.0672C121.371 46.7317 121.074 46.4039 120.776 46.0753C120.478 45.7454 120.182 45.4172 119.886 45.0862C119.591 44.7576 119.293 44.4235 118.998 44.0926C118.702 43.7601 118.412 43.4335 118.106 43.0911C117.705 42.6402 117.304 42.1926 116.888 41.7378C116.475 41.2861 116.056 40.8344 115.629 40.3862C115.48 40.2296 115.33 40.0733 115.18 39.9173C115.179 39.9167 115.178 39.9161 115.178 39.9155C114.899 39.6271 114.618 39.3403 114.334 39.0552C113.896 38.6152 113.451 38.179 112.998 37.7469C112.545 37.3153 112.081 36.8851 111.613 36.4647C111.143 36.0432 110.653 35.6174 110.149 35.2018C109.7 34.8308 109.241 34.4633 108.788 34.1083C108.669 34.0153 108.55 33.9227 108.431 33.8303C107.866 33.3918 107.313 32.9715 106.767 32.5538C106.221 32.1375 105.67 31.7155 105.122 31.2977C104.576 30.8811 104.021 30.459 103.456 30.0352C102.89 29.6102 102.322 29.1893 101.745 28.7688C101.177 28.3541 100.6 27.9404 100.01 27.5253C99.6819 27.2945 99.3288 27.053 98.992 26.8278C98.6532 26.6012 98.3065 26.3749 97.9769 26.1627C97.8418 26.0758 97.7069 25.9897 97.5726 25.9043C97.3768 25.7799 97.182 25.6571 96.9898 25.5363C96.6654 25.3324 96.3475 25.1338 96.0383 24.9397C95.7292 24.7456 95.429 24.5558 95.1396 24.3693C94.8411 24.1768 94.5906 24.0121 94.3038 23.8176C93.5962 23.3591 93.1414 23.0966 92.6343 22.8062C92.5344 22.749 92.4321 22.6906 92.3255 22.6297C91.714 22.2847 91.0938 21.9496 90.4738 21.6267C89.8604 21.3071 89.2517 21.0015 88.6264 20.6987C88.0074 20.399 87.3764 20.1047 86.7409 19.8186C86.0985 19.5294 85.4862 19.2639 84.8503 18.9976C84.2176 18.7327 83.565 18.4697 82.9321 18.2237C82.5664 18.0814 82.1751 17.934 81.8095 17.7993C81.5468 17.7025 81.2963 17.6121 81.0454 17.522C80.9432 17.4854 80.8416 17.4491 80.7408 17.4131C80.3934 17.2892 80.0546 17.1692 79.7271 17.0516C79.3994 16.9341 79.082 16.8188 78.7718 16.7028C78.461 16.5867 78.1573 16.4698 77.8538 16.3495C77.5403 16.225 77.2747 16.1169 76.9482 15.9796C76.7371 15.8907 76.5297 15.8035 76.3224 15.7169C76.012 15.5871 75.7028 15.4585 75.3902 15.3292C75.078 15.2 74.7686 15.0725 74.4566 14.9444C74.3564 14.9032 74.2503 14.8597 74.1494 14.8184C73.8379 14.6906 73.529 14.5642 73.2195 14.4374C72.9111 14.311 72.6015 14.1844 72.2988 14.0596C71.9998 13.9359 71.705 13.8136 71.4037 13.6879C70.8916 13.4743 70.3913 13.2917 69.9499 13.1369C69.503 12.9805 69.0817 12.8402 68.6698 12.7047C68.5927 12.6794 68.5155 12.654 68.4382 12.6287C68.1053 12.5199 67.7767 12.4136 67.4521 12.3084C67.0627 12.182 66.6806 12.0576 66.2955 11.9316C65.9138 11.8068 65.5272 11.6798 65.1456 11.5532C64.7604 11.4253 64.391 11.302 63.992 11.1674C63.5973 11.0345 63.1962 10.8947 62.7544 10.7426C62.3104 10.5901 61.8705 10.4395 61.4114 10.289C60.9546 10.1389 60.4872 9.99121 60.0198 9.84989C59.5514 9.70822 59.0781 9.57117 58.6082 9.4406C58.1359 9.3093 57.6633 9.1834 57.1902 9.06185C56.7214 8.94135 56.2526 8.82537 55.8028 8.71802C55.0771 8.54485 54.3496 8.37658 53.6157 8.21078C52.8864 8.04609 52.1471 7.88318 51.4101 7.72438C50.6926 7.57006 49.9698 7.41785 49.2436 7.26815C48.5171 7.11837 47.7861 6.97073 47.0517 6.82521C46.8893 6.79303 46.7266 6.76093 46.5638 6.72892C45.9873 6.61559 45.4203 6.50596 44.8634 6.39969C44.8596 6.399 44.8557 6.39832 44.8519 6.39763C44.1317 6.26007 43.4205 6.12652 42.6983 5.99173C42.4332 5.94217 42.1779 5.89471 41.9181 5.84618C41.658 5.79759 41.4023 5.74972 41.1438 5.70111C40.8849 5.65244 40.6272 5.60366 40.373 5.5551C40.1177 5.50628 39.8596 5.45652 39.6169 5.40861C39.3914 5.36421 39.1674 5.31886 38.9222 5.26965C38.8998 5.26515 38.8774 5.26065 38.855 5.25616C38.5866 5.20232 38.2802 5.14311 37.9941 5.09205C37.236 4.95731 36.4934 4.82507 35.7334 4.68932C34.9753 4.55391 34.2026 4.41572 33.4437 4.28101C33.1505 4.22897 32.8553 4.17656 32.5593 4.12452C32.0989 4.04357 31.6351 3.96282 31.1683 3.88289C30.4001 3.75135 29.6256 3.62265 28.841 3.49792C28.0604 3.37381 27.262 3.25266 26.5004 3.14337C25.7308 3.03278 24.9497 2.92639 24.1741 2.82637C23.3098 2.71501 22.4452 2.60786 21.5715 2.50247C20.6857 2.39537 19.8553 2.29952 18.9962 2.20201C18.139 2.10484 17.2791 2.00989 16.4139 1.91673C15.5512 1.82389 14.6685 1.73088 13.8114 1.64365C13.3023 1.59195 12.7916 1.54096 12.279 1.49046C12.0108 1.44059 11.7532 1.39258 11.505 1.34667C9.67633 1.00853 8.3062 0.763258 6.555 0.498142C6.3884 0.470116 6.25328 0.442738 6.08871 0.409567C6.05731 0.40324 6.02398 0.396675 5.98999 0.389871C5.77476 0.346792 5.52719 0.299057 5.1803 0.246054C4.48819 0.140348 3.42006 0.0172899 2.00958 7.30681e-05C1.65323 -0.00426879 1.40941 0.135297 1.46604 0.311749C1.50584 0.435535 1.68293 0.544614 1.90756 0.600228C1.48394 0.57111 1.0603 0.543247 0.636719 0.515568C0.467647 0.504548 0.305199 0.525028 0.185836 0.573529C0.0665338 0.622057 3.4622e-05 0.694331 0.000611524 0.775362C0.00118254 0.856416 0.0690848 0.940131 0.189158 1.00918C0.309196 1.07816 0.471356 1.12668 0.640215 1.1448C1.0882 1.19272 1.53347 1.24064 1.97751 1.28986C2.42192 1.33909 2.86291 1.38937 3.30392 1.44076C3.74481 1.49212 4.18426 1.54457 4.62381 1.59801C5.06163 1.65128 5.49909 1.70532 5.93605 1.76031C6.37747 1.8158 6.80035 1.87011 7.24698 1.92784C7.51576 1.96261 7.7873 1.99785 8.05337 2.03283C8.15254 2.04581 8.24922 2.05874 8.34592 2.07151C8.42496 2.08195 8.50437 2.09235 8.58606 2.10313C9.44535 2.21708 10.308 2.33379 11.158 2.45114C12.012 2.56897 12.8604 2.68815 13.7039 2.80881C14.5571 2.93075 15.4306 3.05776 16.2864 3.18439C17.1441 3.3113 17.9964 3.43963 18.8451 3.56982C19.6951 3.70025 20.5191 3.82901 21.3934 3.96802C22.0599 4.0741 22.7174 4.18077 23.3728 4.28898C23.629 4.34387 23.8822 4.3976 24.1316 4.45039C24.8576 4.60404 25.5785 4.77207 26.2847 4.93892C25.0166 4.71246 23.9906 4.51267 23.0082 4.32371C22.8764 4.29838 22.7455 4.2732 22.6147 4.24825C21.2728 3.99266 19.992 3.75853 18.2679 3.52579C13.2931 2.85779 10.472 2.5296 8.65469 2.33966C6.83492 2.15219 6.08514 2.12218 5.35625 2.15291C4.33269 2.19701 2.3657 2.05995 1.3726 1.94889C1.01253 1.90841 0.704958 2.01515 0.686856 2.18697C0.668823 2.35885 0.946863 2.53092 1.30668 2.57137C2.35464 2.68855 4.48016 2.84294 5.69559 2.79078C6.23911 2.76784 6.84674 2.78288 8.63383 2.96697C10.4212 3.15395 13.2144 3.47882 18.1928 4.14732C19.8541 4.37163 21.0815 4.59544 22.4093 4.84802C22.5387 4.87269 22.6689 4.89779 22.8001 4.92299C22.8009 4.92312 22.8017 4.92324 22.8025 4.92336C24.0124 5.15595 25.3175 5.41036 27.0692 5.71256C31.2007 6.41472 36.6468 7.49778 37.9277 7.80535C38.1786 7.86424 38.4203 7.92319 38.6748 7.98544C39.6396 8.22368 40.8867 8.52146 43.5643 9.10654C44.155 9.23605 44.8194 9.37793 45.5909 9.54201C46.7219 9.86475 47.8073 10.1789 48.7473 10.4338C49.5617 10.6545 50.2829 10.8925 51.0056 11.141C51.2145 11.2127 51.4241 11.286 51.6329 11.3592C52.1363 11.5358 52.6371 11.7133 53.1251 11.8758C53.5142 12.0054 53.9186 12.147 54.3438 12.2974C55.869 12.84 57.7801 13.5227 60.2249 14.1864C62.8385 14.8967 65.0828 15.5172 67.0013 16.0703C65.5702 15.6732 64.498 15.41 63.5705 15.1875C63.3967 15.1459 63.2298 15.1063 63.0688 15.0684C61.9322 14.8006 61.0892 14.6091 60.2331 14.3751C56.066 13.2485 54.4909 12.8351 52.7456 12.2575C52.2836 12.1066 51.7736 11.9319 51.2205 11.745C50.1087 11.37 48.8954 10.9619 47.5217 10.5871C46.2493 10.2394 44.8034 9.82955 43.3189 9.41747C43.3183 9.41734 43.3177 9.41722 43.3171 9.4171C43.0241 9.33596 42.7268 9.25413 42.426 9.17202C40.5889 8.6705 38.6305 8.16185 36.7506 7.73374C36.5478 7.68763 36.3049 7.6309 36.0253 7.56593C34.3927 7.18738 31.5947 6.54686 28.053 6.07203C27.268 5.96656 26.4673 5.88353 25.5576 5.79228C25.2798 5.76438 24.9907 5.73574 24.6883 5.70525C23.3901 5.5748 21.7641 5.4026 19.6615 5.14401C17.9391 4.93239 15.8115 4.653 13.5817 4.37411C12.5099 4.24018 11.4107 4.10577 10.3193 3.97739C6.9857 3.58528 4.01937 3.28277 0.961999 2.9843C0.961379 2.98423 0.960758 2.98416 0.960137 2.98408C0.599649 2.94895 0.300392 3.06107 0.293388 3.23409C0.286496 3.40704 0.573611 3.57566 0.933541 3.61081C3.98929 3.90922 6.94568 4.21066 10.2643 4.60108C11.338 4.72741 12.4276 4.86065 13.4941 4.99391C15.7325 5.27379 17.8873 5.55685 19.6233 5.77028C21.7628 6.03362 23.4129 6.20848 24.7271 6.34078C25.0452 6.37292 25.3437 6.40272 25.6265 6.4312C26.5223 6.5212 27.2797 6.60001 28.021 6.69963C31.4461 7.15935 34.1301 7.77272 35.7687 8.15168C36.0558 8.21824 36.3075 8.27683 36.5217 8.32549C38.3655 8.74478 40.2827 9.24221 42.1194 9.74239C42.4165 9.82332 42.7112 9.90417 43.0028 9.98475C43.0034 9.98497 43.0039 9.98519 43.0045 9.98541C44.4904 10.3968 45.9496 10.8103 47.2471 11.164C48.5649 11.5233 49.6717 11.8938 50.7245 12.25C51.2973 12.443 51.8454 12.6298 52.3857 12.8059C54.2369 13.4164 55.8915 13.8494 60.0619 14.9769ZM2.56161 0.646243C3.43445 0.66964 4.13585 0.736602 4.65492 0.804114C4.21145 0.768878 3.76776 0.734877 3.32249 0.701717C3.06906 0.682838 2.81552 0.664352 2.56161 0.646243ZM45.824 8.95196C45.6874 8.91291 45.5496 8.87359 45.4111 8.83418C45.7982 8.9198 46.1842 9.00561 46.5681 9.09177C47.0396 9.19757 47.5091 9.30378 47.9764 9.41064C47.2312 9.25089 46.5043 9.09666 45.824 8.95196ZM60.3943 13.5838C58.0864 12.9573 56.313 12.3237 54.8024 11.7841C54.3596 11.627 53.928 11.4755 53.4976 11.3318C53.3191 11.2722 53.1409 11.2111 52.961 11.1487C54.0367 11.3931 55.0144 11.6213 55.8095 11.8102C58.2203 12.3849 59.6001 12.7015 60.7896 12.9748C61.1363 13.0549 61.459 13.13 61.8058 13.2139C62.0835 13.3125 62.3711 13.4144 62.6615 13.5151C63.0681 13.6563 63.5062 13.8068 63.9218 13.9484C64.3389 14.0907 64.7614 14.2336 65.1751 14.3724C65.5921 14.5123 66.0041 14.6494 66.4127 14.785C66.7932 14.9115 67.1968 15.0446 67.5731 15.1703C67.5947 15.1776 67.6164 15.1848 67.6381 15.1921C68.0381 15.3259 68.4254 15.4569 68.7784 15.582C69.1378 15.7094 69.4337 15.8204 69.6926 15.9282C70.016 16.0628 70.3469 16.1998 70.6731 16.3342C71.0012 16.4693 71.319 16.6002 71.6507 16.7352C71.9831 16.8706 72.3111 17.004 72.639 17.1374C72.745 17.1805 72.8557 17.2256 72.9606 17.2682C73.0089 17.2879 73.0572 17.3077 73.1053 17.3273C72.457 17.1052 71.7585 16.8719 71.0698 16.6488C70.0696 16.3247 68.9867 15.9964 67.775 15.6429C65.701 15.0386 63.339 14.3848 60.3943 13.5838ZM82.7849 21.103C82.5114 20.9848 82.111 20.8098 81.5898 20.5869C81.4665 20.5341 81.3364 20.4785 81.1997 20.4205C81.2029 20.4217 81.2063 20.4231 81.2096 20.4243C81.556 20.5495 81.8742 20.6667 82.2155 20.7962C82.8237 21.027 83.409 21.2567 83.9944 21.4943C84.5829 21.7334 85.1579 21.9746 85.7527 22.2333C86.3427 22.4898 86.9282 22.7532 87.5023 23.0201C88.082 23.2897 88.6473 23.5612 89.2111 23.8421C89.3901 23.9312 89.5771 24.0254 89.7592 24.1182C89.3385 23.9254 88.9179 23.7324 88.4663 23.5285C88.1062 23.3659 87.7286 23.1975 87.3286 23.0236C87.1755 22.9571 86.9892 22.8783 86.771 22.7868C85.9022 22.4228 84.5479 21.8656 82.7849 21.103ZM94.1674 26.6461C94.2947 26.7221 94.4212 26.7975 94.5462 26.8718C94.9022 27.0831 95.2485 27.2874 95.5865 27.4882C95.8239 27.6293 96.0579 27.7687 96.2875 27.907C96.3844 27.9653 96.481 28.0238 96.5765 28.0818C96.7365 28.179 96.8942 28.2758 97.0514 28.3729C95.9363 27.7217 94.8288 27.098 93.6561 26.4545C93.6406 26.446 93.6251 26.4374 93.6095 26.4288C93.8002 26.5025 93.986 26.5749 94.1674 26.6461Z" fill="black"/>
</svg>
