<svg width="172" height="496" viewBox="0 0 172 496" fill="none" xmlns="http://www.w3.org/2000/svg">
<path d="M81.0995 332.109V441.06H57.2773V332.109H81.0995Z" fill="#F6DDD6"/>
<path d="M127.693 346.823V435.105H103.871V346.823H127.693Z" fill="#F6DDD6"/>
<path d="M88.2707 405.824C86.67 403.225 83.069 403.848 81.4688 404.486L81.8688 406.013C82.5355 406.143 84.2293 406.399 84.8697 407.162C85.6699 408.119 85.0697 410.028 85.6698 410.41C86.27 410.795 87.8706 410.41 88.6707 410.41C89.4709 410.41 90.271 409.075 88.2707 405.824Z" fill="black"/>
<path d="M84.4043 404.81L84.4336 404.824L84.7637 405.006L84.8369 404.938L84.9248 404.853C84.9774 404.8 85.0565 404.788 85.1221 404.818L85.1494 404.833L86.9014 406.059C86.9805 406.115 86.9997 406.224 86.9443 406.303C86.895 406.374 86.803 406.397 86.7275 406.362L86.7002 406.346L86.0889 405.918L86.0742 405.976C85.9959 406.272 85.8941 406.559 85.7871 406.735L85.7725 406.756C85.8228 406.798 85.8964 406.849 85.9902 406.907L86.1123 406.978L86.2676 407.064L86.4512 407.16V406.728C86.4513 406.596 86.5896 406.515 86.7021 406.571L86.7275 406.585L87.9541 407.461C88.0839 407.554 88.0303 407.752 87.8828 407.777L87.8516 407.779L87.1709 407.78C87.2859 407.792 87.3664 407.922 87.3076 408.034L87.291 408.059L87.0244 408.416L87.2168 408.493C87.2964 408.525 87.3398 408.609 87.3232 408.69L87.3145 408.72C87.2825 408.8 87.1976 408.843 87.1162 408.827L87.0859 408.818L86.8066 408.706L86.7656 408.76C86.6709 408.886 86.477 408.831 86.4531 408.685L86.4512 408.655V408.563L86.2109 408.467C86.0746 408.413 86.0648 408.23 86.1816 408.157L86.2109 408.142L86.4512 408.045V407.551L86.3291 407.491C86.2355 407.444 86.1448 407.396 86.0605 407.35L85.9395 407.283C85.7693 407.186 85.6368 407.1 85.5479 407.025C85.3851 406.888 85.3072 406.748 85.4512 406.604C85.518 406.537 85.6199 406.282 85.7002 406.012L85.7207 405.939L84.8096 405.433L84.7627 405.471C84.6171 405.584 84.4871 405.659 84.3857 405.674L84.3486 405.677C84.1325 405.677 84.0792 405.507 84.0996 405.289C84.11 405.177 84.143 405.04 84.1826 404.921C84.2138 404.828 84.3146 404.78 84.4043 404.81ZM86.8008 407.907L87.0859 407.792C87.0956 407.789 87.1057 407.786 87.1152 407.784L87.1387 407.78H86.9766L86.9043 407.765L86.8008 407.717V407.907ZM86.8008 407.33L86.9258 407.388L87.0137 407.428H87.3057L86.8008 407.068V407.33Z" fill="#EACE56" fill-opacity="0.78"/>
<path d="M17.3615 452.971C16.9354 451.92 17.0088 449.643 19.6361 448.592C22.2634 447.541 53.267 452.971 53.267 452.971C61.2485 452.32 82.6845 441.859 90.577 446.665C93.0738 448.186 92.2274 453.003 91.3057 457.511C89.8308 459.014 74.9105 460.328 70.0728 459.2C70.0728 456.573 69.6962 454.88 69.6962 454.88C69.6962 454.88 66.7654 456.772 63.602 457.511C57.1493 459.014 55.7372 460.678 35.7511 460.678C19.7214 459.175 18.5685 455.949 17.3615 452.971Z" fill="#383129"/>
<path d="M34.0107 457.079C34.7046 457.138 35.4005 457.171 36.0967 457.176L36.0947 457.526C35.3893 457.521 34.6844 457.489 33.9814 457.428L34.0107 457.079ZM40.2979 457.462C39.6022 457.484 38.901 457.5 38.1943 457.51L38.1885 457.161C38.8934 457.15 39.5932 457.134 40.2871 457.112L40.2979 457.462ZM44.5049 457.259C43.8115 457.305 43.1112 457.345 42.4043 457.38L42.3867 457.03C43.0916 456.996 43.7901 456.956 44.4814 456.91L44.5049 457.259ZM29.8838 456.406C30.56 456.568 31.2433 456.706 31.9316 456.818L31.876 457.164C31.1789 457.05 30.4864 456.911 29.8018 456.747L29.8838 456.406ZM48.7002 456.899C48.0102 456.971 47.3108 457.038 46.6035 457.098L46.5742 456.749C47.2791 456.689 47.9755 456.623 48.6631 456.551L48.7002 456.899ZM52.8799 456.375C52.1962 456.476 51.5007 456.57 50.7939 456.659L50.75 456.311C51.4544 456.223 52.1478 456.129 52.8291 456.028L52.8799 456.375ZM25.8984 455.138C26.5385 455.394 27.1947 455.631 27.8643 455.844L27.7588 456.177C27.0809 455.962 26.4156 455.723 25.7676 455.464L25.8984 455.138ZM57.0303 455.663C56.3568 455.796 55.6657 455.923 54.959 456.045L54.8994 455.7C55.6033 455.579 56.2912 455.452 56.9619 455.319L57.0303 455.663ZM61.1396 454.722C60.4849 454.895 59.8017 455.062 59.0928 455.223L59.0146 454.883C59.72 454.722 60.3997 454.555 61.0508 454.384L61.1396 454.722ZM22.1533 453.302C22.7282 453.646 23.3433 453.979 23.9893 454.295L23.835 454.61C23.1802 454.29 22.5569 453.952 21.9736 453.603L22.1533 453.302ZM65.1875 453.559L63.1699 454.15L63.0713 453.814L65.0879 453.222L65.1875 453.559ZM69.2168 452.356L67.2031 452.962L67.1025 452.627C67.2652 452.578 67.4251 452.53 67.582 452.483L69.1143 452.021L69.2168 452.356ZM18.8945 450.757C19.2481 451.174 19.7712 451.651 20.4229 452.143L20.2109 452.424C19.5401 451.917 18.9988 451.423 18.627 450.983L18.8945 450.757ZM75.4023 451.838C76.1176 451.86 76.8206 451.873 77.5 451.878L77.4971 452.228C76.8147 452.224 76.1095 452.211 75.3916 452.188L75.4023 451.838ZM81.7148 452.096C81.0749 452.15 80.3694 452.187 79.6064 452.208L79.5967 451.857C80.3534 451.836 81.0525 451.8 81.6855 451.748L81.7148 452.096ZM72.7568 451.721L73.3066 451.752L73.2881 452.101C72.7299 452.072 72.1874 452.04 71.6807 452.005L71.1865 451.969L71.2129 451.619C71.6917 451.655 72.2133 451.69 72.7568 451.721ZM85.8887 451.447C85.398 451.549 84.8485 451.652 84.209 451.761L83.8145 451.828L83.7568 451.482C84.3627 451.382 84.8911 451.288 85.3633 451.196L85.8174 451.104L85.8887 451.447ZM89.8789 449.969C89.3434 450.351 88.7228 450.653 87.9434 450.914L87.832 450.581C88.5803 450.331 89.1704 450.044 89.6758 449.684L89.8789 449.969Z" fill="#67513B"/>
<path d="M63.953 403.751C65.6609 403.751 75.6252 408.982 80.7953 404.925C81.3635 404.48 82.5199 404.844 82.521 405.566C82.5304 412.537 82.6334 424.659 83.6774 429.465C84.7834 434.559 85.7173 433.83 86.823 438.56C87.5888 441.835 90.0687 449.476 86.823 449.476H72.0203C68.5181 449.476 63.788 453.543 52.1254 454.685C32.7654 456.584 28.0345 453.984 24.169 452.758C15.3736 449.97 19.8371 443.587 24.169 441.548C30.5149 438.56 39.6096 436.317 44.2357 433.841C47.8381 431.914 49.0751 431.315 50.9244 429.286C53.9737 425.944 56.6523 408.361 57.0663 403.769C57.0951 403.45 57.5438 403.285 57.8167 403.453C59.6206 404.564 62.2599 403.751 63.953 403.751Z" fill="#2D2B30"/>
<path d="M25.2344 447.088C25.4303 446.44 26.1146 446.073 26.7629 446.269L27.2678 446.42C29.4053 447.051 30.9137 447.39 32.8304 447.596C35.6373 447.898 38.6128 447.758 41.9138 447.066C42.5766 446.927 43.2265 447.352 43.3655 448.015C43.5044 448.677 43.0798 449.327 42.417 449.466C38.862 450.212 35.6282 450.363 32.5682 450.034C30.3204 449.792 28.5999 449.386 26.0534 448.617C25.4051 448.421 25.0385 447.736 25.2344 447.088Z" fill="#59555F"/>
<path d="M48.8887 440.359C52.3187 437.207 64.8285 430.162 63.9527 403.75C65.4391 403.75 69.0324 405.677 74.4624 406.028C80.1647 405.856 80.0711 405.341 81.5814 404.486C81.6224 404.462 81.6697 404.427 81.7085 404.402C84.0771 402.808 83.0118 428.277 84.7115 432.789C86.0838 436.432 88.6562 441.897 88.6562 448.554C87.4556 450.656 75.6216 449.605 71.8483 449.605C70.0834 440.184 56.2455 447.366 53.2677 446.49C50.654 445.723 48.8887 444.213 48.8887 440.359Z" fill="#1D1D20"/>
<path d="M53.0928 429.009C57.0164 425.926 58.5228 410.932 58.698 403.75C57.9973 403.575 57.8222 403.084 57.2967 403.26C56.7712 403.435 56.7712 405.537 56.596 407.288C56.4044 409.208 55.0195 415.171 54.3189 419.199C53.6182 423.228 52.9176 425.68 50.2902 429.009C48.1882 431.671 39.9556 434.404 37.3281 436.681C37.6199 436.621 38.3791 436.225 39.0798 436.365C39.9556 436.541 39.7804 436.716 40.8314 436.716C41.8824 436.716 48.1882 432.862 53.0928 429.009Z" fill="#1D1D20"/>
<path d="M56.9913 404.875C57.1382 404.435 57.6011 404.189 58.0439 404.305L58.0991 404.321L65.456 406.774C66.253 407.039 66.2483 408.154 65.4788 408.428L65.4196 408.447L60.1918 409.94L64.3534 412.08C65.0782 412.453 64.941 413.515 64.1706 413.708L64.1131 413.72L59.5724 414.565L64.2749 416.424C65.0208 416.719 65.0048 417.767 64.278 418.052L64.2192 418.073L58.0958 420.027L63.4536 422.578C64.2279 422.947 64.061 424.081 63.2398 424.23L63.1814 424.239L56.5911 425.029L61.1503 428.449C61.8083 428.942 61.4822 429.977 60.6814 430.024L60.6248 430.025H53.6736L58.4327 434.652C59.0513 435.254 58.519 436.28 57.6884 436.146L57.635 436.136L48.6542 434.171L52.2278 439.148C52.7482 439.873 51.9804 440.808 51.1799 440.468L51.1308 440.446L42.1975 436.067C41.7632 435.854 41.5837 435.329 41.7966 434.895C42.0007 434.478 42.491 434.296 42.9138 434.469L42.9685 434.494L48.7719 437.339L45.9003 433.339C45.4428 432.701 45.9889 431.841 46.7458 431.962L46.7989 431.972L55.0108 433.768L50.9058 429.777C50.3555 429.242 50.7122 428.319 51.4609 428.275L51.5163 428.274H57.9973L53.7934 425.121C53.1774 424.659 53.4175 423.694 54.1567 423.559L54.2146 423.55L59.97 422.86L55.3437 420.657C54.6463 420.324 54.6944 419.329 55.3941 419.053L55.454 419.031L61.3482 417.15L56.0989 415.075C55.3004 414.759 55.3916 413.615 56.2016 413.412L56.2607 413.4L61.2743 412.467L57.4216 410.485C56.7342 410.132 56.8134 409.137 57.5227 408.883L57.5816 408.864L62.2167 407.54L57.5452 405.983C57.1047 405.836 56.8585 405.373 56.9749 404.93L56.9913 404.875Z" fill="black"/>
<path d="M96.8116 405.841C98.421 403.224 102.042 403.854 103.651 404.496L103.249 406.03C102.579 406.16 100.875 406.415 100.231 407.186C99.4268 408.146 100.03 410.069 99.4268 410.455C98.8231 410.836 97.2138 410.455 96.4091 410.455C95.6044 410.455 94.7997 409.106 96.8116 405.841Z" fill="black"/>
<path d="M100.67 404.836C100.766 404.783 100.886 404.83 100.921 404.934C100.961 405.056 100.993 405.192 101.004 405.304C101.024 405.523 100.971 405.693 100.755 405.693C100.648 405.693 100.499 405.61 100.333 405.481L100.291 405.448L99.374 405.958L99.376 405.965C99.4534 406.239 99.5555 406.51 99.6279 406.607L99.6455 406.627C99.7899 406.771 99.7123 406.911 99.5488 407.049C99.4594 407.124 99.3261 407.211 99.1553 407.309C99.0375 407.376 98.9018 407.449 98.7598 407.521L98.6406 407.579V408.078L98.8828 408.175C99.0189 408.23 99.028 408.413 98.9111 408.486L98.8818 408.5L98.6406 408.596V408.688C98.6406 408.845 98.4526 408.918 98.3457 408.817L98.3252 408.793L98.2832 408.739L98.001 408.851C97.9212 408.882 97.8321 408.852 97.7881 408.781L97.7734 408.753C97.7417 408.673 97.7733 408.583 97.8438 408.539L97.8721 408.526L98.0654 408.448L97.7959 408.089C97.7086 407.972 97.7937 407.822 97.918 407.809H97.2324C97.0728 407.809 97.0007 407.617 97.1064 407.511L97.1299 407.491L98.3633 406.609C98.4708 406.532 98.6171 406.597 98.6377 406.721L98.6406 406.751V407.188L98.7354 407.139C98.7792 407.116 98.8222 407.093 98.8633 407.071L98.9814 407.005L99.1045 406.932C99.1799 406.886 99.2426 406.843 99.29 406.807L99.3242 406.78L99.3096 406.758C99.2021 406.582 99.1 406.295 99.0205 405.996L99.0049 405.934L98.3896 406.365C98.3193 406.415 98.225 406.405 98.166 406.347L98.1455 406.323C98.0962 406.252 98.1058 406.158 98.1641 406.099L98.1885 406.078L99.9502 404.845C100.02 404.796 100.115 404.805 100.175 404.865C100.216 404.907 100.261 404.95 100.307 404.992L100.337 405.021L100.67 404.836ZM98.1836 407.795L98.1123 407.811H97.9473L97.9727 407.815L98.002 407.823L98.29 407.94V407.747L98.1836 407.795ZM97.7773 407.46H98.0752L98.1787 407.413L98.29 407.362V407.093L97.7773 407.46Z" fill="#EACE56" fill-opacity="0.78"/>
<path d="M168.117 453.252C168.545 452.194 168.471 449.906 165.829 448.848C163.188 447.79 132.01 453.252 132.01 453.252C123.984 452.597 102.428 442.076 94.4919 446.911C91.9811 448.438 92.8321 453.283 93.759 457.816C95.242 459.326 110.246 460.651 115.111 459.516C115.111 456.871 115.489 455.171 115.489 455.171C115.489 455.171 118.436 457.074 121.618 457.816C128.106 459.326 129.527 461.001 149.624 461.001C165.744 459.491 166.903 456.247 168.117 453.252Z" fill="#383129"/>
<path d="M151.499 457.72C150.796 457.783 150.091 457.819 149.386 457.827L149.382 457.476C150.078 457.469 150.774 457.434 151.468 457.372L151.499 457.72ZM145.197 457.422C145.891 457.443 146.591 457.458 147.296 457.468L147.291 457.818C146.584 457.808 145.883 457.792 145.187 457.771L145.197 457.422ZM141.003 457.221C141.695 457.267 142.394 457.306 143.099 457.34L143.082 457.689C142.375 457.656 141.674 457.616 140.98 457.571L141.003 457.221ZM155.675 457.031C154.991 457.197 154.3 457.338 153.604 457.454L153.546 457.108C154.234 456.994 154.917 456.854 155.593 456.69L155.675 457.031ZM136.821 456.871C137.509 456.942 138.206 457.007 138.911 457.066L138.882 457.415C138.175 457.356 137.475 457.291 136.785 457.219L136.821 456.871ZM132.654 456.354C133.336 456.453 134.03 456.547 134.734 456.634L134.691 456.981C133.985 456.894 133.289 456.8 132.604 456.701L132.654 456.354ZM159.707 455.74C159.06 456 158.395 456.24 157.718 456.457L157.61 456.123C158.28 455.908 158.936 455.672 159.576 455.415L159.707 455.74ZM128.52 455.653C129.191 455.784 129.879 455.909 130.583 456.028L130.525 456.374C129.819 456.254 129.127 456.128 128.452 455.997L128.52 455.653ZM124.428 454.733C125.081 454.902 125.761 455.066 126.466 455.224L126.39 455.566C125.681 455.407 124.997 455.243 124.341 455.073L124.428 454.733ZM163.499 453.871C162.916 454.22 162.292 454.558 161.638 454.88L161.483 454.565C162.129 454.248 162.744 453.914 163.318 453.57L163.499 453.871ZM120.782 453.697L122.405 454.172L122.308 454.508C122.169 454.467 122.031 454.427 121.895 454.387L120.289 453.918L120.389 453.582C120.519 453.62 120.65 453.658 120.782 453.697ZM118.373 452.986L118.273 453.322L116.26 452.718L116.36 452.383L118.373 452.986ZM166.845 451.252C166.473 451.691 165.931 452.184 165.261 452.691L165.05 452.412C165.701 451.919 166.223 451.443 166.577 451.025L166.845 451.252ZM110.098 452.451C109.383 452.476 108.677 452.492 107.992 452.5L107.988 452.149C108.67 452.142 109.373 452.125 110.085 452.1L110.098 452.451ZM103.8 452.049C104.439 452.094 105.139 452.124 105.891 452.139L105.884 452.49C105.126 452.474 104.42 452.444 103.774 452.398L103.8 452.049ZM114.303 452.215C113.816 452.254 113.272 452.291 112.699 452.326L112.201 452.355L112.182 452.006C112.684 451.978 113.169 451.947 113.622 451.915L114.274 451.865L114.303 452.215ZM99.6621 451.449C100.151 451.545 100.698 451.643 101.334 451.749L101.727 451.812L101.671 452.159C101.062 452.061 100.531 451.969 100.055 451.881L99.5947 451.793L99.6621 451.449ZM95.7383 450.169C96.2553 450.482 96.8644 450.738 97.6338 450.968L97.5342 451.303C96.7377 451.066 96.1014 450.798 95.5566 450.468L95.7383 450.169Z" fill="#67513B"/>
<path d="M121.266 403.755C119.548 403.755 109.514 409.024 104.318 404.925C103.751 404.48 102.595 404.844 102.594 405.566C102.585 412.576 102.482 424.778 101.431 429.616C100.319 434.737 99.3804 434.005 98.2681 438.759C97.4981 442.052 95.0045 449.735 98.2681 449.735H113.154C116.676 449.735 121.432 453.827 133.16 454.976C152.628 456.882 157.385 454.272 161.273 453.038C170.117 450.232 165.629 443.814 161.273 441.765C154.891 438.759 145.746 436.503 141.094 434.016C137.471 432.078 136.227 431.476 134.367 429.434C131.3 426.07 128.606 408.379 128.191 403.769C128.162 403.45 127.714 403.285 127.441 403.453C125.627 404.574 122.97 403.755 121.266 403.755Z" fill="#2D2B30"/>
<path d="M158.664 446.518C159.312 446.322 159.997 446.689 160.193 447.337C160.389 447.985 160.023 448.669 159.374 448.866L158.839 449.026C156.569 449.697 154.923 450.066 152.824 450.292C149.748 450.623 146.497 450.471 142.922 449.722C142.26 449.584 141.835 448.934 141.974 448.271C142.112 447.608 142.762 447.183 143.425 447.322C146.746 448.018 149.739 448.158 152.562 447.854C154.639 447.63 156.243 447.251 158.664 446.518Z" fill="#59555F"/>
<path d="M136.414 440.569C132.965 437.399 120.385 430.315 121.266 403.753C119.771 403.753 116.158 405.691 110.697 406.045C104.962 405.869 105.057 405.354 103.538 404.496C103.497 404.472 103.45 404.437 103.411 404.409C101.029 402.804 102.1 428.416 100.391 432.957C99.011 436.621 96.4238 442.118 96.4238 448.809C97.631 450.925 109.532 449.867 113.326 449.867C115.101 440.394 129.016 447.614 132.01 446.735C134.639 445.961 136.414 444.444 136.414 440.569Z" fill="#1D1D20"/>
<path d="M132.187 429.155C128.242 426.054 126.727 410.976 126.551 403.753C127.255 403.578 127.431 403.087 127.96 403.262C128.488 403.437 128.488 405.55 128.664 407.312C128.857 409.242 130.25 415.24 130.954 419.29C131.659 423.343 132.363 425.809 135.006 429.155C137.119 431.831 145.398 434.578 148.04 436.869C147.747 436.809 146.983 436.41 146.279 436.554C145.398 436.729 145.574 436.904 144.517 436.904C143.46 436.904 137.119 433.029 132.187 429.155Z" fill="#1D1D20"/>
<path d="M127.153 404.335C127.612 404.182 128.108 404.43 128.261 404.889C128.408 405.329 128.185 405.804 127.761 405.977L127.707 405.997L122.995 407.567L127.671 408.902C128.414 409.115 128.531 410.106 127.885 410.493L127.831 410.523L123.944 412.522L128.999 413.462C129.844 413.619 129.973 414.76 129.217 415.114L129.161 415.138L123.87 417.23L129.81 419.126C130.546 419.36 130.633 420.354 129.977 420.722L129.92 420.751L125.253 422.974L131.057 423.669C131.822 423.761 132.097 424.716 131.524 425.203L131.479 425.239L127.238 428.42H133.771C134.539 428.42 134.927 429.331 134.42 429.884L134.382 429.924L130.241 433.95L138.516 432.14C139.283 431.972 139.856 432.815 139.445 433.462L139.415 433.506L136.515 437.545L142.369 434.676C142.785 434.472 143.284 434.628 143.513 435.024L143.541 435.076C143.745 435.493 143.589 435.992 143.193 436.22L143.14 436.248L134.157 440.652C133.355 441.045 132.561 440.132 133.029 439.399L133.06 439.355L136.66 434.339L127.617 436.318C126.775 436.502 126.212 435.492 126.782 434.873L126.82 434.834L131.614 430.172H124.612C123.789 430.172 123.43 429.149 124.042 428.631L124.086 428.596L128.681 425.149L122.042 424.354C121.19 424.252 120.986 423.124 121.717 422.721L121.769 422.694L127.169 420.121L120.999 418.153C120.235 417.909 120.18 416.863 120.886 416.529L120.943 416.504L125.687 414.628L121.105 413.776C120.304 413.627 120.13 412.57 120.813 412.165L120.865 412.136L125.06 409.978L119.792 408.474C118.984 408.244 118.94 407.13 119.697 406.823L119.755 406.801L127.153 404.335Z" fill="black"/>
<path d="M39.0605 395.168L43.2644 270.627L70.5282 266.921L70.765 260.643H84.0724L83.9022 257.49L118.409 265.722L118.45 267.813L127.868 270.627L150.114 395.168L120.98 399.371L121.037 402.349L97.2545 400.51L97.5649 404.626H65.3349L65.5371 399.263L39.0605 395.168Z" fill="black"/>
<path d="M149.414 115.082C149.414 111.751 149.764 97.624 149.414 91.4348L141.181 92.4858L121.037 109.477C117.301 118.118 99.9485 149.028 101.07 153.793C102.471 159.748 125.087 164.561 132.424 169.733C161.501 190.227 155.72 153.092 154.494 145.735C153.268 138.378 149.414 124.891 149.414 115.082Z" fill="#17100F"/>
<path fill-rule="evenodd" clip-rule="evenodd" d="M28.3771 80.2383C28.3771 80.2383 23.3395 137.066 19.269 149.634C15.1986 162.202 5.84856 188.375 7.81008 204.343C9.77159 220.312 10.161 221.929 19.269 216.851C28.3771 211.773 135.225 137.817 135.225 137.817L28.3771 80.2383Z" fill="#17100F"/>
<rect x="73.918" y="122.964" width="28.3763" height="40.6377" rx="14.1882" fill="#C99584"/>
<path d="M65.1602 275.356V254.687H112.804V275.356H65.1602Z" fill="#E5CECB"/>
<path d="M65.1602 258.482V162.201H112.804V258.482C112.804 258.482 96.1026 261.343 88.9823 261.343C81.8619 261.343 65.1602 258.482 65.1602 258.482Z" fill="#E7D6D3"/>
<path d="M87.231 155.895C77.0015 155.895 70.5906 150.99 68.6638 148.538L63.0586 160.274C66.737 164.244 76.7213 172.185 87.231 172.185C97.7408 172.185 107.959 166.93 111.754 164.302L107.9 148.538C105.273 150.99 97.4605 155.895 87.231 155.895Z" fill="#E6CECB"/>
<rect x="22.9219" y="148.13" width="60.5979" height="125.311" rx="30.2989" transform="rotate(8.5 22.9219 148.13)" fill="#67513B"/>
<rect y="250.307" width="37.1832" height="72.9037" rx="18.5915" transform="rotate(-45 0 250.307)" fill="#67513B"/>
<path d="M26.2344 336.012L41.2802 149.144L73.7445 146.786L85.1301 213.173C82.1208 252.894 77.9918 342.332 77.9918 347.146C77.9918 351.961 41.2802 341.028 26.2344 336.012Z" fill="#67513B"/>
<path d="M85.3048 212.824L73.5689 145.912C65.1611 144.686 54.4762 145.153 49.3965 145.912L79.3493 211.773L83.2029 240.85L85.3048 212.824Z" fill="#82684B"/>
<path d="M151.414 333.906L136.451 149.063L102.294 147.662L92.6602 214.049C95.6695 253.77 99.6558 340.225 99.6558 345.04C99.6558 349.855 136.368 338.921 151.414 333.906Z" fill="#67513B"/>
<path d="M92.6602 214.399L102.294 147.137C110.527 145.385 121.153 145.385 125.24 145.385L100.893 217.377L95.9882 271.152L92.6602 214.399Z" fill="#82684B"/>
<rect width="31.7195" height="88.2847" rx="15.8597" transform="matrix(-0.981627 0.190809 0.190809 0.981627 154.867 147.137)" fill="#67513B"/>
<path fill-rule="evenodd" clip-rule="evenodd" d="M135.338 270.461L141.994 220.015L167.695 223.406L161.039 273.853H161.039C160.102 280.95 153.59 285.944 146.493 285.008C139.395 284.071 134.401 277.559 135.337 270.461H135.338Z" fill="#F6DDD6"/>
<rect width="31.7195" height="62.4945" rx="15.8597" transform="matrix(-0.998135 -0.0610485 -0.0610485 0.998135 170.596 210.031)" fill="#67513B"/>
<path d="M74.5308 223.772C76.4421 223.772 77.9914 222.223 77.9914 220.312C77.9914 218.401 76.4421 216.851 74.5308 216.851C72.6196 216.851 71.0703 218.401 71.0703 220.312C71.0703 222.223 72.6196 223.772 74.5308 223.772Z" fill="#C3996F"/>
<path d="M72.4234 270.716C74.3346 270.716 75.884 269.167 75.884 267.255C75.884 265.344 74.3346 263.795 72.4234 263.795C70.5122 263.795 68.9629 265.344 68.9629 267.255C68.9629 269.167 70.5122 270.716 72.4234 270.716Z" fill="#C3996F"/>
<path d="M73.9293 247.244C75.8405 247.244 77.3898 245.695 77.3898 243.784C77.3898 241.873 75.8405 240.323 73.9293 240.323C72.0181 240.323 70.4688 241.873 70.4688 243.784C70.4688 245.695 72.0181 247.244 73.9293 247.244Z" fill="#C3996F"/>
<path d="M69.7164 293.285C71.6276 293.285 73.1769 291.735 73.1769 289.824C73.1769 287.913 71.6276 286.364 69.7164 286.364C67.8052 286.364 66.2559 287.913 66.2559 289.824C66.2559 291.735 67.8052 293.285 69.7164 293.285Z" fill="#C3996F"/>
<path d="M67.609 312.843C69.5202 312.843 71.0695 311.293 71.0695 309.382C71.0695 307.471 69.5202 305.922 67.609 305.922C65.6978 305.922 64.1484 307.471 64.1484 309.382C64.1484 311.293 65.6978 312.843 67.609 312.843Z" fill="#C3996F"/>
<path d="M134.175 102.996C141.914 102.996 148.188 96.0161 148.188 87.4061C148.188 78.7962 141.914 71.8167 134.175 71.8167C126.436 71.8167 120.162 78.7962 120.162 87.4061C120.162 96.0161 126.436 102.996 134.175 102.996Z" fill="#C99584"/>
<path d="M42.388 102.996C34.6488 102.996 28.375 96.0161 28.375 87.4061C28.375 78.7962 34.6488 71.8167 42.388 71.8167C50.127 71.8167 56.401 78.7962 56.401 87.4061C56.401 96.0161 50.127 102.996 42.388 102.996Z" fill="#C99584"/>
<path d="M40.2208 52.5013C39.1884 25.2162 60.9583 2.45239 88.263 2.45239C115.843 2.45239 137.622 25.6536 136.579 53.2145C136.252 61.8707 136.073 69.1361 136.219 72.4323C136.477 78.2463 133.658 95.4017 130.84 110.782C127.742 127.7 114.6 140.895 97.7838 144.506C91.8591 145.779 85.7263 145.794 79.7949 144.554C62.4763 140.935 49.0143 127.193 46.0849 109.744C43.5356 94.5582 40.9589 77.9569 40.8745 72.4323C40.8241 69.1312 40.5627 61.5305 40.2208 52.5013Z" fill="#C99584"/>
<path fill-rule="evenodd" clip-rule="evenodd" d="M69.4805 100.902V107.838C69.4805 118.516 78.1086 127.169 88.748 127.169C99.3905 127.169 108.015 118.516 108.015 107.838V100.902H69.4805Z" fill="#393939"/>
<mask id="mask0_1837_3972" style="mask-type:luminance" maskUnits="userSpaceOnUse" x="69" y="100" width="40" height="28">
<path fill-rule="evenodd" clip-rule="evenodd" d="M69.512 100.895C69.491 101.252 69.4805 101.613 69.4805 101.974V108.73C69.4805 118.916 78.1086 127.169 88.748 127.169C99.3905 127.169 108.015 118.916 108.015 108.73V101.974C108.015 101.613 108.005 101.252 107.984 100.895H69.512Z" fill="white"/>
</mask>
<g mask="url(#mask0_1837_3972)">
<path d="M88.7485 133.368C95.1661 133.368 100.368 130.527 100.368 127.022C100.368 123.518 95.1661 120.677 88.7485 120.677C82.3312 120.677 77.1289 123.518 77.1289 127.022C77.1289 130.527 82.3312 133.368 88.7485 133.368Z" fill="#FF6C6C"/>
</g>
<rect x="69.4805" y="100.902" width="38.5358" height="7.96871" fill="white"/>
<path d="M59.735 50.8269C65.1043 49.9319 71.0351 50.426 76.8952 52.4942C77.9899 52.8806 78.5641 54.0812 78.1777 55.1759C77.7914 56.2706 76.5907 56.8448 75.496 56.4585C70.3116 54.6287 65.1 54.1945 60.4261 54.9736C59.0456 55.2036 57.9064 55.5743 56.983 56.0392C56.4596 56.3027 56.0486 56.5745 55.7392 56.8333C55.6636 56.8966 55.602 56.9524 55.5539 56.9996L55.512 57.0414C55.5123 57.0406 55.5191 57.0322 55.5322 57.0158C54.8069 57.9222 53.4841 58.069 52.5777 57.3436C51.6714 56.6183 51.5246 55.2955 52.25 54.3891C52.4125 54.1861 52.6732 53.9172 53.0421 53.6087C53.5961 53.1453 54.277 52.6949 55.0925 52.2843C56.3953 51.6284 57.9391 51.1261 59.735 50.8269Z" fill="#311E1C"/>
<path d="M98.2978 52.3254C103.189 50.1821 110.489 49.641 115.7 50.5397C117.383 50.8298 118.92 51.3805 120.302 52.1164C121.046 52.5126 121.701 52.9395 122.265 53.3713L122.434 53.5036C122.704 53.7173 122.905 53.8958 123.037 54.0249C123.866 54.8376 123.879 56.1685 123.066 56.9974C122.274 57.805 120.99 57.8382 120.158 57.0875L120.074 57.0093L120.034 56.9738C119.947 56.8972 119.838 56.8079 119.708 56.7088C119.321 56.4121 118.858 56.1105 118.326 55.8267C117.323 55.2929 116.207 54.8929 114.985 54.6824C110.531 53.9142 104.05 54.3946 99.9853 56.1758C98.922 56.6418 97.6823 56.1576 97.2164 55.0943C96.7504 54.031 97.2346 52.7914 98.2978 52.3254Z" fill="#311E1C"/>
<path d="M86.1557 76.4695L91.111 79.773C89.4268 82.2993 88.1079 86.0913 88.1079 88.85C88.1079 91.51 89.0685 92.6281 92.0094 92.6591L92.1366 92.6597V98.6153C85.6405 98.6153 82.1523 94.6911 82.1523 88.85C82.1523 84.893 83.7985 80.0896 86.0332 76.6554L86.1557 76.4695Z" fill="#311E1C"/>
<path d="M101.953 68.8951C106.639 66.6948 113.333 66.7673 119.211 68.7968C120.491 69.2389 121.17 70.635 120.728 71.9152C120.286 73.1954 118.89 73.8748 117.61 73.4328C112.853 71.7902 107.451 71.7317 104.038 73.3345C102.812 73.9102 101.352 73.3831 100.776 72.1572C100.2 70.9313 100.728 69.4708 101.953 68.8951Z" fill="black"/>
<path d="M55.3597 68.8951C60.0452 66.6948 66.739 66.7673 72.6168 68.7968C73.897 69.2389 74.5764 70.635 74.1344 71.9152C73.6923 73.1954 72.2962 73.8748 71.016 73.4328C66.2589 71.7902 60.8577 71.7317 57.4444 73.3345C56.2185 73.9102 54.7581 73.3831 54.1824 72.1572C53.6067 70.9313 54.1338 69.4708 55.3597 68.8951Z" fill="black"/>
<path d="M81.0098 68.4894C85.6729 66.2691 90.167 66.0519 94.5419 68.4326L94.7123 68.5267L93.5141 70.6663C89.9019 68.6434 86.2306 68.7677 82.2428 70.6195L82.064 70.7036L81.0098 68.4894Z" fill="black"/>
<path d="M94.7675 77.3397L94.1797 69.7899C94.1797 69.7899 97.8413 61.5621 112.556 59.8259C127.271 58.0893 133.777 67.1379 133.777 67.1379L132.604 78.0355C131.862 84.9337 125.945 90.1052 119.01 89.9185L107.682 89.6137C100.87 89.4305 95.2965 84.1332 94.7675 77.3397Z" fill="white" fill-opacity="0.4"/>
<path d="M112.06 58.1046C116.772 57.4951 121.197 57.8338 125.285 58.9193C128.323 59.7259 130.938 60.8754 133.091 62.1683C134.515 63.0233 135.275 64.6147 135.164 66.2935L135.155 66.4107L134.793 70.4402L132.002 70.1895L132.364 66.1599C132.426 65.4709 132.148 64.8713 131.648 64.571C129.71 63.4075 127.335 62.3634 124.566 61.6281C120.82 60.6334 116.76 60.3226 112.419 60.8841C104.682 61.8848 99.3102 64.2903 95.9348 67.1297C95.6089 67.4038 95.4467 67.8616 95.5028 68.3984L95.5142 68.4886L96.157 72.8453L93.3844 73.2544L92.7416 68.8978C92.5212 67.4047 93.0023 65.9341 94.1307 64.985C97.9118 61.8043 103.783 59.1751 112.06 58.1046Z" fill="black"/>
<path d="M81.9069 77.0613L82.4089 69.8691C82.4089 69.8691 78.7508 61.8232 64.296 60.2344C49.8409 58.6461 43.5273 67.5773 43.5273 67.5773L44.7377 78.0366C45.5351 84.9285 51.4923 90.0527 58.4263 89.8106L69.0913 89.4382C75.9012 89.2004 81.4322 83.8586 81.9069 77.0613Z" fill="white" fill-opacity="0.4"/>
<path d="M51.8197 59.4087C55.8186 58.3168 60.152 57.9527 64.7729 58.5128C72.8178 59.4877 78.5761 61.9826 82.3363 65.0484C83.5055 66.0017 84.004 67.5058 83.768 69.0228L83.7479 69.1426L83.0353 73.0785L80.2775 72.5792L80.9901 68.6432C81.0985 68.0443 80.9325 67.5199 80.5653 67.2205C77.2109 64.4857 71.9481 62.2054 64.4357 61.295C60.1858 60.7799 56.2162 61.1134 52.5579 62.1124C49.8498 62.8519 47.5279 63.8915 45.6334 65.0466C45.1584 65.3361 44.8886 65.8978 44.9249 66.549L44.9314 66.6344L45.323 70.7189L42.5332 70.9864L42.1416 66.9019C41.9769 65.1835 42.726 63.5364 44.1747 62.6535C46.2835 61.3678 48.844 60.2213 51.8197 59.4087Z" fill="black"/>
<path d="M110.3 20.8486C93.6244 11.6 86.4777 10.8642 66.8595 25.0525C47.0661 19.9729 64.7575 7.01064 72.4647 3.15706C80.1719 -0.696521 97.513 -2.09782 112.051 5.25901C126.59 12.6158 131.144 32.4093 110.3 20.8486Z" fill="#311E1C"/>
<path d="M57.2974 37.8601C66.7341 26.8043 84.6007 22.4252 89.1549 19.2723C90.9069 18.4239 90.9066 5.59366 86.7027 2.2815C80.9223 -2.27273 60.4283 6.66065 51.3198 15.2436C42.2114 23.8266 33.1799 41.6888 29.0743 67.4422C27.1475 79.5284 25.7462 117.889 25.7462 131.552C25.7462 145.214 27.3227 162.906 25.7462 178.495C24.6706 189.132 23.1208 208.444 23.1211 234.543C23.1212 240.503 39.8533 242.305 40.8101 237.521C42.2114 230.514 40.9873 190.932 42.389 178.495C43.9339 164.788 46.4153 155.199 44.4885 142.412C42.562 129.625 36.7813 116.838 39.0584 109.306C41.3356 101.774 40.4597 83.382 40.8101 71.9964C41.1604 60.6109 47.7283 49.0712 57.2974 37.8601Z" fill="#311E1C"/>
<path d="M44.3158 184.096C42.0737 173.446 37.7181 124.716 36.959 101.945C37.3093 102.061 40.4973 102.855 41.338 102.996C42.1788 103.136 42.856 103.054 43.0897 102.996C44.0821 107.375 44.5169 113.907 47.8191 120.512C50.4465 125.767 55.1759 130.963 57.453 133.299C59.4383 141.064 63.6888 159.258 64.8098 169.908C66.2111 183.22 64.8098 224.909 61.6569 224.909C54.3376 224.909 49.1874 225.96 47.8191 221.581C45.1916 213.173 47.1184 197.408 44.3158 184.096Z" fill="#311E1C"/>
<path d="M118.936 33.6301C108.584 23.6926 91.9604 21.5439 90.3839 19.0917C88.749 13.4865 88.427 4.06677 95.6392 1.57545C105.273 -1.75251 130.672 11.7347 139.079 33.6301C145.346 49.9513 149.589 88.2807 149.414 91.784C149.239 95.2872 143.283 151.69 142.408 160.448C141.532 169.206 141.882 175.687 142.408 194.079C142.933 212.471 142.933 228.052 139.079 229.111C132.073 231.038 110.178 228.236 107.2 227.71C104.222 227.185 106.149 215.028 106.149 208.267C106.149 198.983 112.455 167.629 115.783 155.543C118.341 146.255 131.022 116.657 131.898 114.205C132.598 112.243 133.65 105.68 134 102.819L134.009 102.822C134.415 102.938 134.829 103.056 138.029 101.943C142.058 100.542 146.437 95.8127 147.488 91.2585C148.539 86.7043 147.663 82.15 145.211 77.9461C143.249 74.583 137.678 72.3994 136.102 71.9906C136.102 68.137 135.926 63.4076 135.401 60.7802C134.075 54.1499 127.694 42.0378 118.936 33.6301Z" fill="#311E1C"/>
<path d="M163 256C164.105 256 165 256.896 165 258V465C165 466.105 164.105 467 163 467H15C13.8954 467 13 466.105 13 465V258C13 256.896 13.8954 256 15 256H19C17.8954 256 17 255.105 17 254V243C17 241.896 17.8954 241 19 241H9C7.89543 241 7 240.105 7 239V229C7 227.896 7.89543 227 9 227H170C171.105 227 172 227.896 172 229V239C172 240.105 171.105 241 170 241H159C160.105 241 161 241.896 161 243V254C161 255.105 160.105 256 159 256H163Z" fill="#8A3827"/>
<rect x="40.5" y="272.5" width="97" height="115" rx="9.5" fill="#662521" stroke="#662521"/>
<circle cx="89.5" cy="334.5" r="27.5" fill="#8A3827" stroke="#662521" stroke-width="2"/>
<path d="M64.3281 478.625V490H62.8438V478.625H64.3281ZM67.9844 478.625V479.86H59.1953V478.625H67.9844ZM72.1797 490.157C71.5911 490.157 71.0573 490.058 70.5781 489.86C70.1042 489.657 69.6953 489.373 69.3516 489.008C69.013 488.644 68.7526 488.211 68.5703 487.711C68.388 487.211 68.2969 486.665 68.2969 486.071V485.743C68.2969 485.055 68.3984 484.443 68.6016 483.907C68.8047 483.365 69.0807 482.907 69.4297 482.532C69.7786 482.157 70.1745 481.873 70.6172 481.68C71.0599 481.487 71.5182 481.391 71.9922 481.391C72.5964 481.391 73.1172 481.495 73.5547 481.704C73.9974 481.912 74.3594 482.204 74.6406 482.579C74.9219 482.948 75.1302 483.386 75.2656 483.891C75.401 484.391 75.4688 484.938 75.4688 485.532V486.18H69.1562V485H74.0234V484.891C74.0026 484.516 73.9245 484.152 73.7891 483.797C73.6589 483.443 73.4505 483.152 73.1641 482.922C72.8776 482.693 72.487 482.579 71.9922 482.579C71.6641 482.579 71.362 482.649 71.0859 482.79C70.8099 482.925 70.5729 483.128 70.375 483.399C70.1771 483.67 70.0234 484 69.9141 484.391C69.8047 484.782 69.75 485.232 69.75 485.743V486.071C69.75 486.472 69.8047 486.849 69.9141 487.204C70.0286 487.553 70.1927 487.86 70.4062 488.125C70.625 488.391 70.888 488.599 71.1953 488.75C71.5078 488.902 71.862 488.977 72.2578 488.977C72.7682 488.977 73.2005 488.873 73.5547 488.665C73.9089 488.456 74.2188 488.178 74.4844 487.829L75.3594 488.524C75.1771 488.8 74.9453 489.063 74.6641 489.313C74.3828 489.563 74.0365 489.766 73.625 489.922C73.2188 490.079 72.737 490.157 72.1797 490.157ZM82.1406 488.555V484.204C82.1406 483.87 82.0729 483.581 81.9375 483.336C81.8073 483.086 81.6094 482.894 81.3438 482.758C81.0781 482.623 80.75 482.555 80.3594 482.555C79.9948 482.555 79.6745 482.618 79.3984 482.743C79.1276 482.868 78.9141 483.032 78.7578 483.235C78.6068 483.438 78.5312 483.657 78.5312 483.891H77.0859C77.0859 483.589 77.1641 483.29 77.3203 482.993C77.4766 482.696 77.7005 482.428 77.9922 482.188C78.2891 481.943 78.6432 481.75 79.0547 481.61C79.4714 481.464 79.9349 481.391 80.4453 481.391C81.0599 481.391 81.6016 481.495 82.0703 481.704C82.5443 481.912 82.9141 482.227 83.1797 482.649C83.4505 483.066 83.5859 483.589 83.5859 484.219V488.157C83.5859 488.438 83.6094 488.737 83.6562 489.055C83.7083 489.373 83.7839 489.646 83.8828 489.875V490H82.375C82.3021 489.834 82.2448 489.612 82.2031 489.336C82.1615 489.055 82.1406 488.795 82.1406 488.555ZM82.3906 484.875L82.4062 485.891H80.9453C80.5339 485.891 80.1667 485.925 79.8438 485.993C79.5208 486.055 79.25 486.152 79.0312 486.282C78.8125 486.412 78.6458 486.576 78.5312 486.774C78.4167 486.967 78.3594 487.193 78.3594 487.454C78.3594 487.719 78.4193 487.961 78.5391 488.18C78.6589 488.399 78.8385 488.573 79.0781 488.704C79.3229 488.829 79.6224 488.891 79.9766 488.891C80.4193 488.891 80.8099 488.797 81.1484 488.61C81.487 488.422 81.7552 488.193 81.9531 487.922C82.1562 487.652 82.2656 487.389 82.2812 487.133L82.8984 487.829C82.862 488.047 82.763 488.29 82.6016 488.555C82.4401 488.821 82.224 489.076 81.9531 489.321C81.6875 489.56 81.3698 489.761 81 489.922C80.6354 490.079 80.224 490.157 79.7656 490.157C79.1927 490.157 78.6901 490.045 78.2578 489.821C77.8307 489.597 77.4974 489.297 77.2578 488.922C77.0234 488.542 76.9062 488.118 76.9062 487.649C76.9062 487.196 76.9948 486.797 77.1719 486.454C77.349 486.105 77.6042 485.816 77.9375 485.586C78.2708 485.352 78.6719 485.175 79.1406 485.055C79.6094 484.935 80.1328 484.875 80.7109 484.875H82.3906ZM87.2969 483.227V490H85.8438V481.547H87.2188L87.2969 483.227ZM87 485.454L86.3281 485.43C86.3333 484.852 86.4089 484.318 86.5547 483.829C86.7005 483.334 86.9167 482.904 87.2031 482.54C87.4896 482.175 87.8464 481.894 88.2734 481.696C88.7005 481.493 89.1953 481.391 89.7578 481.391C90.1536 481.391 90.5182 481.448 90.8516 481.563C91.1849 481.672 91.474 481.847 91.7188 482.086C91.9635 482.326 92.1536 482.633 92.2891 483.008C92.4245 483.383 92.4922 483.836 92.4922 484.368V490H91.0469V484.438C91.0469 483.995 90.9714 483.641 90.8203 483.375C90.6745 483.11 90.4661 482.917 90.1953 482.797C89.9245 482.672 89.6068 482.61 89.2422 482.61C88.8151 482.61 88.4583 482.685 88.1719 482.836C87.8854 482.987 87.6562 483.196 87.4844 483.461C87.3125 483.727 87.1875 484.032 87.1094 484.375C87.0365 484.714 87 485.073 87 485.454ZM92.4766 484.657L91.5078 484.954C91.513 484.49 91.5885 484.045 91.7344 483.618C91.8854 483.191 92.1016 482.81 92.3828 482.477C92.6693 482.144 93.0208 481.881 93.4375 481.688C93.8542 481.49 94.3307 481.391 94.8672 481.391C95.3203 481.391 95.7214 481.451 96.0703 481.571C96.4245 481.691 96.7214 481.875 96.9609 482.125C97.2057 482.37 97.3906 482.685 97.5156 483.071C97.6406 483.456 97.7031 483.915 97.7031 484.446V490H96.25V484.43C96.25 483.956 96.1745 483.589 96.0234 483.329C95.8776 483.063 95.6693 482.878 95.3984 482.774C95.1328 482.665 94.8151 482.61 94.4453 482.61C94.1276 482.61 93.8464 482.665 93.6016 482.774C93.3568 482.883 93.151 483.034 92.9844 483.227C92.8177 483.415 92.6901 483.631 92.6016 483.875C92.5182 484.12 92.4766 484.381 92.4766 484.657ZM108.289 479.633L104.523 490H102.984L107.32 478.625H108.312L108.289 479.633ZM111.445 490L107.672 479.633L107.648 478.625H108.641L112.992 490H111.445ZM111.25 485.79V487.024H104.859V485.79H111.25Z" fill="black"/>
</svg>
