<svg width="172" height="491" viewBox="0 0 172 491" fill="none" xmlns="http://www.w3.org/2000/svg">
<path d="M88.9313 290.4H45.0098L46.7666 408.972L50.5316 427.394H74.4249L76.6333 412.322L88.9313 290.4Z" fill="black"/>
<path d="M88.2285 290.4H132.15L130.393 408.972L126.628 427.394H102.735L100.527 412.322L88.2285 290.4Z" fill="black"/>
<path fill-rule="evenodd" clip-rule="evenodd" d="M146.027 393.15L137.068 299.762V393.15H146.027Z" fill="#BB462F"/>
<mask id="mask0_1883_4321" style="mask-type:luminance" maskUnits="userSpaceOnUse" x="137" y="299" width="10" height="95">
<path fill-rule="evenodd" clip-rule="evenodd" d="M146.027 393.15L137.068 299.762V393.15H146.027Z" fill="white"/>
</mask>
<g mask="url(#mask0_1883_4321)">
</g>
<path fill-rule="evenodd" clip-rule="evenodd" d="M142.406 401.269L138.594 302.694H127.539L135.735 409.163L142.406 401.269Z" fill="#BB462F"/>
<mask id="mask1_1883_4321" style="mask-type:luminance" maskUnits="userSpaceOnUse" x="127" y="302" width="16" height="108">
<path fill-rule="evenodd" clip-rule="evenodd" d="M142.406 401.269L138.594 302.694H127.539L135.735 409.163L142.406 401.269Z" fill="white"/>
</mask>
<g mask="url(#mask1_1883_4321)">
</g>
<path fill-rule="evenodd" clip-rule="evenodd" d="M27.0879 356.606L38.5244 295.927L51.295 298.408L40.2399 384.802L27.0879 356.606Z" fill="#BB462F"/>
<mask id="mask2_1883_4321" style="mask-type:luminance" maskUnits="userSpaceOnUse" x="27" y="295" width="25" height="90">
<path fill-rule="evenodd" clip-rule="evenodd" d="M27.0879 356.606L38.5244 295.927L51.295 298.408L40.2399 384.802L27.0879 356.606Z" fill="white"/>
</mask>
<g mask="url(#mask2_1883_4321)">
</g>
<mask id="mask3_1883_4321" style="mask-type:luminance" maskUnits="userSpaceOnUse" x="32" y="298" width="52" height="137">
<path fill-rule="evenodd" clip-rule="evenodd" d="M32.6172 357.736L37.9542 298.409H79.3162C79.4434 310.815 79.6212 336.349 79.3162 339.236C79.0112 342.124 82.2389 361.343 83.8907 370.591H76.4571L55.4903 400.368L59.1116 405.329L37.9542 434.429L32.6172 357.736Z" fill="white"/>
</mask>
<g mask="url(#mask3_1883_4321)">
<rect x="-89.7539" y="279.461" width="221.106" height="196.248" fill="#EA5E42"/>
</g>
<mask id="mask4_1883_4321" style="mask-type:luminance" maskUnits="userSpaceOnUse" x="86" y="298" width="54" height="134">
<path fill-rule="evenodd" clip-rule="evenodd" d="M86.748 353.224L95.3254 298.409L132.303 306.078L139.737 408.715L132.303 431.046L125.632 385.704L106.381 370.367L104.094 359.089L86.748 353.224Z" fill="white"/>
</mask>
<g mask="url(#mask4_1883_4321)">
<rect x="68.1973" y="296.095" width="190.989" height="169.63" fill="#EA5E42"/>
</g>
<path d="M54.9577 427.11C53.6706 425.218 51.7602 425.124 50.2127 424.039C49.4534 425.07 49.5104 426.581 48.8231 428.601L44.3554 433.859L36.5883 441.791L29.1855 445.616L33.6504 450.526C36.6406 448.302 53.6105 431.079 54.9577 427.11Z" fill="#010101"/>
<path d="M81.1894 453.101C81.1894 453.101 81.3566 444.5 79.3935 439.754C77.4307 435.008 75.3408 422.742 75.3408 422.742C75.3408 422.742 71.9676 426.249 65.6264 426.302L53.6766 426.403C53.6766 426.403 43.2724 440.246 40.2146 442.105C37.1568 443.961 19.8367 447.565 19.8367 447.565C16.5469 447.595 13.9032 450.157 13.9319 453.296L13.9583 456.183L50.0834 455.882L81.1894 453.101Z" fill="black"/>
<path d="M44.6882 446.52C43.2296 443.74 42.39 441.047 42.6926 439.778L35.7993 443.064L20.7429 447.733C20.7429 447.385 18.8926 447.629 16.5706 448.597C14.2487 449.565 13.91 452.114 14.031 453.266L47.5905 454.475L51.5814 454.305C49.5859 453.437 46.6836 450.325 44.6882 446.52Z" fill="#1C1622"/>
<path d="M66.2701 440.123C62.0617 441.091 53.2701 436.723 49.4004 434.418L53.6193 426.39C57.6706 426.39 66.2919 426.303 68.904 425.887C71.5161 425.472 74.3763 423.569 75.404 422.705L76.4286 428.192L77.8798 434.934C75.7635 436.261 70.4789 439.155 66.2701 440.123Z" fill="black"/>
<path d="M49.7559 433.899C50.6505 432.566 52.4748 429.689 52.6122 428.858C60.9688 430.175 72.2138 429.907 76.3702 428.142C77.4869 431.247 78.0592 435.454 78.0592 435.454C77.3463 436.844 69.3473 439.58 66.2682 440.123C64.6245 438.927 63.4046 438.625 62.1284 437.946C60.1263 436.877 53.446 434.097 49.7559 433.899Z" fill="#2C407F"/>
<path d="M67.7592 446.175C69.0599 445.465 76.4303 442.374 79.8369 441.037C81.4827 442.159 81.2757 448.918 81.3112 452.814L64.9668 453.658C65.8691 450.7 67.3259 446.587 67.7592 446.175Z" fill="#192D6A"/>
<path d="M59.848 445.632C58.1439 446.071 56.7742 446.001 56.0037 445.425C54.0188 443.917 55.3213 441.653 55.873 440.762C54.8849 441.847 53.9028 442.936 53.133 444.125C51.9193 445.984 51.3919 448.027 52.1857 449.344C53.608 451.722 57.094 450.653 59.3182 449.715L79.9585 441.017L59.848 445.632Z" fill="#2C407F"/>
<path d="M29.0281 448.597C24.4979 449.153 18.6948 449.374 17.5938 448.001L25.012 445.864L34.7741 442.149L37.3247 443.342L36.9714 444.38C36.9714 444.38 39.9688 447.562 39.7874 448.942C39.606 450.325 38.0778 451.019 36.3408 450.499C34.6037 449.98 33.6339 448.031 29.0281 448.597Z" fill="#2C407F"/>
<path d="M51.94 432.687C50.0535 435.179 44.9864 440.297 42.6885 442.545L41.9629 440.123C43.4141 438.569 45.8269 435.333 47.8223 433.256C49.9098 431.086 52.0005 428.654 53.5725 426.464H55.568C55.2658 427.73 53.8266 430.198 51.94 432.687Z" fill="#1C1622"/>
<path d="M50.9548 428.962L49.0265 428.245C48.452 428.031 47.8045 428.302 47.5805 428.85C47.3565 429.398 47.6406 430.015 48.2152 430.228L50.1435 430.945C50.7181 431.159 51.3655 430.888 51.5895 430.34C51.8136 429.792 51.5294 429.175 50.9548 428.962Z" fill="#2B2A2A"/>
<path d="M48.0838 432.1L46.1554 431.384C45.5809 431.17 44.9335 431.441 44.7094 431.989C44.4854 432.536 44.7695 433.153 45.3441 433.367L47.2724 434.084C47.847 434.297 48.4944 434.026 48.7184 433.479C48.9425 432.931 48.6583 432.314 48.0838 432.1Z" fill="#2B2A2A"/>
<path d="M45.5759 435.232L43.6476 434.515C43.073 434.302 42.4256 434.572 42.2016 435.12C41.9775 435.668 42.2617 436.285 42.8363 436.499L44.7646 437.215C45.3392 437.429 45.9866 437.158 46.2106 436.61C46.4347 436.063 46.1505 435.446 45.5759 435.232Z" fill="#2B2A2A"/>
<path d="M42.699 438.371L40.7707 437.654C40.1961 437.44 39.5487 437.711 39.3246 438.259C39.1006 438.807 39.3847 439.424 39.9593 439.637L41.8876 440.354C42.4622 440.568 43.1096 440.297 43.3336 439.749C43.5577 439.201 43.2735 438.584 42.699 438.371Z" fill="#2B2A2A"/>
<path d="M38.3728 441.519L36.4445 440.802C35.8699 440.588 35.2225 440.859 34.9985 441.407C34.7744 441.955 35.0586 442.572 35.6331 442.785L37.5614 443.502C38.136 443.716 38.7834 443.445 39.0074 442.897C39.2315 442.35 38.9474 441.732 38.3728 441.519Z" fill="#2B2A2A"/>
<path d="M81.6256 452.74L47.6275 454.488L13.795 453.306L13.2914 457.6C13.146 458.839 14.1458 459.935 15.4545 459.965L46.9793 460.722L64.5314 460.759L82.0768 460.065L81.6256 452.74Z" fill="#E7E5DD"/>
<path d="M81.9211 459.744C76.5166 459.962 62.9407 460.592 57.0208 460.642C52.773 460.679 16.6374 460.129 13 459.121" stroke="#536E83" stroke-width="2.10823"/>
<path d="M68.8104 434.937C66.4885 434.796 65.3033 433.842 65.0008 433.38C64.759 434.589 65.1824 437.044 68.8104 437.185C72.4383 437.322 73.4664 434.706 73.5268 433.38C72.9221 433.956 71.1322 435.074 68.8104 434.937Z" fill="black"/>
<path d="M66.4522 433.206C66.3071 434.174 66.7544 435.109 66.9964 435.453C69.1732 437.011 71.5316 435.453 71.5316 433.899C71.5316 432.342 70.4431 431.997 69.3545 431.997C68.2663 431.997 66.6335 431.997 66.4522 433.206Z" fill="black"/>
<path d="M122.381 427.318C123.629 425.412 125.53 425.284 127.052 424.176C127.827 425.194 127.798 426.698 128.519 428.701L133.066 433.863L140.949 441.637L148.394 445.328L144.035 450.292C141.016 448.125 123.795 431.247 122.381 427.318Z" fill="#010101"/>
<path d="M96.7128 453.644C96.7128 453.644 96.3892 445.079 98.2582 440.316C100.127 435.557 101.986 423.301 101.986 423.301C101.986 423.301 105.41 426.741 111.728 426.687L123.635 426.59C123.635 426.59 134.253 440.213 137.333 442.011C140.413 443.81 157.734 447.116 157.734 447.116C161.012 447.086 163.692 449.598 163.721 452.723L163.748 455.6L127.753 455.902L96.7128 453.644Z" fill="#010101"/>
<path d="M132.964 446.487C134.366 443.69 135.153 440.99 134.829 439.734L141.756 442.893L156.841 447.294C156.835 446.949 158.683 447.16 161.014 448.088C163.345 449.012 163.728 451.544 163.629 452.697L130.218 454.458L126.238 454.351C128.211 453.457 131.045 450.308 132.964 446.487Z" fill="#1C1622"/>
<path d="M111.339 440.468C115.549 441.365 124.228 436.867 128.041 434.506L123.71 426.557C119.674 426.624 111.035 426.591 108.425 426.222C105.815 425.851 102.964 424.052 101.925 423.208L101 428.751L99.6777 435.494C101.81 436.78 107.128 439.573 111.339 440.468Z" fill="black"/>
<path d="M127.683 433.993C126.767 432.68 124.898 429.847 124.745 429.019C116.444 430.466 105.236 430.389 101.064 428.701C100.007 431.809 99.5137 436.013 99.5137 436.013C100.249 437.386 108.268 439.979 111.346 440.468C112.961 439.249 114.172 438.931 115.43 438.23C117.406 437.132 124.01 434.255 127.683 433.993Z" fill="#2C407F"/>
<path d="M109.968 446.524C108.659 445.837 101.26 442.876 97.842 441.607C96.2232 442.749 96.5524 449.478 96.5883 453.36L112.887 453.933C111.934 450.999 110.407 446.926 109.968 446.524Z" fill="#192D6A"/>
<path d="M117.842 445.85C119.547 446.259 120.91 446.169 121.668 445.579C123.618 444.048 122.279 441.811 121.713 440.933C122.717 441.998 123.715 443.067 124.504 444.239C125.747 446.068 126.31 448.098 125.543 449.421C124.169 451.816 120.677 450.808 118.444 449.91L97.7227 441.586L117.842 445.85Z" fill="#2C407F"/>
<path d="M148.596 448.292C153.119 448.771 158.905 448.899 159.976 447.508L152.547 445.502L142.754 441.965L140.234 443.194L140.605 444.226C140.605 444.226 137.678 447.442 137.883 448.818C138.089 450.191 139.624 450.855 141.345 450.309C143.067 449.766 143.997 447.807 148.596 448.292Z" fill="#2C407F"/>
<path d="M125.482 432.824C127.407 435.272 132.548 440.29 134.879 442.491L135.557 440.066C134.083 438.538 132.102 435.624 130.076 433.591C127.957 431.464 125.348 428.805 123.742 426.647L121.754 426.681C122.078 427.94 123.557 430.375 125.482 432.824Z" fill="#1C1622"/>
<path d="M127.238 431.062L129.146 430.315C129.717 430.092 129.989 429.47 129.755 428.926C129.521 428.383 128.868 428.123 128.298 428.346L126.39 429.093C125.82 429.316 125.547 429.938 125.781 430.482C126.016 431.026 126.668 431.286 127.238 431.062Z" fill="#2B2A2A"/>
<path d="M130.158 434.14L132.066 433.393C132.637 433.17 132.909 432.548 132.675 432.004C132.441 431.461 131.788 431.201 131.218 431.424L129.31 432.171C128.739 432.394 128.467 433.016 128.701 433.56C128.935 434.104 129.588 434.364 130.158 434.14Z" fill="#2B2A2A"/>
<path d="M132.715 437.22L134.623 436.476C135.194 436.254 135.468 435.632 135.234 435.088C135.001 434.544 134.349 434.283 133.778 434.505L131.87 435.249C131.299 435.472 131.026 436.093 131.259 436.637C131.493 437.181 132.144 437.442 132.715 437.22Z" fill="#2B2A2A"/>
<path d="M135.639 440.297L137.547 439.55C138.117 439.327 138.39 438.705 138.155 438.161C137.921 437.617 137.269 437.357 136.698 437.581L134.79 438.328C134.22 438.551 133.947 439.173 134.182 439.717C134.416 440.26 135.068 440.52 135.639 440.297Z" fill="#2B2A2A"/>
<path d="M140.006 443.362L141.914 442.619C142.485 442.396 142.759 441.775 142.525 441.231C142.292 440.687 141.64 440.426 141.069 440.648L139.161 441.392C138.59 441.614 138.317 442.236 138.55 442.78C138.784 443.324 139.435 443.585 140.006 443.362Z" fill="#2B2A2A"/>
<path d="M96.2713 453.293L130.173 454.472L163.857 452.73L164.436 456.994C164.604 458.23 163.625 459.342 162.317 459.392L130.933 460.672L113.447 461L95.9551 460.598L96.2713 453.293Z" fill="#E7E5DD"/>
<path d="M96.1074 460.273C101.496 460.401 115.032 460.806 120.931 460.756C125.163 460.722 161.153 459.577 164.759 458.511" stroke="#536E83" stroke-width="2.10823"/>
<path d="M108.716 435.343C111.026 435.165 112.19 434.194 112.482 433.728C112.746 434.931 112.369 437.386 108.756 437.584C105.145 437.781 104.073 435.192 103.988 433.869C104.601 434.435 106.405 435.52 108.716 435.343Z" fill="black"/>
<path d="M111.034 433.581C111.197 434.542 110.768 435.48 110.533 435.828C108.393 437.416 106.015 435.906 105.987 434.355C105.958 432.804 107.036 432.442 108.121 432.422C109.205 432.405 110.832 432.379 111.034 433.581Z" fill="black"/>
<path d="M38.5072 101.657C41.3182 98.6422 42.6651 89.2077 42.3723 81.3923H139.175C137.243 86.9749 139.105 99.1111 143.743 105.006C149.541 112.375 157.271 114.887 157.271 114.887C157.271 114.887 146.554 130.63 127.58 128.118C106.381 127.671 61.6275 127.046 52.2107 128.118C42.7939 129.19 31.187 118.404 26.5605 112.878C28.8445 112.431 35.2942 105.102 38.5072 101.657Z" fill="#A23A26"/>
<path d="M30.4519 166.275C38.9484 148.085 52.8347 149.457 58.735 150.146L51.6893 238.149H15.4978C13.0382 221.736 16.6603 198.699 17.211 196.615C19.064 189.604 23.902 180.297 30.4519 166.275Z" fill="#19171D"/>
<path d="M148.135 167.194C139.638 149.004 125.752 150.376 119.852 151.066L126.897 239.068L163.949 232.287C168.692 218.387 161.926 199.618 161.376 197.534C159.523 190.523 154.685 181.216 148.135 167.194Z" fill="#19171D"/>
<path d="M47.5295 161.299C48.9902 151.171 57.9017 143.743 68.6301 143.63L92.8678 143.374L115.2 145.617C125.41 146.643 133.695 154.203 135.039 163.935C137.97 185.144 142.518 222.244 142.518 248.179C142.518 286.438 148.9 290.098 139.019 295.11C129.139 300.124 50.0921 299.418 39.2998 291.646C28.5075 283.874 35.2178 275.777 35.2178 259.908C35.2178 248.217 43.2826 190.751 47.5295 161.299Z" fill="black"/>
<path d="M67.1465 188.151C67.1465 186.753 67.3295 185.766 67.6953 185.19H74.6954C75.0615 186.013 75.2446 186.67 75.2446 187.164V188.644L74.8328 190.618C73.3686 190.618 72.6367 193.414 72.6367 199.006V247.852C72.6367 249.99 72.728 251.799 72.9111 253.279C73.4603 255.582 74.7414 256.733 76.7544 256.733C78.4241 256.733 79.7052 253.937 80.5974 248.345C81.2608 242.424 81.9013 239.464 82.519 239.464H82.7934C82.9765 239.629 83.1596 240.451 83.3426 241.931C82.4505 256.404 81.7643 263.641 81.2836 263.641H67.6953C67.5126 263.476 67.3295 262.654 67.1465 261.174C67.1465 260.68 67.2378 259.858 67.4209 258.707C68.9764 258.049 69.7544 255.746 69.7544 251.799V196.538C69.7544 194.812 69.617 193.332 69.3426 192.098C67.8784 191.029 67.1465 189.713 67.1465 188.151Z" fill="white"/>
<path fill-rule="evenodd" clip-rule="evenodd" d="M84.3379 219.728V228.61C84.3379 241.438 85.4816 252.128 87.769 260.68C88.8903 263.97 90.0797 265.614 91.3379 265.614H92.7104C96.1187 265.614 98.4522 256.075 99.7104 236.997C99.8018 235.188 99.8706 233.379 99.9163 231.57C99.962 229.679 99.9848 227.705 99.9848 225.649V223.675C99.9848 205.831 98.2919 192.838 94.9065 184.697C94.3344 183.71 93.6939 183.217 92.9848 183.217H91.2005C88.021 183.217 85.7789 193.249 84.4749 213.314C84.3836 214.712 84.3379 216.85 84.3379 219.728ZM87.9068 226.143V224.169C87.9068 211.752 88.6387 201.39 90.1029 193.085C90.7206 191.111 91.3155 190.125 91.8872 190.125H92.4364C94.4951 190.125 95.7762 200.65 96.2793 221.702V225.156C96.2793 241.027 95.1356 252.046 92.8482 258.213H91.8872C89.8285 258.213 88.5017 247.523 87.9068 226.143Z" fill="white"/>
<path d="M101.768 185.19H107.532C107.715 185.355 107.898 186.177 108.081 187.657C108.081 188.069 108.036 188.562 107.944 189.138C106.983 191.276 106.48 192.92 106.434 194.071C106.434 195.223 107.487 208.874 109.591 235.024H109.866C110.117 235.024 111.215 221.537 113.16 194.565V193.578L111.924 188.151C111.924 186.753 112.107 185.766 112.474 185.19H117.14C117.506 186.013 117.689 186.67 117.689 187.164V188.644C117.62 189.631 117.026 190.782 115.905 192.098L111.924 238.477C110.803 255.253 110.026 263.641 109.591 263.641H109.179L108.905 263.147C107.166 242.589 105.794 226.595 104.787 215.164C103.781 203.734 103.14 196.703 102.866 194.071C101.768 190.7 101.219 188.726 101.219 188.151C101.219 186.753 101.401 185.766 101.768 185.19Z" fill="white"/>
<path d="M119.714 258.213C120.812 257.144 121.361 254.184 121.361 249.332V199.006C121.361 196.292 121.224 194.154 120.949 192.591C119.577 190.7 118.891 189.055 118.891 187.657C119.073 186.177 119.256 185.355 119.439 185.19H132.342C132.868 185.19 133.188 191.44 133.302 203.939C133.165 205.584 132.89 206.407 132.479 206.407C131.838 206.407 131.335 203.775 130.969 198.512C130.557 194.236 129.688 192.098 128.361 192.098H125.616C124.701 192.098 124.243 193.743 124.243 197.032V214.301C124.243 217.261 124.564 218.741 125.204 218.741H128.498C128.796 218.741 129.116 218.248 129.459 217.261C130.054 210.683 130.466 207.393 130.694 207.393H130.969C131.518 207.393 131.792 208.38 131.792 210.354V235.024C131.564 236.339 131.381 236.997 131.243 236.997H130.694C130.397 236.586 130.123 235.106 129.871 232.556C129.871 228.28 129.139 226.142 127.675 226.142H125.616C124.701 226.142 124.243 227.787 124.243 231.076V248.345C124.243 253.937 124.93 256.733 126.302 256.733C128.636 256.733 130.374 255.582 131.518 253.279C132.639 245.056 133.279 240.944 133.44 240.944H134.126C134.492 241.52 134.675 242.507 134.675 243.905C134.675 244.809 134.446 248.757 133.988 255.746C133.829 261.009 133.371 263.641 132.616 263.641H119.439C119.256 263.476 119.073 262.654 118.891 261.174C118.891 259.447 119.165 258.46 119.714 258.213Z" fill="white"/>
<path d="M48.3692 184.48H54.1341C54.3172 184.645 54.4999 185.467 54.683 186.947C54.683 187.358 54.6373 187.852 54.5459 188.427C53.5849 190.565 53.0818 192.21 53.0361 193.361C53.0361 194.513 54.0884 208.163 56.1928 234.313H56.4672C56.7192 234.313 57.8172 220.827 59.7613 193.855V192.868L58.5263 187.441C58.5263 186.043 58.7093 185.056 59.0751 184.48H63.7417C64.1078 185.303 64.2909 185.961 64.2909 186.454V187.934C64.2224 188.921 63.6275 190.072 62.5066 191.388L58.5263 237.767C57.4054 254.543 56.6275 262.93 56.1928 262.93H55.781L55.5066 262.437C53.768 241.879 52.3955 225.884 51.3888 214.454C50.3825 203.024 49.742 195.993 49.4675 193.361C48.3692 189.99 47.8203 188.016 47.8203 187.441C47.8203 186.043 48.0034 185.056 48.3692 184.48Z" fill="#DA4B2A"/>
<path d="M35.6536 301.393L38.0487 287.628C38.3389 285.959 39.888 284.759 41.6604 284.829L136.339 288.565C138.221 288.639 139.707 290.116 139.707 291.912V305.025C139.707 306.919 138.061 308.436 136.076 308.373L39.003 305.289C36.8812 305.222 35.3062 303.39 35.6536 301.393Z" fill="black"/>
<path d="M85.2421 173.169C73.7933 171.048 40.6322 151.824 53.5121 139.898C61.7412 129.959 74.9788 143.211 76.7677 149.837C78.1988 155.138 85.8998 161.764 88.4044 165.297C91.2667 167.837 96.6908 175.289 85.2421 173.169Z" fill="#19171D"/>
<path d="M97.1906 172.666C108.639 170.546 139.956 151.824 127.076 139.898C118.847 129.959 105.609 143.211 103.821 149.837C102.389 155.138 96.8842 162.433 94.3796 165.967C91.5173 168.507 85.7415 174.786 97.1906 172.666Z" fill="#19171D"/>
<path d="M75.5799 167.474C77.7146 167.474 79.445 165.825 79.445 163.79C79.445 161.755 77.7146 160.106 75.5799 160.106C73.4453 160.106 71.7148 161.755 71.7148 163.79C71.7148 165.825 73.4453 167.474 75.5799 167.474Z" fill="#C4C4C4"/>
<path d="M106.502 167.474C108.636 167.474 110.367 165.825 110.367 163.79C110.367 161.755 108.636 160.106 106.502 160.106C104.367 160.106 102.637 161.755 102.637 163.79C102.637 165.825 104.367 167.474 106.502 167.474Z" fill="#C4C4C4"/>
<path d="M72.7676 164.46V201.304C72.7676 202.599 73.8688 203.649 75.2272 203.649C76.5856 203.649 77.6868 202.599 77.6868 201.304V164.46C77.6868 163.165 76.5856 162.115 75.2272 162.115C73.8688 162.115 72.7676 163.165 72.7676 164.46Z" fill="#3A3838"/>
<path d="M104.039 164.46V193.935C104.039 195.23 105.14 196.28 106.499 196.28C107.857 196.28 108.958 195.23 108.958 193.935V164.46C108.958 163.165 107.857 162.115 106.499 162.115C105.14 162.115 104.039 163.165 104.039 164.46Z" fill="#3A3838"/>
<path d="M130.873 250.256L130.284 250.478L129.615 250.727L125.069 252.341C121.011 253.789 115.34 255.832 112.659 256.885L112.397 256.988C105.268 259.825 99.383 262.767 94.16 266.351C87.6048 270.849 82.4211 276.184 78.7797 282.612C76.0135 287.495 77.9237 293.591 83.0463 296.228C88.1176 298.839 94.4362 297.08 97.2461 292.306L97.3301 292.161C101.163 285.395 108.364 280.412 120.158 275.678L120.75 275.443L121.406 275.189C125.925 273.46 137.028 269.543 137.309 269.439C137.79 269.261 138.253 269.087 138.702 268.915C144.108 266.854 146.737 261.006 144.575 255.854C142.413 250.701 136.278 248.195 130.873 250.256Z" fill="#CDA497"/>
<path d="M42.2351 265.226L52.1695 269.755L53.9768 270.587L55.8807 271.469C58.5264 272.698 60.9626 273.849 63.3121 274.983L64.3035 275.462C67.2522 276.894 69.9726 278.256 72.4778 279.561L73.4003 280.044L74.1757 280.454C80.738 283.942 85.4674 286.899 87.7908 288.958L87.9608 289.111C92.1622 292.953 98.8351 292.82 102.865 288.815C106.895 284.81 106.756 278.449 102.555 274.608C98.447 270.852 91.9676 266.833 83.0374 262.16L82.139 261.692C79.4214 260.283 76.5011 258.826 73.357 257.305L72.0401 256.67L70.6405 256.001C68.289 254.88 65.836 253.732 63.1749 252.504L56.7459 249.562L51.4963 247.173C46.2454 244.776 39.9506 246.891 37.4365 251.896C34.9475 256.852 37.097 262.782 42.2351 265.226Z" fill="#EBBAAA"/>
<path d="M90.5115 264.274L79.619 259.25L68.5508 279.347L79.619 284.371C79.619 285.711 79.8193 278.84 82.957 273.318C85.241 269.299 88.0519 266.284 90.5115 264.274Z" fill="#161616"/>
<path d="M107.506 282.473L118.094 277.672L106.323 259.083L96.8359 263.94C97.2924 264.191 101.294 267.297 104.742 272.648C107.251 276.543 106.91 279.438 107.506 282.473Z" fill="#161616"/>
<path d="M117.392 280.688C155.516 279.18 167.638 233.795 165.354 215.708H141.636C142.676 229.039 111.77 249.035 105.621 260.591C108.783 264.443 104.702 281.189 117.392 280.688Z" fill="#19171D"/>
<path d="M66.6213 282.027C22.3484 282.027 7.94229 239.991 17.2534 210.85H37.1061C36.0661 224.182 73.8244 245.853 83.8385 262.768C81.5546 270.136 79.3216 282.027 66.6213 282.027Z" fill="#19171D"/>
<rect x="77.9922" y="126.945" width="24.2447" height="38.5191" rx="12.1223" fill="#EBBAAA"/>
<path d="M140.582 108.374C148.344 108.374 154.637 101.851 154.637 93.804C154.637 85.7569 148.344 79.2338 140.582 79.2338C132.82 79.2338 126.527 85.7569 126.527 93.804C126.527 101.851 132.82 108.374 140.582 108.374Z" fill="#EBBAAA"/>
<path d="M39.383 108.374C31.6207 108.374 25.3281 101.851 25.3281 93.804C25.3281 85.7569 31.6207 79.2338 39.383 79.2338C47.1452 79.2338 53.4379 85.7569 53.4379 93.804C53.4379 101.851 47.1452 108.374 39.383 108.374Z" fill="#EBBAAA"/>
<path d="M37.584 61.4035C37.584 33.6556 61.1811 11.1613 90.2898 11.1613C119.399 11.1613 142.996 33.6556 142.996 61.4035V79.7741C142.996 82.7588 142.756 85.7389 142.28 88.6887L139.059 108.62C135.36 131.507 114.7 148.4 90.4072 148.4C66.6305 148.4 46.2523 132.2 41.9823 109.903L38.5827 92.1521C37.9182 88.6827 37.584 85.1631 37.584 81.6364V61.4035Z" fill="#F4D5CC"/>
<path d="M107.825 62.4892L107.985 62.4227L108.094 62.3796C108.479 62.2288 108.945 62.073 109.486 61.9244C111.573 61.3515 114.02 61.0785 116.763 61.2849C119.06 61.4578 121.074 61.8708 122.804 62.445C123.59 62.706 124.255 62.9799 124.796 63.2454C124.941 63.3166 125.064 63.3808 125.164 63.4365L125.267 63.4941L125.26 63.4893C126.867 64.5263 129.052 64.125 130.139 62.5931C131.227 61.0612 130.806 58.9787 129.199 57.9418C128.947 57.7788 128.551 57.5537 128.013 57.2896C127.184 56.8831 126.218 56.4848 125.115 56.1186C122.828 55.3595 120.224 54.8256 117.316 54.6067C113.692 54.334 110.406 54.7005 107.541 55.487C106.748 55.7049 106.04 55.9416 105.423 56.1834L105.213 56.267L105.024 56.3456C104.815 56.4342 104.646 56.5117 104.52 56.5744C102.8 57.431 102.134 59.4545 103.033 61.0942C103.9 62.6762 105.907 63.3228 107.592 62.5967L107.683 62.5557L107.825 62.4892Z" fill="#393939"/>
<path d="M75.9352 56.4766L75.8123 56.4267L75.6659 56.3703C75.5079 56.3108 75.3149 56.2424 75.088 56.1674C74.506 55.9751 73.8398 55.7867 73.0942 55.6132C70.2771 54.9579 67.0563 54.6693 63.5217 54.9425C60.8103 55.152 58.3158 55.6011 56.0623 56.2211C54.9208 56.5352 53.9076 56.8751 53.0295 57.2201C52.7103 57.3455 52.4276 57.4644 52.1823 57.5743L51.9395 57.6858L51.8083 57.7495C50.0897 58.6086 49.4272 60.6332 50.3285 62.2714C51.214 63.8809 53.2795 64.5188 54.9814 63.7259L55.1696 63.6378C55.3141 63.5732 55.4937 63.4976 55.7075 63.4136C56.3523 63.1602 57.1227 62.9018 58.011 62.6574C59.826 62.1581 61.8599 61.7919 64.0897 61.6195C66.8378 61.4071 69.3113 61.6288 71.4283 62.1212C71.896 62.23 72.307 62.3437 72.6574 62.4551L72.9398 62.5487L73.1021 62.6072L73.1099 62.6103C74.8867 63.354 76.9596 62.5838 77.7398 60.89C78.52 59.1963 77.712 57.2203 75.9352 56.4766Z" fill="#393939"/>
<path d="M34.467 52.4512C34.2315 32.0159 53.0907 25.3204 49.7519 29.1722C46.4135 33.024 54.3205 42.5702 49.7519 45.5847C45.1837 48.5992 50.279 58.3131 47.8194 61.9975C45.3598 65.682 41.4332 64.8446 39.2107 72.046C36.9882 79.2474 38.8593 93.2673 38.8593 93.2673C39.035 93.6502 38.8593 94.1526 38.5079 94.1526C38.1565 94.1526 37.6295 93.9851 37.4867 93.2673C37.4867 93.2673 34.8183 82.9315 34.467 52.4512Z" fill="black"/>
<path d="M145.146 55.6131C145.363 36.7429 127.955 30.5602 131.037 34.117C134.118 37.6737 126.82 46.4887 131.037 49.2725C135.254 52.0563 130.55 61.0259 132.821 64.4283C135.091 67.8304 138.716 67.0573 140.767 73.707C142.819 80.3571 141.092 93.3032 141.092 93.3032C140.929 93.6569 141.092 94.1208 141.416 94.1208C141.74 94.1208 142.227 93.9661 142.358 93.3032C142.358 93.3032 144.821 83.7592 145.146 55.6131Z" fill="black"/>
<path d="M88.8591 83.6835C86.5554 86.9775 84.8438 91.6685 84.8438 95.5205C84.8438 101.105 88.3423 104.857 94.8579 104.857V99.1631C91.8083 99.1631 90.8171 98.1002 90.8171 95.5205C90.8171 92.883 92.14 89.2574 93.8292 86.842L88.8591 83.6835Z" fill="#EBBAAA"/>
<path d="M114.884 79.3829H109.965" stroke="black" stroke-width="8.43293" stroke-linecap="round"/>
<path d="M70.7864 79.3829H65.8672" stroke="black" stroke-width="8.43293" stroke-linecap="round"/>
<path fill-rule="evenodd" clip-rule="evenodd" d="M104.437 116.094V117.054C104.437 124.189 98.3699 129.972 90.8854 129.972C83.4011 129.972 77.334 124.189 77.334 117.054V116.094H104.437Z" fill="white"/>
<path fill-rule="evenodd" clip-rule="evenodd" d="M90.0971 43.1173C47.8766 43.1173 36.3802 67.2942 35.9095 79.3829C26.8488 52.9219 25.0014 0 90.0971 0C155.193 0 153.11 52.9219 143.932 79.3829C143.578 67.2942 132.317 43.1173 90.0971 43.1173Z" fill="#BB462F"/>
<mask id="mask5_1883_4321" style="mask-type:luminance" maskUnits="userSpaceOnUse" x="31" y="0" width="118" height="80">
<path fill-rule="evenodd" clip-rule="evenodd" d="M90.0971 43.1173C47.8766 43.1173 36.3802 67.2942 35.9095 79.3829C26.8488 52.9219 25.0014 0 90.0971 0C155.193 0 153.11 52.9219 143.932 79.3829C143.578 67.2942 132.317 43.1173 90.0971 43.1173Z" fill="white"/>
</mask>
<g mask="url(#mask5_1883_4321)">
</g>
<path d="M163 251C164.105 251 165 251.896 165 253V460C165 461.105 164.105 462 163 462H15C13.8954 462 13 461.105 13 460V253C13 251.896 13.8954 251 15 251H19C17.8954 251 17 250.105 17 249V238C17 236.896 17.8954 236 19 236H9C7.89543 236 7 235.105 7 234V224C7 222.896 7.89543 222 9 222H170C171.105 222 172 222.896 172 224V234C172 235.105 171.105 236 170 236H159C160.105 236 161 236.896 161 238V249C161 250.105 160.105 251 159 251H163Z" fill="#8A3827"/>
<rect x="40.5" y="267.5" width="97" height="115" rx="9.5" fill="#662521" stroke="#662521"/>
<circle cx="89.5" cy="329.5" r="27.5" fill="#8A3827" stroke="#662521" stroke-width="2"/>
<path d="M64.3281 473.625V485H62.8438V473.625H64.3281ZM67.9844 473.625V474.86H59.1953V473.625H67.9844ZM72.1797 485.157C71.5911 485.157 71.0573 485.058 70.5781 484.86C70.1042 484.657 69.6953 484.373 69.3516 484.008C69.013 483.644 68.7526 483.211 68.5703 482.711C68.388 482.211 68.2969 481.665 68.2969 481.071V480.743C68.2969 480.055 68.3984 479.443 68.6016 478.907C68.8047 478.365 69.0807 477.907 69.4297 477.532C69.7786 477.157 70.1745 476.873 70.6172 476.68C71.0599 476.487 71.5182 476.391 71.9922 476.391C72.5964 476.391 73.1172 476.495 73.5547 476.704C73.9974 476.912 74.3594 477.204 74.6406 477.579C74.9219 477.948 75.1302 478.386 75.2656 478.891C75.401 479.391 75.4688 479.938 75.4688 480.532V481.18H69.1562V480H74.0234V479.891C74.0026 479.516 73.9245 479.152 73.7891 478.797C73.6589 478.443 73.4505 478.152 73.1641 477.922C72.8776 477.693 72.487 477.579 71.9922 477.579C71.6641 477.579 71.362 477.649 71.0859 477.79C70.8099 477.925 70.5729 478.128 70.375 478.399C70.1771 478.67 70.0234 479 69.9141 479.391C69.8047 479.782 69.75 480.232 69.75 480.743V481.071C69.75 481.472 69.8047 481.849 69.9141 482.204C70.0286 482.553 70.1927 482.86 70.4062 483.125C70.625 483.391 70.888 483.599 71.1953 483.75C71.5078 483.902 71.862 483.977 72.2578 483.977C72.7682 483.977 73.2005 483.873 73.5547 483.665C73.9089 483.456 74.2188 483.178 74.4844 482.829L75.3594 483.524C75.1771 483.8 74.9453 484.063 74.6641 484.313C74.3828 484.563 74.0365 484.766 73.625 484.922C73.2188 485.079 72.737 485.157 72.1797 485.157ZM82.1406 483.555V479.204C82.1406 478.87 82.0729 478.581 81.9375 478.336C81.8073 478.086 81.6094 477.894 81.3438 477.758C81.0781 477.623 80.75 477.555 80.3594 477.555C79.9948 477.555 79.6745 477.618 79.3984 477.743C79.1276 477.868 78.9141 478.032 78.7578 478.235C78.6068 478.438 78.5312 478.657 78.5312 478.891H77.0859C77.0859 478.589 77.1641 478.29 77.3203 477.993C77.4766 477.696 77.7005 477.428 77.9922 477.188C78.2891 476.943 78.6432 476.75 79.0547 476.61C79.4714 476.464 79.9349 476.391 80.4453 476.391C81.0599 476.391 81.6016 476.495 82.0703 476.704C82.5443 476.912 82.9141 477.227 83.1797 477.649C83.4505 478.066 83.5859 478.589 83.5859 479.219V483.157C83.5859 483.438 83.6094 483.737 83.6562 484.055C83.7083 484.373 83.7839 484.646 83.8828 484.875V485H82.375C82.3021 484.834 82.2448 484.612 82.2031 484.336C82.1615 484.055 82.1406 483.795 82.1406 483.555ZM82.3906 479.875L82.4062 480.891H80.9453C80.5339 480.891 80.1667 480.925 79.8438 480.993C79.5208 481.055 79.25 481.152 79.0312 481.282C78.8125 481.412 78.6458 481.576 78.5312 481.774C78.4167 481.967 78.3594 482.193 78.3594 482.454C78.3594 482.719 78.4193 482.961 78.5391 483.18C78.6589 483.399 78.8385 483.573 79.0781 483.704C79.3229 483.829 79.6224 483.891 79.9766 483.891C80.4193 483.891 80.8099 483.797 81.1484 483.61C81.487 483.422 81.7552 483.193 81.9531 482.922C82.1562 482.652 82.2656 482.389 82.2812 482.133L82.8984 482.829C82.862 483.047 82.763 483.29 82.6016 483.555C82.4401 483.821 82.224 484.076 81.9531 484.321C81.6875 484.56 81.3698 484.761 81 484.922C80.6354 485.079 80.224 485.157 79.7656 485.157C79.1927 485.157 78.6901 485.045 78.2578 484.821C77.8307 484.597 77.4974 484.297 77.2578 483.922C77.0234 483.542 76.9062 483.118 76.9062 482.649C76.9062 482.196 76.9948 481.797 77.1719 481.454C77.349 481.105 77.6042 480.816 77.9375 480.586C78.2708 480.352 78.6719 480.175 79.1406 480.055C79.6094 479.935 80.1328 479.875 80.7109 479.875H82.3906ZM87.2969 478.227V485H85.8438V476.547H87.2188L87.2969 478.227ZM87 480.454L86.3281 480.43C86.3333 479.852 86.4089 479.318 86.5547 478.829C86.7005 478.334 86.9167 477.904 87.2031 477.54C87.4896 477.175 87.8464 476.894 88.2734 476.696C88.7005 476.493 89.1953 476.391 89.7578 476.391C90.1536 476.391 90.5182 476.448 90.8516 476.563C91.1849 476.672 91.474 476.847 91.7188 477.086C91.9635 477.326 92.1536 477.633 92.2891 478.008C92.4245 478.383 92.4922 478.836 92.4922 479.368V485H91.0469V479.438C91.0469 478.995 90.9714 478.641 90.8203 478.375C90.6745 478.11 90.4661 477.917 90.1953 477.797C89.9245 477.672 89.6068 477.61 89.2422 477.61C88.8151 477.61 88.4583 477.685 88.1719 477.836C87.8854 477.987 87.6562 478.196 87.4844 478.461C87.3125 478.727 87.1875 479.032 87.1094 479.375C87.0365 479.714 87 480.073 87 480.454ZM92.4766 479.657L91.5078 479.954C91.513 479.49 91.5885 479.045 91.7344 478.618C91.8854 478.191 92.1016 477.81 92.3828 477.477C92.6693 477.144 93.0208 476.881 93.4375 476.688C93.8542 476.49 94.3307 476.391 94.8672 476.391C95.3203 476.391 95.7214 476.451 96.0703 476.571C96.4245 476.691 96.7214 476.875 96.9609 477.125C97.2057 477.37 97.3906 477.685 97.5156 478.071C97.6406 478.456 97.7031 478.915 97.7031 479.446V485H96.25V479.43C96.25 478.956 96.1745 478.589 96.0234 478.329C95.8776 478.063 95.6693 477.878 95.3984 477.774C95.1328 477.665 94.8151 477.61 94.4453 477.61C94.1276 477.61 93.8464 477.665 93.6016 477.774C93.3568 477.883 93.151 478.034 92.9844 478.227C92.8177 478.415 92.6901 478.631 92.6016 478.875C92.5182 479.12 92.4766 479.381 92.4766 479.657ZM108.289 474.633L104.523 485H102.984L107.32 473.625H108.312L108.289 474.633ZM111.445 485L107.672 474.633L107.648 473.625H108.641L112.992 485H111.445ZM111.25 480.79V482.024H104.859V480.79H111.25Z" fill="black"/>
</svg>
