<svg width="174" height="490" viewBox="0 0 174 490" fill="none" xmlns="http://www.w3.org/2000/svg">
<path d="M41.5885 311.969C43.0749 304.659 50.2063 299.939 57.5169 301.425C64.8275 302.911 69.549 310.041 68.0626 317.351L67.9436 317.944C66.012 327.696 63.6877 345.482 62.2132 362.59L62.1679 363.119C60.4107 383.736 60.0547 401.026 61.3717 410.407C62.4089 417.793 57.2607 424.622 49.8729 425.659C42.4852 426.696 35.6554 421.549 34.6183 414.162C32.9417 402.221 33.3304 383.345 35.2497 360.826L35.3458 359.71C36.9349 341.474 39.4249 322.609 41.5885 311.969Z" fill="#AD827B"/>
<path d="M108.784 315.735C116.103 314.291 123.207 319.053 124.651 326.371C126.77 337.106 128.786 352.367 129.958 367.156L130.032 368.099C131.425 386.201 131.489 402.214 129.869 414.105C128.861 421.496 122.053 426.671 114.661 425.664C107.269 424.657 102.093 417.849 103.1 410.458C104.412 400.833 104.354 386.53 103.096 370.17L103.028 369.3C101.935 355.505 100.054 341.266 98.1468 331.601C96.7025 324.282 101.465 317.179 108.784 315.735Z" fill="#AD827B"/>
<path d="M88.3083 312.993L35.7067 271.011C35.7067 271.011 26.2207 293.002 26.2207 320.988C26.2207 353.641 31.8123 395.291 33.213 399.124C34.6137 402.953 50.0581 401.787 60.8644 396.623C72.9421 347.479 88.3083 312.993 88.3083 312.993Z" fill="#232526"/>
<path d="M33.5246 401.393L31.7832 391.621C40.003 396.598 54.9173 394.755 62.1362 391.621C62.1362 399.181 61.1878 400.472 61.1878 403.052C52.6518 408.953 37.0023 406.926 33.5246 401.393Z" fill="#3F4244"/>
<path d="M84.2247 332.879C114.768 332.879 139.528 317.962 139.528 299.56C139.528 281.159 114.768 266.242 84.2247 266.242C53.6818 266.242 28.9219 281.159 28.9219 299.56C28.9219 317.962 53.6818 332.879 84.2247 332.879Z" fill="#232526"/>
<path d="M80.918 310.826L134.949 280.006C134.949 280.006 140.641 295 140.641 322.322C140.641 349.642 136.221 377.63 131.106 396.955C123.637 403.619 110.127 408.284 105.361 403.619C100.596 398.954 80.918 310.826 80.918 310.826Z" fill="#232526"/>
<path d="M140.481 317.357C130.31 322.275 118.339 321.348 113.783 320.267C114.843 329.435 117.597 349.189 120.14 354.884C127.45 357.471 131.9 357.147 138.574 354.884C140.163 342.268 141.752 327.386 140.481 317.357Z" fill="#3F4244"/>
<path d="M137.958 322.229L139.193 324.451C136.828 325.765 133.593 326.591 129.626 327.055L129.205 327.103C126.272 327.428 123.668 327.517 119.755 327.525L119.188 327.525V324.983L120.281 324.981C123.989 324.966 126.479 324.864 129.331 324.53L129.815 324.471C133.176 324.044 135.902 323.334 137.822 322.303L137.958 322.229Z" fill="#232526"/>
<path d="M132.058 403.407V393.381C123.838 398.357 108.924 396.514 101.705 393.378C101.705 400.941 102.653 402.231 102.653 404.812C111.19 410.713 128.58 408.94 132.058 403.407Z" fill="#3F4244"/>
<path d="M2.70117 440.97C2.70117 427.381 12.6573 415.846 26.1009 413.853L33.6043 412.741H37.0563C37.0563 412.741 36.6984 419.023 48.3292 419.023C59.9596 419.023 61.5701 412.741 61.5701 412.741H63.0382C63.8496 412.741 64.5075 413.399 64.5075 414.212V439.327C64.5075 441.355 62.8627 443.001 60.8337 443.001H4.73212C3.61049 443.001 2.70117 442.092 2.70117 440.97Z" fill="#3B3F45"/>
<path d="M32.2587 407.637C32.1316 409.579 30.6165 412.436 29.875 413.621C30.6696 415.347 32.7991 418.798 34.9603 418.798C37.6619 418.798 38.2976 412.328 37.9797 411.197C37.6619 410.062 32.4177 405.21 32.2587 407.637Z" fill="#3B3F45"/>
<mask id="mask0_1837_3973" style="mask-type:luminance" maskUnits="userSpaceOnUse" x="2" y="412" width="63" height="32">
<path fill-rule="evenodd" clip-rule="evenodd" d="M2.70117 440.913C2.70117 425.354 15.3156 412.74 30.8764 412.74H33.6043H41.3302H49.0561H56.7819H64.5075V439.327C64.5075 441.354 62.8627 443.001 60.8337 443.001H4.78838C3.6356 443.001 2.70117 442.066 2.70117 440.913Z" fill="white"/>
</mask>
<g mask="url(#mask0_1837_3973)">
<path d="M26.3356 428.156L31.5729 438.316L26.6786 440.838L21.4414 430.678L26.3356 428.156Z" fill="#666E79"/>
<path d="M33.5511 424.31L39.8274 436.517L34.9305 439.034L28.6543 426.827L33.5511 424.31Z" fill="#666E79"/>
<path d="M40.6274 420.082L49.3052 437.29L44.3887 439.769L35.7109 422.56L40.6274 420.082Z" fill="#666E79"/>
<path d="M9.87013 423.908C5.23613 421.162 7.0535 426.603 2.88989 428.913L-5.92773 446.63H64.2439C65.9586 444.062 72.1535 430.75 67.2217 428.913C58.1635 425.544 42.2007 437.195 35.5875 436.81C28.9744 436.425 10.0443 439.311 11.1561 433.149C12.4417 426.024 14.0951 426.412 9.87013 423.908Z" fill="#555D65"/>
</g>
<path d="M27.9242 411.672C28.2873 411.211 28.9446 411.118 29.4199 411.449L30.0743 411.939C30.5041 412.259 31.0368 412.655 31.2675 412.836L31.5081 413.028C33.3168 414.496 34.3011 415.856 34.3011 417.553C34.3011 418.27 33.6294 418.79 32.9423 418.625L32.8851 418.609L24.5599 416.137L27.3504 420.842C27.8639 421.708 27.0447 422.742 26.0968 422.463L26.044 422.447L17.9356 419.659L20.8885 424.064C21.2157 424.552 21.101 425.207 20.6376 425.557L20.5866 425.593C20.0984 425.92 19.4433 425.806 19.0937 425.342L19.0574 425.291L14.2813 418.166C13.7039 417.305 14.5261 416.207 15.5018 416.494L15.5552 416.511L23.9252 419.387L21.2294 414.842C20.7275 413.995 21.5006 412.976 22.438 413.209L22.4912 413.223L31.2852 415.835L31.2255 415.767C30.91 415.418 30.5082 415.05 30.0193 414.659L29.905 414.569C29.5588 414.296 28.3346 413.398 28.1085 413.22C27.6302 412.843 27.5477 412.15 27.9242 411.672Z" fill="#7F8389"/>
<path d="M162.558 440.97C162.558 427.381 152.602 415.846 139.159 413.853L131.655 412.741H128.203C128.203 412.741 128.561 419.023 116.931 419.023C105.3 419.023 103.689 412.741 103.689 412.741H102.222C101.41 412.741 100.752 413.399 100.752 414.212V439.327C100.752 441.355 102.397 443.001 104.426 443.001H160.528C161.649 443.001 162.558 442.092 162.558 440.97Z" fill="#3B3F45"/>
<path d="M133.001 407.637C133.128 409.579 134.643 412.436 135.385 413.621C134.59 415.347 132.461 418.798 130.299 418.798C127.598 418.798 126.962 412.328 127.28 411.197C127.598 410.062 132.842 405.21 133.001 407.637Z" fill="#3B3F45"/>
<mask id="mask1_1837_3973" style="mask-type:luminance" maskUnits="userSpaceOnUse" x="100" y="412" width="63" height="32">
<path fill-rule="evenodd" clip-rule="evenodd" d="M162.558 440.913C162.558 425.354 149.944 412.74 134.383 412.74H131.655H123.929H116.204H108.478H100.752V439.327C100.752 441.354 102.397 443.001 104.426 443.001H160.471C161.624 443.001 162.558 442.066 162.558 440.913Z" fill="white"/>
</mask>
<g mask="url(#mask1_1837_3973)">
<path d="M138.927 428.156L143.821 430.678L138.584 440.838L133.689 438.316L138.927 428.156Z" fill="#666E79"/>
<path d="M131.71 424.31L136.607 426.827L130.33 439.034L125.434 436.517L131.71 424.31Z" fill="#666E79"/>
<path d="M124.633 420.082L129.549 422.56L120.872 439.769L115.955 437.29L124.633 420.082Z" fill="#666E79"/>
<path d="M155.39 423.908C160.024 421.162 158.207 426.603 162.371 428.913L171.188 446.63H101.016C99.3021 444.062 93.1072 430.75 98.0387 428.913C107.097 425.544 123.06 437.195 129.673 436.81C136.286 436.425 155.216 439.311 154.105 433.149C152.819 426.024 151.165 426.412 155.39 423.908Z" fill="#555D65"/>
</g>
<path d="M135.737 411.527L135.788 411.488C136.266 411.111 136.959 411.194 137.336 411.672C137.712 412.15 137.63 412.843 137.152 413.22L136.999 413.336C136.611 413.629 135.729 414.278 135.395 414.537L135.355 414.569C134.814 414.994 134.374 415.391 134.035 415.767L133.975 415.835L142.769 413.223C143.712 412.943 144.512 413.941 144.058 414.794L144.031 414.842L141.335 419.387L149.705 416.511C150.686 416.174 151.536 417.25 151.009 418.119L150.979 418.166L146.203 425.291C145.864 425.797 145.179 425.932 144.673 425.593C144.185 425.266 144.042 424.617 144.338 424.117L144.372 424.064L147.324 419.659L139.216 422.447C138.264 422.774 137.418 421.762 137.883 420.891L137.91 420.842L140.7 416.137L132.375 418.609C131.688 418.813 130.997 418.318 130.961 417.612L130.959 417.553C130.959 415.782 132.031 414.378 133.993 412.836L134.131 412.729C134.576 412.389 135.473 411.728 135.737 411.527Z" fill="#7F8389"/>
<path d="M24.1778 176.974C28.8221 169.528 38.6241 167.256 46.0714 171.9C53.4441 176.497 55.7449 186.149 51.2838 193.566L51.0213 193.996C49.9646 195.756 47.9416 199.869 45.865 204.722L45.7796 204.922C42.9264 211.612 40.2504 218.973 38.0939 226.334C32.761 244.536 31.2851 260.383 34.4308 270.716C36.9866 279.111 32.252 287.989 23.8556 290.544C15.4593 293.1 6.58084 288.366 4.02502 279.97C1.10625 270.383 0.405172 259.604 1.5027 247.819C2.40523 238.128 4.51782 227.894 7.59256 217.399C12.2886 201.371 19.4828 184.502 24.1778 176.974Z" fill="#AD827B"/>
<path d="M126.51 170.899C133.957 166.255 143.759 168.527 148.403 175.973C154.588 185.888 160.362 196.405 165.1 207.869C168.549 216.213 170.954 224.051 172.062 231.37C173.567 241.301 172.714 250.254 168.486 257.98C164.273 265.678 154.616 268.504 146.916 264.291C139.294 260.12 136.448 250.615 140.48 242.956L140.605 242.724C140.617 242.702 140.65 242.618 140.697 242.455C140.782 242.154 140.854 241.753 140.902 241.254C141.028 239.932 140.952 238.201 140.638 236.13C139.963 231.674 138.275 226.172 135.726 220.007C131.797 210.501 126.768 201.34 121.435 192.79C116.79 185.343 119.063 175.542 126.51 170.899Z" fill="#957C62"/>
<path d="M21.1359 178.384C30.3976 160.816 45.534 162.142 51.9657 162.807L39.9602 223.698L4.76758 212.203C6.67457 209.371 8.14042 209.717 8.74048 207.705C10.7603 200.933 13.9962 191.928 21.1359 178.384Z" fill="#D13227"/>
<path d="M4.5302 211.703L19.8996 215.701L35.4381 219.033L33.0735 225.697L19.8996 223.031L0.476562 216.701L4.5302 211.703Z" fill="#E23F34"/>
<path d="M2.70158 221.865L23.3623 224.698L43.3059 228.029L44.6555 236.526L33.8492 235.693C33.8492 235.693 25.4266 238.525 17.9575 233.694C10.4885 228.862 0 226.03 0 226.03L2.70158 221.865Z" fill="#D13227"/>
<path d="M0.636719 216.535L21.4547 223.032L38.6177 224.531L35.7572 232.528L18.7532 228.529L2.3848 221.866L0.636719 216.535Z" fill="#B62C23"/>
<path d="M153.037 178.628C143.775 161.06 128.639 162.386 122.207 163.051L134.213 223.942L169.405 212.447C167.498 209.615 166.032 209.961 165.432 207.949C163.412 201.177 160.177 192.172 153.037 178.628Z" fill="#D13227"/>
<path d="M169.642 211.948L154.273 215.947L138.734 219.278L141.099 225.942L154.273 223.277L173.696 216.946L169.642 211.948Z" fill="#E23F34"/>
<path d="M171.471 222.109L150.811 224.942L130.867 228.274L129.518 236.77L139.529 239.391C139.529 239.391 147.475 233.938 156.216 233.938C164.956 233.938 172.767 242.537 172.767 242.537L173.22 231.951L171.471 222.109Z" fill="#D13227"/>
<path d="M173.536 216.779L152.718 223.275L135.555 224.775L138.415 232.771L155.419 228.773L171.788 222.11L173.536 216.779Z" fill="#B62C23"/>
<path d="M39.7318 173.748C41.286 164.204 49.4689 157.238 59.1415 157.147L89.0823 156.867L117.091 159.36C126.127 160.164 133.518 166.941 134.924 175.91C138.111 196.248 143.203 232.705 143.203 258.091C143.203 295.042 150.159 298.577 139.389 303.418C128.62 308.26 42.455 307.579 30.6907 300.072C18.9268 292.566 26.2414 284.746 26.2414 269.419C26.2414 258.07 35.1219 202.059 39.7318 173.748Z" fill="#E23D32"/>
<path d="M85.497 191.045C95.9412 191.045 104.408 181.573 104.408 169.888C104.408 158.203 95.9412 148.73 85.497 148.73C75.0527 148.73 66.5859 158.203 66.5859 169.888C66.5859 181.573 75.0527 191.045 85.497 191.045Z" fill="#CC2217"/>
<path d="M74.213 190.379C64.0424 188.246 42.1119 165.057 53.5539 153.062C60.864 143.066 72.6238 156.394 74.213 163.058C75.4843 168.389 78.9805 181.494 81.2053 185.048C83.748 187.602 84.3836 192.511 74.213 190.379Z" fill="#F06057"/>
<path d="M98.3689 190.309C108.54 188.177 130.47 164.987 119.028 152.992C111.718 142.997 99.958 156.324 98.3689 162.988C97.0976 168.319 93.6014 181.424 91.3766 184.978C88.8339 187.533 88.1983 192.442 98.3689 190.309Z" fill="#F06057"/>
<path d="M75.9707 239.859L64.2402 240.719L63.4902 229.47L61.4854 229.618L62.2354 240.866L50.5059 241.725L48.2734 208.254L60.0029 207.393L60.7324 218.322L62.7363 218.176L62.0078 207.247L73.7383 206.387L75.9707 239.859ZM64.7129 209.596L65.4424 220.525L58.3652 221.044L57.6367 210.115L50.9785 210.603L52.8721 239.002L59.5303 238.513L58.7803 227.265L65.8574 226.747L66.6074 237.995L73.2656 237.507L71.3711 209.108L64.7129 209.596ZM104.878 225.185C105.373 232.616 100.122 238.326 92.8975 238.856C85.7428 239.38 79.8746 234.579 79.2754 227.253L79.2588 227.029L77.8623 206.083L89.5918 205.222L90.9805 226.044C91.0286 226.764 91.2019 227.202 91.4033 227.402C91.528 227.526 91.7213 227.592 92.1104 227.563C92.5185 227.533 92.7414 227.423 92.875 227.252C93.0548 227.022 93.1697 226.599 93.1406 225.956L93.1357 225.852L91.749 205.065L103.479 204.205L104.878 225.185ZM121.583 236.513L109.854 237.374L107.621 203.902L119.351 203.043L121.583 236.513ZM94.4541 207.416L95.6719 225.683C95.7581 226.975 95.48 228.048 94.8779 228.818C94.2864 229.575 93.3972 230.018 92.2969 230.099C91.198 230.18 90.2761 229.87 89.6084 229.205C88.9569 228.557 88.5595 227.584 88.4541 226.351L88.4434 226.214L87.2246 207.946L80.5664 208.434L81.7959 226.861C82.1974 232.878 86.8663 236.75 92.7119 236.322C98.5147 235.896 102.658 231.449 102.352 225.535L102.342 225.355L101.112 206.928L94.4541 207.416ZM110.325 206.252L112.22 234.65L118.878 234.162L116.983 205.763L110.325 206.252Z" fill="#F06057"/>
<path d="M70.4006 181.157C71.6037 181.157 72.5838 182.112 72.6241 183.305L72.6254 183.382V228.534C72.6254 229.762 71.6293 230.758 70.4006 230.758C69.1975 230.758 68.2174 229.803 68.1771 228.61L68.1758 228.534V183.382C68.1758 182.153 69.1719 181.157 70.4006 181.157Z" fill="#CC2217"/>
<path d="M70.3997 226.408C71.2543 226.408 71.9513 227.082 71.9874 227.928L71.9889 227.997V232.028C71.9889 232.906 71.2774 233.617 70.3997 233.617C69.5451 233.617 68.8481 232.943 68.812 232.097L68.8105 232.028V227.997C68.8105 227.119 69.522 226.408 70.3997 226.408Z" fill="#FFAB49"/>
<path d="M101.547 181.157C102.75 181.157 103.73 182.112 103.771 183.305L103.772 183.382V235.359C103.772 236.588 102.776 237.584 101.547 237.584C100.344 237.584 99.3639 236.629 99.3236 235.436L99.3223 235.359V183.382C99.3223 182.153 100.318 181.157 101.547 181.157Z" fill="#CC2217"/>
<path d="M101.548 233.105C102.403 233.105 103.1 233.779 103.136 234.625L103.137 234.694V239.358C103.137 240.236 102.426 240.947 101.548 240.947C100.694 240.947 99.9965 240.273 99.9605 239.427L99.959 239.358V234.694C99.959 233.816 100.67 233.105 101.548 233.105Z" fill="#FFAB49"/>
<path d="M141.737 242.178C145.587 234.586 154.864 231.552 162.457 235.401C170.05 239.25 173.084 248.526 169.235 256.118C163.018 268.378 154.171 277.046 143.401 282.212C135.017 286.234 126.228 287.853 117.028 287.853C108.515 287.853 101.613 280.952 101.613 272.44C101.613 263.928 108.515 257.027 117.028 257.027C121.952 257.027 126.298 256.226 130.066 254.419C134.711 252.191 138.584 248.396 141.737 242.178Z" fill="#AD827B"/>
<path d="M46.0678 264.723C47.8378 256.347 55.2309 250.353 63.7927 250.353H85.4743H119.161C120.94 250.353 122.74 250.599 124.206 251.608C127.257 253.707 132.382 258.996 134.125 271.409C136.667 289.515 134.125 292.464 134.125 292.464C134.125 292.464 107.903 298.332 85.4743 298.332C63.0452 298.332 40.2051 292.464 40.2051 292.464L44.6547 271.409L46.0678 264.723Z" fill="#CC2217"/>
<rect x="73.4863" y="146.072" width="25.4266" height="38.4117" rx="12.2122" fill="#AD827B"/>
<path d="M38.6693 119.041C48.8624 119.041 57.1256 110.825 57.1256 100.689C57.1256 90.5532 48.8624 82.3367 38.6693 82.3367C28.4761 82.3367 20.2129 90.5532 20.2129 100.689C20.2129 110.825 28.4761 119.041 38.6693 119.041Z" fill="#AD827B"/>
<path d="M134.654 120.462C144.847 120.462 153.11 112.246 153.11 102.11C153.11 91.9744 144.847 83.7578 134.654 83.7578C124.46 83.7578 116.197 91.9744 116.197 102.11C116.197 112.246 124.46 120.462 134.654 120.462Z" fill="#AD827B"/>
<path d="M31.9785 62.1397C32.8185 47.2887 43.6894 34.9295 58.3135 32.1999L78.1376 28.4997C85.6429 27.0988 93.351 27.1922 100.82 28.7746L138.929 36.8486L143.697 85.3365V106.858C143.697 137.704 118.688 162.71 87.8376 162.71C56.9875 162.71 31.9785 137.704 31.9785 106.858V62.1397Z" fill="#AD827B"/>
<path d="M65.6778 88.7239C67.8038 88.7239 69.5332 90.4215 69.5843 92.535L69.5854 92.6313L69.5851 102.001C69.5851 104.159 67.8354 105.908 65.6772 105.908C63.5512 105.908 61.8218 104.21 61.7707 102.097L61.7695 102L61.7698 92.631C61.7699 90.4731 63.5196 88.7238 65.6778 88.7239Z" fill="black"/>
<path d="M105.643 88.7239C107.769 88.7239 109.498 90.4215 109.549 92.535L109.55 92.6313L109.55 102.001C109.55 104.159 107.8 105.908 105.642 105.908C103.516 105.908 101.787 104.21 101.736 102.097L101.734 102L101.735 92.631C101.735 90.4731 103.484 88.7238 105.643 88.7239Z" fill="black"/>
<path d="M76.4319 127.753C76.9584 126.546 78.3633 125.995 79.57 126.521L79.8279 126.632C84.0272 128.404 87.6226 128.428 95.8422 126.392C97.1201 126.076 98.4126 126.855 98.7292 128.133C99.0457 129.41 98.2664 130.703 96.9886 131.019C87.664 133.329 83.0544 133.242 77.6635 130.89C76.4569 130.364 75.9055 128.959 76.4319 127.753Z" fill="#272727"/>
<path d="M50.3862 76.8118C50.5293 74.743 52.2972 73.1741 54.3575 73.265L54.4542 73.2705L72.763 74.5366C74.8644 74.6819 76.4501 76.503 76.3047 78.6041C76.1616 80.6729 74.3937 82.2418 72.3335 82.1508L72.2367 82.1454L53.9279 80.8793C51.8266 80.734 50.2409 78.9129 50.3862 76.8118Z" fill="#272727"/>
<path d="M118.097 72.6276C120.197 72.4643 122.032 74.0341 122.195 76.1338C122.356 78.2013 120.836 80.0118 118.785 80.2229L118.688 80.2317L100.665 81.6337C98.5646 81.7971 96.7298 80.2273 96.5664 78.1275C96.4055 76.0601 97.9251 74.2496 99.9765 74.0385L100.073 74.0297L118.097 72.6276Z" fill="#272727"/>
<path d="M109.206 40.7796C130.819 47.7764 134.206 48.9427 135.904 57.7722C138.661 72.1126 145.791 68.0957 146.551 52.2745C140.07 6.12268 103.803 2.12964 95.8571 6.79433C86.3221 12.392 83.4244 32.4332 109.206 40.7796Z" fill="#484A4B"/>
<path d="M146.552 52.9827C146.552 49.3672 141.278 54.4525 138.873 57.1515L138.002 58.1284C137.081 59.1622 136.696 60.5668 136.961 61.926L142.194 88.7495C142.308 89.3339 142.82 89.7559 143.416 89.7559C144.085 89.7559 144.635 89.2268 144.66 88.5578L146.552 52.9827Z" fill="#484A4B"/>
<path d="M122.842 44.4434C94.2375 33.7815 40.7126 49.6078 35.3095 56.2716C32.5517 70.6119 28.4462 65.4341 27.8105 50.6127C34.485 9.7918 72.6627 -10.8863 115.85 5.79357C140.005 15.1229 146.362 36.4468 122.842 44.4434Z" fill="#272727"/>
<path d="M28.1289 27.2846C37.0282 28.2842 38.7763 25.8964 43.8616 22.7866V30.7831L40.3655 38.1131C34.6445 38.1131 30.6716 36.6138 28.1289 27.2846Z" fill="#272727"/>
<path d="M21.1367 36.281C30.036 37.2804 31.7841 34.8925 36.8694 31.783V39.7795L33.3733 47.1094C27.6523 47.1094 23.6794 45.61 21.1367 36.281Z" fill="#272727"/>
<path d="M52.9286 28.1155C52.0603 39.8263 51.9961 53.1844 51.9961 53.1844L69.4851 40.7413C69.4851 40.7413 60.3926 38.3626 52.9286 28.1155Z" fill="#272727"/>
<path d="M43.0751 31.8748C42.2068 43.586 42.1426 56.9437 42.1426 56.9437L54.2202 46.202C54.2202 46.202 50.5391 42.1219 43.0751 31.8748Z" fill="#272727"/>
<path d="M64.0227 24.4517C63.154 36.1627 63.0898 49.5204 63.0898 49.5204L80.5789 37.0777C80.5789 37.0777 71.4867 34.6987 64.0227 24.4517Z" fill="#272727"/>
<path d="M27.2082 43.3913C27.5384 39.4462 32.5172 37.9275 34.9938 41.0161C35.6882 41.8827 36.028 42.9803 35.9441 44.0879L32.4909 89.66C32.4438 90.2785 31.9283 90.7561 31.3082 90.7561C30.7469 90.7561 30.2628 90.363 30.1475 89.8138L25.6559 68.4068C25.3991 67.1824 25.3215 65.9271 25.4258 64.6804L27.2082 43.3913Z" fill="#272727"/>
<path d="M82.4042 99.9631L87.3202 102.205L86.6839 103.581C86.4052 104.189 86.1697 104.723 85.9464 105.26C85.3121 106.787 84.8532 108.167 84.5936 109.426C84.2067 111.3 84.3152 112.675 84.8499 113.482C85.4653 114.411 86.9152 115.02 89.6644 115.042L89.8185 115.042V120.445C85.3155 120.445 82.1065 119.123 80.3455 116.466C78.8696 114.238 78.6521 111.483 79.3019 108.334C79.6405 106.693 80.2015 105.005 80.9565 103.188C81.1449 102.734 81.3386 102.289 81.5517 101.815L81.9225 101.004L82.4042 99.9631Z" fill="#AD827B"/>
<path d="M156 250C157.105 250 158 250.895 158 252V459C158 460.105 157.105 461 156 461H8C6.89543 461 6 460.105 6 459V252C6 250.895 6.89543 250 8 250H12C10.8954 250 10 249.105 10 248V237C10 235.895 10.8954 235 12 235H2C0.895431 235 4.83198e-08 234.105 0 233V223C0 221.895 0.895431 221 2 221H163C164.105 221 165 221.895 165 223V233C165 234.105 164.105 235 163 235H152C153.105 235 154 235.895 154 237V248C154 249.105 153.105 250 152 250H156Z" fill="#8A3827"/>
<rect x="33.5" y="266.5" width="97" height="115" rx="9.5" fill="#662521" stroke="#662521"/>
<circle cx="82.5" cy="328.5" r="27.5" fill="#8A3827" stroke="#662521" stroke-width="2"/>
<path d="M65.4105 472.625V484H63.9261V472.625H65.4105ZM69.0667 472.625V473.859H60.2777V472.625H69.0667ZM73.262 484.156C72.6735 484.156 72.1396 484.057 71.6605 483.859C71.1865 483.656 70.7777 483.372 70.4339 483.008C70.0954 482.643 69.8349 482.211 69.6527 481.711C69.4704 481.211 69.3792 480.664 69.3792 480.07V479.742C69.3792 479.055 69.4808 478.443 69.6839 477.906C69.887 477.365 70.1631 476.906 70.512 476.531C70.861 476.156 71.2568 475.872 71.6995 475.68C72.1422 475.487 72.6006 475.391 73.0745 475.391C73.6787 475.391 74.1995 475.495 74.637 475.703C75.0797 475.911 75.4417 476.203 75.723 476.578C76.0042 476.948 76.2126 477.385 76.348 477.891C76.4834 478.391 76.5511 478.938 76.5511 479.531V480.18H70.2386V479H75.1058V478.891C75.0849 478.516 75.0068 478.151 74.8714 477.797C74.7412 477.443 74.5329 477.151 74.2464 476.922C73.9599 476.693 73.5693 476.578 73.0745 476.578C72.7464 476.578 72.4443 476.648 72.1683 476.789C71.8922 476.924 71.6553 477.128 71.4573 477.398C71.2594 477.669 71.1058 478 70.9964 478.391C70.887 478.781 70.8323 479.232 70.8323 479.742V480.07C70.8323 480.471 70.887 480.849 70.9964 481.203C71.111 481.552 71.2751 481.859 71.4886 482.125C71.7073 482.391 71.9704 482.599 72.2777 482.75C72.5902 482.901 72.9443 482.977 73.3402 482.977C73.8506 482.977 74.2829 482.872 74.637 482.664C74.9912 482.456 75.3011 482.177 75.5667 481.828L76.4417 482.523C76.2594 482.799 76.0277 483.062 75.7464 483.312C75.4652 483.562 75.1188 483.766 74.7073 483.922C74.3011 484.078 73.8193 484.156 73.262 484.156ZM83.223 482.555V478.203C83.223 477.87 83.1553 477.581 83.0198 477.336C82.8896 477.086 82.6917 476.893 82.4261 476.758C82.1605 476.622 81.8323 476.555 81.4417 476.555C81.0771 476.555 80.7568 476.617 80.4808 476.742C80.2099 476.867 79.9964 477.031 79.8402 477.234C79.6891 477.438 79.6136 477.656 79.6136 477.891H78.1683C78.1683 477.589 78.2464 477.289 78.4027 476.992C78.5589 476.695 78.7829 476.427 79.0745 476.188C79.3714 475.943 79.7256 475.75 80.137 475.609C80.5537 475.464 81.0172 475.391 81.5277 475.391C82.1422 475.391 82.6839 475.495 83.1527 475.703C83.6266 475.911 83.9964 476.227 84.262 476.648C84.5329 477.065 84.6683 477.589 84.6683 478.219V482.156C84.6683 482.438 84.6917 482.737 84.7386 483.055C84.7907 483.372 84.8662 483.646 84.9652 483.875V484H83.4573C83.3844 483.833 83.3271 483.612 83.2855 483.336C83.2438 483.055 83.223 482.794 83.223 482.555ZM83.473 478.875L83.4886 479.891H82.0277C81.6162 479.891 81.249 479.924 80.9261 479.992C80.6032 480.055 80.3323 480.151 80.1136 480.281C79.8948 480.411 79.7282 480.576 79.6136 480.773C79.499 480.966 79.4417 481.193 79.4417 481.453C79.4417 481.719 79.5016 481.961 79.6214 482.18C79.7412 482.398 79.9209 482.573 80.1605 482.703C80.4053 482.828 80.7047 482.891 81.0589 482.891C81.5016 482.891 81.8922 482.797 82.2308 482.609C82.5693 482.422 82.8376 482.193 83.0355 481.922C83.2386 481.651 83.348 481.388 83.3636 481.133L83.9808 481.828C83.9443 482.047 83.8454 482.289 83.6839 482.555C83.5224 482.82 83.3063 483.076 83.0355 483.32C82.7698 483.56 82.4521 483.76 82.0823 483.922C81.7178 484.078 81.3063 484.156 80.848 484.156C80.2751 484.156 79.7724 484.044 79.3402 483.82C78.9131 483.596 78.5797 483.297 78.3402 482.922C78.1058 482.542 77.9886 482.117 77.9886 481.648C77.9886 481.195 78.0771 480.797 78.2542 480.453C78.4313 480.104 78.6865 479.815 79.0198 479.586C79.3532 479.352 79.7542 479.174 80.223 479.055C80.6917 478.935 81.2152 478.875 81.7933 478.875H83.473ZM88.3792 477.227V484H86.9261V475.547H88.3011L88.3792 477.227ZM88.0823 479.453L87.4105 479.43C87.4157 478.852 87.4912 478.318 87.637 477.828C87.7829 477.333 87.999 476.904 88.2855 476.539C88.5719 476.174 88.9287 475.893 89.3558 475.695C89.7829 475.492 90.2777 475.391 90.8402 475.391C91.236 475.391 91.6006 475.448 91.9339 475.562C92.2672 475.672 92.5563 475.846 92.8011 476.086C93.0459 476.326 93.236 476.633 93.3714 477.008C93.5068 477.383 93.5745 477.836 93.5745 478.367V484H92.1292V478.438C92.1292 477.995 92.0537 477.641 91.9027 477.375C91.7568 477.109 91.5485 476.917 91.2777 476.797C91.0068 476.672 90.6891 476.609 90.3245 476.609C89.8974 476.609 89.5407 476.685 89.2542 476.836C88.9678 476.987 88.7386 477.195 88.5667 477.461C88.3948 477.727 88.2698 478.031 88.1917 478.375C88.1188 478.714 88.0823 479.073 88.0823 479.453ZM93.5589 478.656L92.5902 478.953C92.5954 478.49 92.6709 478.044 92.8167 477.617C92.9678 477.19 93.1839 476.81 93.4652 476.477C93.7516 476.143 94.1032 475.88 94.5198 475.688C94.9365 475.49 95.4131 475.391 95.9495 475.391C96.4027 475.391 96.8037 475.451 97.1527 475.57C97.5068 475.69 97.8037 475.875 98.0433 476.125C98.2881 476.37 98.473 476.685 98.598 477.07C98.723 477.456 98.7855 477.914 98.7855 478.445V484H97.3323V478.43C97.3323 477.956 97.2568 477.589 97.1058 477.328C96.9599 477.062 96.7516 476.878 96.4808 476.773C96.2152 476.664 95.8974 476.609 95.5277 476.609C95.2099 476.609 94.9287 476.664 94.6839 476.773C94.4391 476.883 94.2334 477.034 94.0667 477.227C93.9001 477.414 93.7724 477.63 93.6839 477.875C93.6006 478.12 93.5589 478.38 93.5589 478.656ZM109.215 478.68H106.332L106.317 477.469H108.934C109.366 477.469 109.744 477.396 110.067 477.25C110.39 477.104 110.64 476.896 110.817 476.625C110.999 476.349 111.09 476.021 111.09 475.641C111.09 475.224 111.009 474.885 110.848 474.625C110.692 474.359 110.45 474.167 110.121 474.047C109.798 473.922 109.387 473.859 108.887 473.859H106.668V484H105.16V472.625H108.887C109.47 472.625 109.991 472.685 110.45 472.805C110.908 472.919 111.296 473.102 111.614 473.352C111.937 473.596 112.181 473.909 112.348 474.289C112.515 474.669 112.598 475.125 112.598 475.656C112.598 476.125 112.478 476.549 112.239 476.93C111.999 477.305 111.666 477.612 111.239 477.852C110.817 478.091 110.322 478.245 109.754 478.312L109.215 478.68ZM109.145 484H105.739L106.59 482.773H109.145C109.624 482.773 110.03 482.69 110.364 482.523C110.702 482.357 110.96 482.122 111.137 481.82C111.314 481.513 111.403 481.151 111.403 480.734C111.403 480.312 111.327 479.948 111.176 479.641C111.025 479.333 110.788 479.096 110.465 478.93C110.142 478.763 109.726 478.68 109.215 478.68H107.067L107.082 477.469H110.02L110.34 477.906C110.887 477.953 111.351 478.109 111.731 478.375C112.111 478.635 112.4 478.969 112.598 479.375C112.801 479.781 112.903 480.229 112.903 480.719C112.903 481.427 112.746 482.026 112.434 482.516C112.127 483 111.692 483.37 111.129 483.625C110.567 483.875 109.905 484 109.145 484Z" fill="black"/>
</svg>
